<svg xmlns="http://www.w3.org/2000/svg" viewBox="0 0 750 500"><g id="freepik--background-complete--inject-7"><path d="M255.84,429.26c-2.77,3.46-.81,9,2.84,11.5s8.32,2.85,12.75,3.1l59.43,3.39c-5.66,2.37-11.49,4.85-15.79,9.23s-6.73,11.21-4.24,16.82c3.56,8,14.2,9.3,22.93,8.9,63.43-2.94,123-35.55,186.52-36.08,26.41-.21,52.52,5.16,78.83,7.47s53.93,1.32,77.44-10.71c3-1.52,6.14-3.57,6.84-6.83s-2.78-7.23-7.66-6.79" style="fill:#ebebeb"></path><path d="M63.91,429.56c-3.86,3.67-.39,8.45,1.27,10.16a17.37,17.37,0,0,0,6.07,3.62c15.53,6.39,32.35,9,49.09,10.42,10,.83,20.32,1.27,29.75,4.82,8.15,3.07,15.41,8.36,23.83,10.6s19.1.18,22.71-7.74c2.59-5.68,1.16-13.37,5.92-17.41,2.1-1.79,4.95-2.35,7.55-3.27s5.31-2.56,6-5.24c.73-3-.3-5-3.1-6.26" style="fill:#ebebeb"></path><path d="M365.25,52.27c.58-4.27-5.45-7.79-10-8.16-2.16-.17-4.41.16-6.46-.56-4.44-1.54-6.21-7.28-10.54-9.11-3.24-1.36-7-.15-10.11,1.43s-6.25,3.57-9.75,3.8c-3.06.19-6.37-.94-9,.55-2,1.11-3,3.4-4.86,4.76s-4.14,1.6-6.36,1.72-4.53.14-6.56,1.07-3.71,3.07-3.28,5.26Z" style="fill:#e0e0e0"></path><path d="M289.93,102.73c.85-6.14-7.83-11.2-14.34-11.73-3.11-.25-6.34.23-9.29-.8-6.38-2.22-8.92-10.46-15.15-13.09-4.65-2-10-.22-14.52,2.06s-9,5.12-14,5.45c-4.38.28-9.14-1.35-13,.79-2.86,1.6-4.36,4.89-7,6.84s-5.94,2.3-9.14,2.47-6.51.21-9.42,1.54-5.32,4.42-4.72,7.56Z" style="fill:#ebebeb"></path><path d="M706.83,120.29c.84-6.14-7.83-11.2-14.35-11.73-3.11-.25-6.34.23-9.28-.8-6.38-2.22-8.93-10.46-15.15-13.09-4.66-2-10-.22-14.53,2s-9,5.13-14,5.46c-4.39.28-9.15-1.35-13,.79-2.86,1.6-4.36,4.89-7,6.84s-5.94,2.3-9.13,2.47-6.51.21-9.43,1.54-5.32,4.42-4.71,7.56Z" style="fill:#ebebeb"></path><path d="M111.29,77.41c.4-2.91-3.71-5.31-6.79-5.56-1.48-.12-3,.11-4.4-.38-3-1-4.23-5-7.18-6.2-2.2-.93-4.74-.1-6.87,1s-4.25,2.43-6.64,2.58c-2.08.13-4.33-.64-6.15.38C71.91,70,71.2,71.52,70,72.44a8,8,0,0,1-4.33,1.18,12.17,12.17,0,0,0-4.46.72,3.52,3.52,0,0,0-2.23,3.58Z" style="fill:#ebebeb"></path><path d="M637.36,62.74c.4-2.91-3.71-5.3-6.8-5.55-1.47-.12-3,.11-4.39-.38-3-1.05-4.23-5-7.18-6.2-2.2-.93-4.74-.1-6.88,1s-4.25,2.43-6.63,2.58c-2.08.14-4.33-.63-6.15.38-1.35.76-2.06,2.32-3.31,3.24A7.87,7.87,0,0,1,591.69,59a12.18,12.18,0,0,0-4.46.73A3.52,3.52,0,0,0,585,63.26Z" style="fill:#ebebeb"></path><path d="M533.12,30.81a11.12,11.12,0,0,1-1.11-.24,8.92,8.92,0,0,0-3.06-.09,8.37,8.37,0,0,0-7,6.38l0,0-.17.68-.26-.64a9.22,9.22,0,0,0-3.46-4.19,8.88,8.88,0,0,0-4.22-1.43,11.39,11.39,0,0,0-4.14.53,3.35,3.35,0,0,1,1-.46,8.87,8.87,0,0,1,3.11-.39,9,9,0,0,1,4.43,1.4A9.35,9.35,0,0,1,522,36.78l-.43,0v-.05A8.76,8.76,0,0,1,524.6,32a8.39,8.39,0,0,1,4.31-1.79,8.29,8.29,0,0,1,3.14.23A3.58,3.58,0,0,1,533.12,30.81Z" style="fill:#e0e0e0"></path><path d="M435.86,44.79s-.36.42-1,1.17a25.48,25.48,0,0,0-2.48,3.37,24.56,24.56,0,0,0-3.69,13.1v.16l-.46,0a22,22,0,0,0-6-12A29.31,29.31,0,0,0,417.77,47s.14,0,.37.16.57.3,1,.57a19.48,19.48,0,0,1,3.29,2.61,21.64,21.64,0,0,1,6.25,12.19l-.45,0v-.16a24,24,0,0,1,3.88-13.28,22.43,22.43,0,0,1,2.62-3.33c.34-.36.64-.61.83-.79A1.28,1.28,0,0,1,435.86,44.79Z" style="fill:#e0e0e0"></path><path d="M482.05,117.71c0,.05-.79-.27-2.26-.6a18,18,0,0,0-6.3-.24,16.92,16.92,0,0,0-8.48,3.66,17.59,17.59,0,0,0-6,9.52l0,.1-.18.68-.26-.64a19,19,0,0,0-7.17-8.67,18.4,18.4,0,0,0-8.77-2.92,19.41,19.41,0,0,0-6.26.58c-1.44.38-2.21.71-2.22.67a3.56,3.56,0,0,1,.54-.26,14.36,14.36,0,0,1,1.64-.59,18.72,18.72,0,0,1,15.29,2.17A19.13,19.13,0,0,1,459,130l-.43,0,0-.11a17.92,17.92,0,0,1,6.17-9.74,17.48,17.48,0,0,1,15.1-3.26,13.86,13.86,0,0,1,1.66.53A2.75,2.75,0,0,1,482.05,117.71Z" style="fill:#e0e0e0"></path><path d="M565.76,81.24s-.44-.13-1.25-.29a9.8,9.8,0,0,0-3.44-.1,9.25,9.25,0,0,0-4.62,2,9.68,9.68,0,0,0-3.26,5.19v0l-.18.68-.26-.64a10.4,10.4,0,0,0-3.9-4.73,10.07,10.07,0,0,0-4.77-1.61,11,11,0,0,0-3.43.28c-.79.2-1.22.37-1.23.33s.09-.07.29-.16a6.29,6.29,0,0,1,.89-.34,10.28,10.28,0,0,1,8.48,1.15,10.61,10.61,0,0,1,4.1,4.91l-.44,0,0-.06a9.91,9.91,0,0,1,3.43-5.41,9.65,9.65,0,0,1,8.37-1.76,6.84,6.84,0,0,1,.92.31C565.67,81.17,565.77,81.22,565.76,81.24Z" style="fill:#e0e0e0"></path><path d="M503.86,69s-.43.49-1.21,1.37a30.48,30.48,0,0,0-3,4A29.15,29.15,0,0,0,495.3,89.9v.19l-.46,0A25.45,25.45,0,0,0,492,81.72a25.89,25.89,0,0,0-4.32-5.84,26.22,26.22,0,0,0-3.75-3.18c-1-.66-1.51-1-1.49-1s.15,0,.42.2.68.35,1.17.68a23.8,23.8,0,0,1,3.88,3.1,25.79,25.79,0,0,1,7.39,14.42l-.46,0v-.2a28.57,28.57,0,0,1,4.58-15.71,26.08,26.08,0,0,1,3.1-3.94c.39-.43.75-.73,1-1A1.79,1.79,0,0,1,503.86,69Z" style="fill:#e0e0e0"></path></g><g id="freepik--Sun--inject-7"><path d="M363.86,144.55c-.11.09-11.55-13.25-25.54-29.8s-25.25-30-25.14-30.13,11.54,13.25,25.54,29.8S364,144.45,363.86,144.55Z" style="fill:#FF725E"></path><path d="M393.74,131.13c-.14,0-3.21-15.94-6.86-35.64s-6.49-35.72-6.35-35.74,3.21,15.93,6.86,35.64S393.89,131.1,393.74,131.13Z" style="fill:#FF725E"></path><path d="M445.82,58.48c.14.05-5,16.91-11.45,37.67s-11.81,37.56-11.95,37.51,5-16.9,11.45-37.67S445.69,58.44,445.82,58.48Z" style="fill:#FF725E"></path><path d="M512.07,79.46c.11.09-13,15.56-29.35,34.55S453.08,148.32,453,148.22s13-15.56,29.35-34.55S512,79.36,512.07,79.46Z" style="fill:#FF725E"></path><path d="M528.11,147.3c.06.14-9.41,4.16-21.14,9s-21.28,8.65-21.34,8.52,9.41-4.16,21.15-9S528.06,147.17,528.11,147.3Z" style="fill:#FF725E"></path><path d="M359.44,165.76c11.39-17.9,34.22-27.7,55-23.64s38.87,17.71,43.63,39.58l-41,40.21Z" style="fill:#FF725E"></path><path d="M435.31,155a4.29,4.29,0,0,1-.69-.41c-.44-.28-1.06-.75-1.92-1.25a52.58,52.58,0,0,0-7.47-3.89,53.21,53.21,0,0,0-12-3.49A51.82,51.82,0,0,0,372.8,156.3a51.07,51.07,0,0,0-6.21,5.68c-.7.71-1.18,1.32-1.54,1.7a4.13,4.13,0,0,1-.56.58,4.64,4.64,0,0,1,.48-.65c.33-.4.79-1,1.47-1.77a47.75,47.75,0,0,1,6.13-5.83A51.78,51.78,0,0,1,398,145.09a51.89,51.89,0,0,1,27.38,4,47.44,47.44,0,0,1,7.43,4c.84.53,1.45,1,1.87,1.33A5.27,5.27,0,0,1,435.31,155Z" style="fill:#fff"></path><path d="M442.83,162.27c-.14.06-.73-1.13-1.75-2.39s-2.05-2.1-2-2.22a6.95,6.95,0,0,1,3.71,4.61Z" style="fill:#fff"></path></g><g id="freepik--Mountains--inject-7"><polygon points="571.58 243.54 474.64 166.58 417.42 222.69 312.36 120.88 208.94 222.69 92.65 428.54 660.43 428.54 571.58 243.54" style="fill:#FF725E"></polygon><g style="opacity:0.8"><polygon points="571.58 243.54 474.64 166.58 417.42 222.69 312.36 120.88 208.94 222.69 92.65 428.54 660.43 428.54 571.58 243.54" style="fill:#fff"></polygon></g><polygon points="253.22 179.1 303.03 145.12 290.71 170.8 319.07 143.45 354.04 161.28 312.36 120.88 253.22 179.1" style="fill:#fafafa"></polygon><polygon points="417.42 222.69 395.91 251.96 469.72 187.73 475.47 200.66 484.31 184.28 504.22 190.06 474.64 166.58 417.42 222.69" style="fill:#fafafa"></polygon><path d="M412.4,224.3a4.71,4.71,0,0,1-.61-.49l-1.65-1.48c-1.44-1.28-3.48-3.18-6-5.56-5-4.74-11.71-11.48-19.06-19s-14-14.28-19-19.09L360.31,173l-1.59-1.55a4.32,4.32,0,0,1-.53-.56,4.1,4.1,0,0,1,.6.49l1.66,1.47c1.43,1.28,3.47,3.19,6,5.56,5,4.75,11.72,11.48,19.07,19s14,14.27,18.95,19.09l5.85,5.67,1.59,1.55A3.94,3.94,0,0,1,412.4,224.3Z" style="fill:#FF725E"></path><path d="M658.84,425.14l-4.71-9.88-18-37.54L571.78,243.44l0-.05,0,0c-29.37-23.33-62-49.26-96.91-77l-.17-.14-.16.15-57.05,55.94-14.71-14.26L312.53,120.7l-.17-.17-.18.17L208.8,222.55l0,0,0,0-54,102.86q-5,9.57-8.83,16.86c.42-.7.85-1.39,1.29-2.08q3.43-6.51,7.75-14.67l54.14-102.75C238.81,193.59,274,159,312.36,121.23l90,87.22,14.89,14.43.18.18.19-.18,57.05-56,96.74,76.76c26.74,55.6,49,101.82,64.53,134.15L654,415.31c2.09,4.32,3.69,7.63,4.78,9.86s1.65,3.37,1.65,3.37S659.9,427.38,658.84,425.14Z" style="fill:#263238"></path></g><g id="freepik--Trees--inject-7"><polygon points="241 328.12 234.2 291.29 223.87 325.57 226.93 324.37 219.43 344.85 223.75 342.93 218.55 350.76 241.99 350.67 239.98 343.82 241.98 347.38 237.56 325.82 241 328.12" style="fill:#FF725E"></polygon><polygon points="241 328.12 234.2 291.29 223.87 325.57 226.93 324.37 219.43 344.85 223.75 342.93 218.55 350.76 241.99 350.67 239.98 343.82 241.98 347.38 237.56 325.82 241 328.12" style="fill:#fff;opacity:0.6"></polygon><polygon points="263.41 313.13 254.47 263.69 240.44 309.62 244.55 308.02 234.39 335.45 240.2 332.9 233.18 350.76 264.62 350.76 261.96 334.18 264.62 338.96 258.81 310.03 263.41 313.13" style="fill:#FF725E"></polygon><polygon points="263.41 313.13 254.47 263.69 240.44 309.62 244.55 308.02 234.39 335.45 240.2 332.9 233.18 350.76 264.62 350.76 261.96 334.18 264.62 338.96 258.81 310.03 263.41 313.13" style="fill:#fff;opacity:0.4"></polygon><polygon points="491.37 317.58 484.7 280.7 474.23 314.97 477.3 313.78 469.72 334.24 474.05 332.33 468.82 345.66 492.27 345.66 490.29 333.29 492.27 336.86 487.94 315.27 491.37 317.58" style="fill:#FF725E"></polygon><polygon points="491.37 317.58 484.7 280.7 474.23 314.97 477.3 313.78 469.72 334.24 474.05 332.33 468.82 345.66 492.27 345.66 490.29 333.29 492.27 336.86 487.94 315.27 491.37 317.58" style="fill:#fff;opacity:0.6"></polygon><polygon points="218.08 335.74 214.51 316.02 208.91 334.34 210.55 333.71 206.5 344.65 208.81 343.63 206.02 350.76 218.56 350.76 217.5 344.14 218.56 346.05 216.24 334.51 218.08 335.74" style="fill:#FF725E"></polygon><polygon points="218.08 335.74 214.51 316.02 208.91 334.34 210.55 333.71 206.5 344.65 208.81 343.63 206.02 350.76 218.56 350.76 217.5 344.14 218.56 346.05 216.24 334.51 218.08 335.74" style="fill:#fff;opacity:0.4"></polygon><polygon points="475.13 322.22 469.53 291.26 460.75 320.02 463.32 319.02 456.96 336.2 460.6 334.6 456.2 345.78 475.89 345.78 474.23 335.4 475.89 338.39 472.25 320.28 475.13 322.22" style="fill:#FF725E"></polygon><polygon points="475.13 322.22 469.53 291.26 460.75 320.02 463.32 319.02 456.96 336.2 460.6 334.6 456.2 345.78 475.89 345.78 474.23 335.4 475.89 338.39 472.25 320.28 475.13 322.22" style="fill:#fff;opacity:0.4"></polygon><path d="M497.39,345.91H451.66c-.1,0-.18-.06-.18-.13s.08-.12.18-.12h45.73c.1,0,.18,0,.18.12S497.49,345.91,497.39,345.91Z" style="fill:#263238"></path><path d="M279,350.88H198.26c-.18,0-.32-.05-.32-.12s.14-.13.32-.13H279c.18,0,.32.06.32.13S279.15,350.88,279,350.88Z" style="fill:#263238"></path><polygon points="600.44 292.65 568.05 113.75 517.29 279.95 532.17 274.18 495.41 373.44 516.42 364.2 491.04 428.84 604.81 428.84 595.18 368.82 604.81 386.13 583.77 281.43 600.44 292.65" style="fill:#263238"></polygon><polygon points="179.71 298.8 146.22 71.4 99.89 286.62 114.17 281.07 78.88 376.37 99.05 367.51 74.68 429.56 183.91 429.56 174.67 371.94 183.91 388.56 163.7 288.03 179.71 298.8" style="fill:#263238"></polygon><rect x="190.98" y="371.79" width="9.88" height="57.47" style="fill:#263238"></rect><path d="M193.23,127.05c0,1.35-26.52,84.94-26.52,84.94L180,198.51l-19.1,58.42,12.58-17.53-14.83,73.26,7.19-7.64L153.23,356.7,164,343.21l-10.78,38.65,85.39-6.29-20.23-72.8,12.22,13.48-15.81-53,8.09,4.49L204.46,199.4l8.54,5.85Z" style="fill:#455a64"></path><polygon points="686.3 342.01 665.43 226.7 632.71 333.83 642.3 330.11 618.61 394.09 632.14 388.14 616.52 429.19 689.04 429.26 682.92 391.12 689.12 402.28 675.56 334.78 686.3 342.01" style="fill:#455a64"></polygon><polygon points="612.91 340.76 600.32 333.53 596.14 311.83 592.62 312.8 595.67 333.3 583.6 325.13 580.95 328.16 596.93 338.33 612.91 345.82 612.91 340.76" style="fill:#263238"></polygon><rect x="611.17" y="309.11" width="9.23" height="119.75" style="fill:#263238"></rect><path d="M613.26,80.38c0,1.26-24.78,79.38-24.78,79.38l12.39-12.6L583,201.76l11.76-16.38-13.86,68.46,6.72-7.14L575.88,295,586,282.4l-10.08,36.12,79.8-5.88-18.9-68,11.42,12.6-14.78-49.56,7.56,4.2L623.76,148l8,5.46Z" style="fill:#FF725E"></path><path d="M615.94,219.82a6,6,0,0,1-.4,1.16c-.31.81-.73,1.87-1.24,3.17l-4.47,10.93-.2.49-.24-.46a55.87,55.87,0,0,1-3.26-7.24c-.36-1-.68-1.94-1-2.87l.48,0c-2.2,5.61-4.35,10.5-6,14-.81,1.74-1.48,3.12-2,4.07-.22.43-.41.78-.57,1.08a1.62,1.62,0,0,1-.22.36,10.3,10.3,0,0,1,.62-1.52l1.82-4.13c1.54-3.51,3.63-8.41,5.81-14l.27-.69.22.71c.28.92.61,1.87,1,2.84a57.75,57.75,0,0,0,3.2,7.18l-.44,0c1.86-4.35,3.46-8.11,4.64-10.86l1.37-3.11A6.17,6.17,0,0,1,615.94,219.82Z" style="fill:#263238"></path><path d="M624.44,190.66a5.29,5.29,0,0,1-.45-.84c-.3-.64-.69-1.44-1.14-2.39-1-2-2.44-4.86-4.32-8l.45-.06c-.4,1.54-.82,3.19-1.27,4.91-.28,1.07-.56,2.11-.82,3.12l-.19.7-.29-.66c-1.7-3.78-3.18-7.12-4.21-9.52l-1.2-2.82a5,5,0,0,1-.37-1,4.67,4.67,0,0,1,.54,1c.35.74.8,1.66,1.33,2.77,1.12,2.35,2.65,5.66,4.37,9.44l-.48,0c.26-1,.54-2.05.82-3.12.45-1.72.89-3.37,1.29-4.91l.15-.58.31.52a83.29,83.29,0,0,1,4.17,8.15c.46,1,.8,1.87,1,2.45A3.59,3.59,0,0,1,624.44,190.66Z" style="fill:#263238"></path><path d="M613.14,130.81a22.23,22.23,0,0,1-1.41,2.78c-.93,1.7-2.26,4.06-3.79,6.74l-.35.61-.13-.69c-.14-.78-.28-1.58-.43-2.4-.25-1.43-.48-2.79-.71-4.06l.46.09c-1.43,2.26-2.67,4.18-3.56,5.54a16.12,16.12,0,0,1-1.5,2.12,14.28,14.28,0,0,1,1.24-2.28c.82-1.4,2-3.37,3.4-5.64l.34-.55.11.63.74,4.06q.21,1.23.42,2.4l-.48-.08c1.56-2.67,2.94-5,4-6.66A20.08,20.08,0,0,1,613.14,130.81Z" style="fill:#263238"></path><rect x="81.76" y="354.25" width="12.89" height="75" style="fill:#455a64"></rect><path d="M85.46,107.6c0,1.38-27,86.6-27,86.6l13.52-13.74L52.47,240,65.3,222.15,50.18,296.84l7.33-7.79L44.68,341.74l11-13.74-11,39.4L131.74,361l-20.62-74.23,12.45,13.75-16.12-54.07L115.7,251,96.91,181.37l8.71,6Z" style="fill:#FF725E"></path><path d="M98.42,245.36s-.11-.07-.29-.24l-.79-.76c-.72-.72-1.7-1.7-2.92-2.9L84.36,231.24l.41-.13c-.57,3.34-1.19,7-1.84,10.82l-1.09,6.24-.15.89-.33-.83a93.3,93.3,0,0,1-5-16.84c-.42-2.16-.68-3.9-.84-5.09-.08-.6-.12-1.07-.15-1.38a1.67,1.67,0,0,1,0-.49,2.71,2.71,0,0,1,.11.47l.24,1.37c.21,1.19.52,2.91,1,5A101.26,101.26,0,0,0,81.83,248l-.49.06c.35-2,.7-4.11,1.07-6.25.67-3.82,1.3-7.48,1.88-10.81l.08-.48.34.35,9.92,10.35,2.82,3,.74.81A1.44,1.44,0,0,1,98.42,245.36Z" style="fill:#263238"></path><path d="M66.75,313a66,66,0,0,1,2-11.5,33.09,33.09,0,0,1-.72,5.79A32.07,32.07,0,0,1,66.75,313Z" style="fill:#263238"></path><path d="M96.5,283.79a2.86,2.86,0,0,1-.23.65l-.76,1.82-2.88,6.68-9.76,22.19-.32.73-.17-.78-.44-2c-1.29-5.88-2.51-11.42-3.56-16.23l.41.08-8,11.72L68.55,312l-.61.85a1.84,1.84,0,0,1-.24.29,1.48,1.48,0,0,1,.17-.33l.56-.89,2.17-3.36,7.81-11.83.3-.45.12.53c1.07,4.8,2.31,10.34,3.62,16.22l.44,2-.49-.05c3.88-8.68,7.37-16.45,9.9-22.12,1.27-2.76,2.29-5,3-6.62l.84-1.78A2.94,2.94,0,0,1,96.5,283.79Z" style="fill:#263238"></path><path d="M103.35,350.82a90,90,0,0,1-6.14-7.44,89.22,89.22,0,0,1-5.73-7.77,91.32,91.32,0,0,1,6.14,7.45A90.06,90.06,0,0,1,103.35,350.82Z" style="fill:#263238"></path><path d="M95.07,174.41a6.85,6.85,0,0,1-.65-.88L92.71,171l-5.85-9,.43-.08c-.59,3-1.14,6.3-1.54,9.82-.32,2.79-.53,5.49-.64,8l0,.94-.42-.84a57.2,57.2,0,0,1-4.23-11.37c-.36-1.45-.6-2.62-.74-3.42a7.07,7.07,0,0,1-.16-1.24,6.71,6.71,0,0,1,.32,1.21c.19.79.47,1.94.88,3.37a62.07,62.07,0,0,0,4.37,11.22l-.47.1c.1-2.48.3-5.19.62-8,.41-3.54,1-6.88,1.59-9.86l.13-.58.31.5,5.7,9.1,1.59,2.62A5.77,5.77,0,0,1,95.07,174.41Z" style="fill:#263238"></path></g><g id="freepik--Rock--inject-7"><polygon points="458.6 429.19 469 392.24 534.83 355.86 572.21 355.86 578.16 368.1 587.42 367.1 603.3 395.22 616.53 393.23 651.52 429.42 458.6 429.19" style="fill:#e0e0e0"></polygon><polygon points="469 392.24 525.46 392.24 572.21 355.86 534.83 355.86 469 392.24" style="fill:#f5f5f5"></polygon><path d="M570.84,396.56c-.67,0-32.09,17.48-32.09,17.48l-10.61,14.71,7.29-.05L544,414.54l33-17.1Z" style="fill:#f5f5f5"></path><path d="M600.6,427.45c-.12.08-5.24-6.68-11.43-15.11S578,397,578.15,396.93s5.24,6.67,11.44,15.1S600.71,427.36,600.6,427.45Z" style="fill:#f5f5f5"></path><path d="M458.6,429.2l1,0,2.86,0,11,0,40.79-.1L652,428.78l-.18.44-27-27.17-8.56-8.63.22.07-13.23,2-.18,0-.09-.15L587.2,367.23l.25.12-9.26,1-.18,0-.07-.16L572,356l.22.14-37.38,0,.11,0-65.87,36.32.07-.09c-6.65,23.28-10.25,35.9-10.54,36.92,0,0,0-.21.16-.62s.28-1,.5-1.84c.46-1.64,1.13-4.06,2-7.21,1.76-6.33,4.34-15.59,7.6-27.33l0-.05.05,0,65.79-36.46,0,0h.06l37.38,0h.15l.07.14,6,12.24-.25-.14,9.26-1,.17,0,.08.15,15.88,28.11-.26-.13,13.23-2,.13,0,.09.09q4.26,4.29,8.57,8.63l26.94,27.18.43.44H652l-138,0-40.72,0-10.93,0H458.6Z" style="fill:#263238"></path></g><g id="freepik--Plants--inject-7"><path d="M219.63,343.79a4.74,4.74,0,0,0-6.41,5.51c-3.09-1.36-6.92.46-8.59,3.39s-1.53,6.59-.57,9.82a5.35,5.35,0,0,0-3.16,9.54,5.34,5.34,0,0,0-2.14,10.35A7.06,7.06,0,0,0,204.57,395a7.44,7.44,0,0,0,11.15,6.29,11.42,11.42,0,0,0,17.44,1.39c2.25,1.39,4.75,2.71,7.41,2.56s5.36-2.32,5.12-5c2.4.82,5.06,1.51,7.41.57s3.85-4.21,2.17-6.1a7.63,7.63,0,0,0,8.58-7.49,5.92,5.92,0,0,0,7.65-8.11c2.89-1.11,3.83-5,2.66-7.92s-3.8-4.86-6.42-6.52a8.37,8.37,0,0,0-7.65-13.08,6.25,6.25,0,0,0-10.38-6.09c.15-4.26-4.66-7.89-8.71-6.55-1.25.41-2.43,1.2-3.74,1.15-1.8-.05-3.16-1.61-4.85-2.2a4.9,4.9,0,0,0-6.21,3.84,2.26,2.26,0,0,0-2.66-2,3.63,3.63,0,0,0-2.61,2.51,10.73,10.73,0,0,0-.38,3.75" style="fill:#FF725E"></path><path d="M218.74,380.42c.15,0,1.47,11,3,24.54s2.58,24.58,2.44,24.6-1.47-11-3-24.54S218.6,380.44,218.74,380.42Z" style="fill:#263238"></path><path d="M220.71,396.4a42.13,42.13,0,0,1-4.27-5.12,42.93,42.93,0,0,1-3.86-5.44,44.13,44.13,0,0,1,4.27,5.12A42.93,42.93,0,0,1,220.71,396.4Z" style="fill:#263238"></path><path d="M228.6,365.49c.15,0,.78,14.31,1.41,32s1,32,.88,32-.77-14.31-1.4-32S228.46,365.49,228.6,365.49Z" style="fill:#263238"></path><path d="M236.45,366.15a2.69,2.69,0,0,1,0,.65c0,.47,0,1.08,0,1.83-.05,1.67-.11,4-.19,6.77-.16,5.7-.33,13.59-.36,22.3s.07,16.6.19,22.31c.06,2.81.1,5.1.14,6.76,0,.76,0,1.37,0,1.84a4.72,4.72,0,0,1,0,.65,2.52,2.52,0,0,1-.08-.64c0-.48-.07-1.08-.12-1.84-.1-1.59-.21-3.9-.31-6.76-.21-5.71-.38-13.6-.34-22.32s.25-16.61.51-22.32c.12-2.85.25-5.16.36-6.75l.13-1.84A4.73,4.73,0,0,1,236.45,366.15Z" style="fill:#263238"></path><path d="M239.76,387.19a14.72,14.72,0,0,1-4.25,7.16c-.11-.1,1-1.57,2.2-3.54S239.62,387.14,239.76,387.19Z" style="fill:#263238"></path><path d="M251,375.33a2.09,2.09,0,0,1-.08.56c-.08.41-.19.93-.32,1.56-.32,1.42-.74,3.36-1.26,5.72-1.06,4.83-2.47,11.51-3.87,18.92s-2.51,14.15-3.29,19c-.37,2.38-.68,4.34-.91,5.78-.11.64-.19,1.16-.26,1.57a2.41,2.41,0,0,1-.13.55,2.19,2.19,0,0,1,0-.56c.05-.42.1-1,.17-1.59.15-1.37.41-3.36.75-5.81.68-4.9,1.74-11.65,3.14-19.08s2.87-14.09,4-18.91c.58-2.4,1.06-4.34,1.42-5.68l.42-1.54A2.2,2.2,0,0,1,251,375.33Z" style="fill:#263238"></path><path d="M255.43,386.53a33.73,33.73,0,0,1-4.21,4.17,34.54,34.54,0,0,1-4.57,3.79,33.09,33.09,0,0,1,4.22-4.18A34.26,34.26,0,0,1,255.43,386.53Z" style="fill:#263238"></path><path d="M248.81,384.43a29.79,29.79,0,0,1-3.63-6.88,28.8,28.8,0,0,1,3.63,6.88Z" style="fill:#263238"></path><path d="M271.49,355.65a6.92,6.92,0,0,1,5.11-7.35,6.74,6.74,0,0,1-5.11,7.35" style="fill:#FF725E"></path><path d="M273.12,359c1.53,2.44,6.33,3,9.2,1.45a6.77,6.77,0,0,0-9.2-1.45" style="fill:#FF725E"></path><g style="opacity:0.30000000000000004"><path d="M240.38,355.84a8.53,8.53,0,0,0,.61,6.64c1.09,2,3.29,3.06,5.5,3.64A10.76,10.76,0,0,0,240.38,355.84Z"></path></g><path d="M122.65,386.5a11.21,11.21,0,0,1,.7,1.62c.42,1.05,1,2.59,1.65,4.51,1.34,3.82,3,9.17,4.52,15.16s2.55,11.51,3.18,15.51c.31,2,.54,3.62.66,4.75a10.72,10.72,0,0,1,.15,1.75,11.86,11.86,0,0,1-.35-1.72l-.83-4.72c-.72-4-1.82-9.46-3.32-15.44s-3.11-11.33-4.36-15.18l-1.49-4.55A11.51,11.51,0,0,1,122.65,386.5Z" style="fill:#fafafa"></path><path d="M132.46,395.1a7.66,7.66,0,0,1,.47,1.32c.28.86.66,2.12,1.1,3.67.9,3.11,2.07,7.42,3.24,12.22s2.14,9.15,2.79,12.32c.32,1.59.57,2.87.72,3.76a6.53,6.53,0,0,1,.19,1.4,8.23,8.23,0,0,1-.39-1.35c-.23-1-.53-2.23-.88-3.73-.74-3.14-1.76-7.49-2.93-12.28s-2.29-9.11-3.09-12.24c-.38-1.49-.69-2.74-.94-3.71A6.23,6.23,0,0,1,132.46,395.1Z" style="fill:#fafafa"></path><path d="M147.93,384.76a10.4,10.4,0,0,1-.29,1.72c-.22,1.1-.52,2.69-.86,4.66a139.85,139.85,0,0,0-1.8,15.51,138.25,138.25,0,0,0,0,15.62c.11,2,.23,3.61.32,4.73a9.45,9.45,0,0,1,.09,1.74,13.87,13.87,0,0,1-.29-1.72c-.16-1.11-.33-2.73-.49-4.73a115.13,115.13,0,0,1,1.79-31.22c.39-2,.74-3.55,1-4.63A12.63,12.63,0,0,1,147.93,384.76Z" style="fill:#fafafa"></path><path d="M153.28,410.67a23.75,23.75,0,0,1-.54,2.79A56.57,56.57,0,0,0,151.56,427a20.13,20.13,0,0,1,0,2.84,12.15,12.15,0,0,1-.41-2.82,40.79,40.79,0,0,1,0-6.89,41.38,41.38,0,0,1,1.15-6.79A12.25,12.25,0,0,1,153.28,410.67Z" style="fill:#fafafa"></path><path d="M444.33,379.05l0,.13c0,.1.06.22.11.37.09.33.25.81.42,1.43.36,1.24.83,3.06,1.29,5.33a85.11,85.11,0,0,1,1.49,18c-.12,7.07-.82,13.44-1.33,18-.27,2.28-.48,4.14-.64,5.45-.06.63-.12,1.12-.16,1.48l0,.39c0,.09,0,.13,0,.13s0,0,0-.13l.07-.38c0-.36.12-.85.22-1.48.18-1.28.43-3.14.72-5.44A170.72,170.72,0,0,0,448,404.29a81.51,81.51,0,0,0-1.58-18c-.49-2.27-1-4.09-1.39-5.32-.18-.62-.36-1.09-.47-1.42,0-.14-.1-.26-.13-.36S444.34,379.05,444.33,379.05Z" style="fill:#FF725E"></path><path d="M447.4,393.52c.28.29,2.05-1,3.66-3.15s2.37-4.2,2-4.39-1.63,1.48-3.18,3.52S447.12,393.24,447.4,393.52Z" style="fill:#FF725E"></path><path d="M442,387.61c-.25.32.77,1.53,2.19,2.82s2.73,2.17,3,1.89-.59-1.65-2.05-3S442.22,387.3,442,387.61Z" style="fill:#FF725E"></path><path d="M446.67,387.77c.34.18,1.81-1.95,2.76-5s1-5.59.6-5.64-1.06,2.33-2,5.21S446.31,387.58,446.67,387.77Z" style="fill:#FF725E"></path><path d="M439.34,379.12c-.29.26,1,2.22,3,4.36s3.76,3.67,4.05,3.4-1-2.22-3-4.37S439.64,378.85,439.34,379.12Z" style="fill:#FF725E"></path><path d="M447.73,400.54c.27.29,2.32-1.18,4.36-3.5s3.23-4.54,2.91-4.77-2,1.56-4,3.81S447.46,400.25,447.73,400.54Z" style="fill:#FF725E"></path><path d="M443.22,393.38c-.32.24.41,1.73,1.63,3.32s2.46,2.69,2.78,2.45-.41-1.73-1.63-3.33S443.54,393.14,443.22,393.38Z" style="fill:#FF725E"></path><path d="M447.74,407.77c.27.28,2.22-1.21,3.94-3.65s2.48-4.77,2.12-4.93-1.65,1.78-3.3,4.1S447.45,407.49,447.74,407.77Z" style="fill:#FF725E"></path><path d="M443.4,401.32c-.29.28.48,1.57,1.63,3s2.26,2.41,2.59,2.17-.29-1.65-1.47-3.09S443.69,401.05,443.4,401.32Z" style="fill:#FF725E"></path><path d="M447.23,413.9c.3.27,2.14-1.33,4.11-3.56s3.32-4.26,3-4.53-2.14,1.34-4.11,3.57S446.93,413.64,447.23,413.9Z" style="fill:#FF725E"></path><path d="M441.82,408.31c-.31.26.73,2,2.19,3.93s2.84,3.41,3.18,3.18-.52-2.07-2-4.06S442.12,408.05,441.82,408.31Z" style="fill:#FF725E"></path><path d="M446.53,421.74c.28.28,2.51-1.4,5-3.77s4.25-4.51,4-4.8-2.51,1.39-5,3.76S446.26,421.45,446.53,421.74Z" style="fill:#FF725E"></path><path d="M441.81,414.84c-.35.17.19,2,1.52,3.76s2.86,2.87,3.13,2.58-.72-1.72-2-3.43S442.17,414.65,441.81,414.84Z" style="fill:#FF725E"></path><path d="M42.59,389.55a12.7,12.7,0,0,1,1,1.43c.6.94,1.44,2.32,2.44,4,2,3.45,4.59,8.32,7.1,13.86s4.44,10.72,5.71,14.5c.63,1.89,1.11,3.43,1.41,4.5a11.6,11.6,0,0,1,.43,1.68,12.59,12.59,0,0,1-.62-1.62l-1.57-4.44c-1.35-3.74-3.34-8.87-5.83-14.4s-5-10.41-7-13.9l-2.3-4.11A11.43,11.43,0,0,1,42.59,389.55Z" style="fill:#263238"></path><path d="M62.64,373.46a2,2,0,0,1,0,.58c0,.43-.07,1-.13,1.65-.13,1.43-.29,3.49-.47,6.05-.37,5.11-.69,12.19-.6,20s.6,14.89,1.1,20c.24,2.55.46,4.62.63,6,.07.67.12,1.21.17,1.64a2.32,2.32,0,0,1,0,.58,3.34,3.34,0,0,1-.13-.56c-.07-.43-.15-1-.26-1.63-.23-1.42-.51-3.48-.8-6-.59-5.1-1.14-12.18-1.25-20s.29-14.93.75-20.05c.23-2.56.45-4.62.64-6,.09-.67.17-1.21.23-1.64A3.71,3.71,0,0,1,62.64,373.46Z" style="fill:#263238"></path><path d="M74.83,395.34a6.67,6.67,0,0,1-.48,1.31c-.34.82-.82,2-1.39,3.51a101,101,0,0,0-6,24.14c-.19,1.58-.33,2.87-.42,3.76a6,6,0,0,1-.19,1.37,8.73,8.73,0,0,1,0-1.39c0-.89.11-2.19.26-3.78a84.44,84.44,0,0,1,6-24.24c.62-1.47,1.16-2.66,1.56-3.46A7.59,7.59,0,0,1,74.83,395.34Z" style="fill:#263238"></path><path d="M57,429.56a38.49,38.49,0,0,0-3.91-7.21,38.09,38.09,0,0,0-5.75-5.85,7.85,7.85,0,0,1,2.06,1.31A21.92,21.92,0,0,1,53.47,422a21.63,21.63,0,0,1,2.84,5.17A8,8,0,0,1,57,429.56Z" style="fill:#263238"></path><path d="M425.13,374.55a2.37,2.37,0,0,1,.21.52l.52,1.53c.44,1.32,1,3.25,1.72,5.65,1.39,4.79,3.09,11.48,4.56,19s2.39,14.32,2.91,19.28c.26,2.48.44,4.49.53,5.89,0,.65.07,1.18.1,1.6a2.17,2.17,0,0,1,0,.56,3.19,3.19,0,0,1-.1-.55c-.05-.42-.11-.95-.19-1.59-.17-1.46-.41-3.45-.69-5.87-.62-4.94-1.61-11.76-3.06-19.22s-3.11-14.15-4.4-19l-1.57-5.69-.42-1.55A2.08,2.08,0,0,1,425.13,374.55Z" style="fill:#263238"></path><path d="M423.39,403.38a4.85,4.85,0,0,1,.53,1c.31.63.74,1.56,1.24,2.7,1,2.3,2.34,5.51,3.66,9.11s2.38,6.91,3.09,9.32c.36,1.2.63,2.18.8,2.87a5.05,5.05,0,0,1,.22,1.07,4,4,0,0,1-.41-1c-.27-.77-.58-1.71-1-2.81-.8-2.38-1.91-5.66-3.23-9.25s-2.58-6.81-3.51-9.14c-.42-1.09-.79-2-1.09-2.77A4.44,4.44,0,0,1,423.39,403.38Z" style="fill:#263238"></path><path d="M429.81,427.07a65.35,65.35,0,0,0-4-6.8,63.33,63.33,0,0,0-5.23-5.93,8,8,0,0,1,1.87,1.41,27.48,27.48,0,0,1,6.62,9.11A8,8,0,0,1,429.81,427.07Z" style="fill:#263238"></path><path d="M489,429.9a3.9,3.9,0,0,1-.28-.5c-.18-.39-.41-.88-.7-1.47s-.66-1.43-1-2.36-.85-2-1.28-3.16c-.91-2.36-1.87-5.22-2.8-8.44s-1.76-6.8-2.44-10.61-1.07-7.47-1.31-10.81-.29-6.36-.22-8.89c0-1.26.08-2.4.12-3.41s.11-1.86.18-2.57.12-1.19.16-1.62a2.33,2.33,0,0,1,.1-.56,3.13,3.13,0,0,1,0,.57c0,.43,0,1-.07,1.62s-.08,1.57-.09,2.57-.07,2.15,0,3.41c0,2.52.1,5.52.34,8.85s.69,7,1.34,10.75,1.52,7.36,2.39,10.57,1.82,6.07,2.69,8.44c.4,1.19.84,2.25,1.2,3.18s.68,1.74,1,2.39l.61,1.51A2.22,2.22,0,0,1,489,429.9Z" style="fill:#FF725E"></path><path d="M483.09,413.79c1.24-7.52,3.73-24.61,11.23-34.77a24.59,24.59,0,0,0-9,9.75,66.63,66.63,0,0,0-4.85,12.49S483,414.15,483.09,413.79Z" style="fill:#FF725E"></path><path d="M484.29,417.62a14.12,14.12,0,0,1,8.78-15c-2.71,3.34-5.56,7-5.75,11.31-.17,3.7-.33,7.39-.5,11.09-.89-2.39-1.64-5-2.53-7.38" style="fill:#FF725E"></path><path d="M482.49,411.17a62.55,62.55,0,0,0-6-7.18,18.46,18.46,0,0,0-7.18-5.09,88.09,88.09,0,0,1,15.39,20.45" style="fill:#FF725E"></path><path d="M479,387.44A21.61,21.61,0,0,0,471,375.71a15.62,15.62,0,0,0,1.2,2.51c2.48,4.51,4.62,9,7.11,13.53" style="fill:#FF725E"></path><path d="M479.33,378.21a28.57,28.57,0,0,1,4.32-10.07,17.06,17.06,0,0,1,8.65-6.53,46.06,46.06,0,0,0-13.19,20.84" style="fill:#FF725E"></path><path d="M479.9,377c-.07-3.91-1.37-8-4.38-10.49a3.73,3.73,0,0,0-2.07-1,1.71,1.71,0,0,0-1.81,1.16,1.8,1.8,0,0,0,.58,1.63,7.79,7.79,0,0,0,1.49,1,11.91,11.91,0,0,1,5.5,9" style="fill:#FF725E"></path><path d="M45.37,429.6a2.23,2.23,0,0,1-.22-.39c-.14-.31-.32-.69-.55-1.16s-.52-1.12-.82-1.85-.66-1.55-1-2.49c-.72-1.85-1.47-4.1-2.21-6.63s-1.38-5.35-1.91-8.34-.84-5.87-1-8.49-.23-5-.18-7c0-1,.07-1.89.1-2.68s.09-1.47.14-2,.1-.94.13-1.27a2.16,2.16,0,0,1,.07-.45,1.47,1.47,0,0,1,0,.45c0,.34,0,.76,0,1.28s-.06,1.23-.07,2-.06,1.68,0,2.67c0,2,.07,4.35.26,7s.55,5.47,1.06,8.45,1.19,5.78,1.88,8.31,1.43,4.77,2.11,6.63c.32.94.66,1.77.94,2.5s.54,1.37.76,1.88.35.87.48,1.18S45.39,429.59,45.37,429.6Z" style="fill:#FF725E"></path><path d="M40.72,416.94c1-5.91,2.94-19.35,8.83-27.33a19.42,19.42,0,0,0-7,7.66,53.39,53.39,0,0,0-3.81,9.82S40.68,417.22,40.72,416.94Z" style="fill:#FF725E"></path><path d="M41.67,420a11.12,11.12,0,0,1,6.9-11.81c-2.13,2.63-4.37,5.51-4.52,8.89l-.39,8.72c-.7-1.88-1.29-3.92-2-5.8" style="fill:#FF725E"></path><path d="M40.25,414.88a49.93,49.93,0,0,0-4.74-5.65,14.76,14.76,0,0,0-5.64-4A69.55,69.55,0,0,1,42,421.31" style="fill:#FF725E"></path><path d="M37.53,396.23A17,17,0,0,0,31.19,387a12.31,12.31,0,0,0,.95,2c2,3.55,3.63,7.09,5.58,10.63" style="fill:#FF725E"></path><path d="M37.77,389a22.45,22.45,0,0,1,3.4-7.92A13.41,13.41,0,0,1,48,375.93,36.11,36.11,0,0,0,37.6,392.31" style="fill:#FF725E"></path><path d="M38.22,388c0-3.07-1.08-6.28-3.44-8.25a3,3,0,0,0-1.63-.78,1.36,1.36,0,0,0-1.43.91,1.49,1.49,0,0,0,.46,1.29,6.77,6.77,0,0,0,1.17.81A9.36,9.36,0,0,1,37.68,389" style="fill:#FF725E"></path></g><g id="freepik--Deer--inject-7"><path d="M399.35,375.62a15.67,15.67,0,0,0-5.06,11.86c0,7.6.69,41.89.69,41.89h-4.25l-5.81-36.19,2.61-12.87Z" style="fill:#FF725E"></path><path d="M399.35,375.62a15.67,15.67,0,0,0-5.06,11.86c0,7.6.69,41.89.69,41.89h-4.25l-5.81-36.19,2.61-12.87Z" style="opacity:0.30000000000000004"></path><path d="M318.83,372.45s10.29,10.92,1.27,35l10.67,22,6.28-.21-7.3-21.91s3.48-4.27,7.59-23.57l1.43-12.18Z" style="fill:#FF725E"></path><path d="M318.83,372.45s10.29,10.92,1.27,35l10.67,22,6.28-.21-7.3-21.91s3.48-4.27,7.59-23.57l1.43-12.18Z" style="opacity:0.30000000000000004"></path><path d="M416.87,323.35l-4.41-4.77-6.08-8.71s-.84,10.69-2.92,15.73-10.4,8-12.19,8.15-21.84,2.83-21.84,2.83-42.91-.17-48.31.74a14.59,14.59,0,0,0-7.58,4.16s-6.84,5-5.5,17.24,7.88,23.49,7.28,27.2S301.8,399.6,301.8,399.6v29.77h6s.13-19.37,2.06-21.6,14-10.25,19-15.6a84.65,84.65,0,0,0,9.66-13.38,22.51,22.51,0,0,0,12.63,3.27c7.44-.3,26.61-2.53,26.61-2.53s4,3.57,3.27,8.77a110.19,110.19,0,0,0-.6,13.53l5.21,27.34,6.39.15s-1.93-41.61.59-46.82,9.4-5.28,14.21-14.74c4-7.9,11.13-19.59,12.95-23.75s4-20.4,4-20.4Z" style="fill:#FF725E"></path><g style="opacity:0.30000000000000004"><path d="M407.73,313c1.15,2.72,1.92,5.21,3.07,7.92.61,1.44,1.33,3,2.73,3.68,1.14.56,2.62.49,3.48,1.42a7.39,7.39,0,0,1-4.34-.17,9.53,9.53,0,0,1-5.61-6.41,20.78,20.78,0,0,1-.31-8.78l1,2.34"></path></g><path d="M410.2,361.47c-1.77-10.85,1.55-21.38,4.7-31.91a5.47,5.47,0,0,1,1.56-2.88c1.92-1.48,5.37-1.26,7.24-2.81A111.52,111.52,0,0,1,420.15,343c-.95,3-3.07,6.29-4.62,9l-5.33,9.44" style="fill:#fff"></path><path d="M443.06,274.76a1.25,1.25,0,0,0-.54-1.66A.78.78,0,0,0,442,273c-.72.16-2.59,4.65-2.59,4.65.11.2-2.37-4-3.49-6.25-.21-.43-2.08.24-1.36,1.76s3.68,8.63,3.36,10.71a8.78,8.78,0,0,1-.8,2.88s-1.42-5.7-2.64-6.31c-.9-.46-1.72-.48-.88,2.71,1.24,4.73,1.14,6.87-.48,8.64-1.81,2-5.67,2.95-6.39,1.91s-2.24-3.43-1.76-5.43-.24-3.44-1.68-2.32a8.59,8.59,0,0,0-1.07,5.59,19.15,19.15,0,0,0,1.23,4.88l-1.61,3.67,4.15,3.35,3.85-5.16s6.45-3.06,9.24-7.86S440.56,280,440.56,280Z" style="fill:#455a64"></path><path d="M392,276.54a1.24,1.24,0,0,1,.53-1.65.77.77,0,0,1,.53-.09c.72.16,2.59,4.65,2.59,4.65-.11.2,2.36-4,3.49-6.24.21-.44,2.07.24,1.36,1.75s-3.68,8.64-3.36,10.71a8.78,8.78,0,0,0,.8,2.88s1.42-5.69,2.63-6.31c.9-.46,1.73-.47.89,2.72-1.24,4.73-1.14,6.86.47,8.63,1.82,2,5.68,3,6.4,1.92s2.24-3.44,1.76-5.44.24-3.44,1.67-2.32a8.54,8.54,0,0,1,1.07,5.59,19.49,19.49,0,0,1-1.22,4.88l1.61,3.67-4.15,3.36-3.85-5.16s-6.45-3.07-9.25-7.87-1.47-10.46-1.47-10.46Z" style="fill:#455a64"></path><g style="opacity:0.30000000000000004"><path d="M418.17,323.37c-2.58-.53-4.27-3-5.81-5.2a76.55,76.55,0,0,0-5.9-7.4"></path></g><path d="M407.73,304s-2.56-10.81-12.61-6.79c-.41.16-1.48,9.66,5.49,11.22,0,0,4.09-.49,5.24,1s2.62,5.9,2.62,5.9,3.2,8.19,4.75,9.17a12.18,12.18,0,0,0,6.5,1.85,6.39,6.39,0,0,0,4-2.43,5.06,5.06,0,0,0,1.31-3c-.08-1,.41-7.12,1-8.19s2.21-4.25,2.21-4.25a6.24,6.24,0,0,0,7-2.95,27.65,27.65,0,0,0,3.61-9.17s-6.14-2.38-9,1.39-3.85,5.16-3.85,5.16l-4.15-3.36a12.41,12.41,0,0,1-9,.15Z" style="fill:#FF725E"></path><path d="M409.23,309.21a3.54,3.54,0,0,0,1.07,2.26,1.74,1.74,0,0,0,1.41.38,3.08,3.08,0,0,0,1.37-.61,3,3,0,0,0-1.48-1.85,3,3,0,0,0-2.37-.18" style="fill:#263238"></path><path d="M408.76,308.66c-.13,0-.37-1,.4-2.05s1.89-1.07,1.88-.93-.84.41-1.47,1.24S408.91,308.66,408.76,308.66Z" style="fill:#263238"></path><path d="M410.24,313.83c0,.14-1-.17-1.46-1.22s-.09-2,0-1.91,0,.85.43,1.69S410.31,313.71,410.24,313.83Z" style="fill:#FF725E"></path><path d="M422.91,311.38l.06.11a2.45,2.45,0,0,1,.5-2.22,2.49,2.49,0,0,1,2.13-.83.44.44,0,0,1,.25.11.41.41,0,0,1,.06.25,4.19,4.19,0,0,1-.11,1.32,2.18,2.18,0,0,1-1,1.3,2.24,2.24,0,0,1-1.66.18" style="fill:#263238"></path><path d="M426.82,308.4c0,.08-.39.07-1,.14a3.72,3.72,0,0,0-2,.75,2.76,2.76,0,0,0-.67,2c0,.61-.08,1-.15,1s-.15-.36-.22-1a3.81,3.81,0,0,1,0-1.11,2.18,2.18,0,0,1,.66-1.28,3.42,3.42,0,0,1,2.38-.74C426.46,308.2,426.83,308.34,426.82,308.4Z" style="fill:#263238"></path><g style="opacity:0.30000000000000004"><path d="M436.86,296.77a23,23,0,0,0-4.58,1.68,7.73,7.73,0,0,0-3.44,3.37,4.72,4.72,0,0,0,.26,4.66l.23.2a1,1,0,0,0,1.13.44,2.8,2.8,0,0,0,1.13-.62,16.6,16.6,0,0,0,4-4.2A8.48,8.48,0,0,0,436.86,296.77Z"></path></g><g style="opacity:0.30000000000000004"><path d="M403.71,306.35a2.56,2.56,0,0,0,2-2.22,4.31,4.31,0,0,0-.88-3,8,8,0,0,0-3.6-2.74,12.46,12.46,0,0,0-4.49-.79.92.92,0,0,0-.37.05c-.33.16-.32.63-.26,1a14.79,14.79,0,0,0,1.23,4,7.44,7.44,0,0,0,2.74,3.11,5,5,0,0,0,4.05.55"></path></g><path d="M313.13,342.3c-4.48-1.95-9.47-3.95-14.11-2.42-2.37.77-4.35,2.38-6.42,3.77s-4.42,2.62-6.91,2.45a14.59,14.59,0,0,0,17.39,1,4,4,0,0,1-2.59,3c2.43.52,4.69-1.27,6.54-2.94s4.13-3.43,6.55-2.88" style="fill:#FF725E"></path><path d="M313.58,344.31c-2.42-.55-4.7,1.22-6.55,2.88s-4.11,3.46-6.54,2.94a4,4,0,0,0,2.59-3,14.59,14.59,0,0,1-17.39-1s4.32,1.24,7.22-.1,2.86-3.49,8.71-4.07S313.58,344.31,313.58,344.31Z" style="fill:#fff"></path><path d="M340.92,353.87a3.74,3.74,0,0,1,.38,1,23.07,23.07,0,0,1,.71,2.78,31.07,31.07,0,0,1-2.21,18.6,21.32,21.32,0,0,1-1.34,2.55,5,5,0,0,1-.6.87c-.08-.05.68-1.34,1.6-3.56a34.18,34.18,0,0,0,2.18-18.39C341.27,355.33,340.83,353.9,340.92,353.87Z" style="fill:#263238"></path><path d="M377.28,379.81c-.06-.05.6-.83,1.47-2.21a37,37,0,0,0,4.66-11.8,26.15,26.15,0,0,1,.49-2.61,9.13,9.13,0,0,1-.12,2.67,28.27,28.27,0,0,1-1.7,6.23,26.94,26.94,0,0,1-3,5.71A7.82,7.82,0,0,1,377.28,379.81Z" style="fill:#263238"></path><path d="M399.56,362.29A32.75,32.75,0,0,1,399,359a63,63,0,0,0-1.75-7.78,62,62,0,0,0-2.75-7.49,29.85,29.85,0,0,1-1.32-3,3.23,3.23,0,0,1,.5.74c.3.49.7,1.23,1.16,2.15a47.84,47.84,0,0,1,2.91,7.49,47.26,47.26,0,0,1,1.61,7.88c.12,1,.18,1.85.19,2.43A2.82,2.82,0,0,1,399.56,362.29Z" style="fill:#263238"></path><path d="M403.71,355.22a25.48,25.48,0,0,1-.55-3.22,40.86,40.86,0,0,0-1.75-7.62,18.37,18.37,0,0,0-4-6.62c-1.4-1.44-2.51-2-2.46-2.12a2.85,2.85,0,0,1,.8.39,10.9,10.9,0,0,1,1.91,1.46,17.18,17.18,0,0,1,4.21,6.71,34,34,0,0,1,1.62,7.75A17.27,17.27,0,0,1,403.71,355.22Z" style="fill:#263238"></path><path d="M378.83,343.74a1.14,1.14,0,0,0-1.78-.58h0a15.38,15.38,0,0,0-3,4.39,1.47,1.47,0,0,0,0,1.28c.47.92,1.61.63,2.33.12C378,347.81,379.45,345.77,378.83,343.74Z" style="fill:#fff"></path><path d="M366.75,344.84a6.5,6.5,0,0,0-2.84,1.64,2,2,0,0,0-.13,2.79,1.89,1.89,0,0,0,2,.19,4.16,4.16,0,0,0,1.55-1.34,3.2,3.2,0,0,0,.85-1.93A1.38,1.38,0,0,0,366.75,344.84Z" style="fill:#fff"></path><path d="M356,347.35a2,2,0,0,0-2.13-.19,2.44,2.44,0,0,0-.28.14h0a6.71,6.71,0,0,0-2.57,2.34,2,2,0,0,0,.45,2.85c1,.49,2.1-.19,3-.85a6,6,0,0,0,1.83-1.86A2.07,2.07,0,0,0,356,347.35Z" style="fill:#fff"></path><path d="M370,352.79a2.46,2.46,0,0,0-2.51.65,3.45,3.45,0,0,0-.26.28h0a8.12,8.12,0,0,0-2,3.72c-.31,1.28.38,2.9,1.69,3.06s2.3-1.08,3-2.18a7.2,7.2,0,0,0,1.31-2.87A2.47,2.47,0,0,0,370,352.79Z" style="fill:#fff"></path><path d="M387.37,338.61a2.4,2.4,0,0,0-1.36-2c-.8-.33-2.36-.05-2.67.76a6.78,6.78,0,0,0-.93,3,2.34,2.34,0,0,0,1.78,2.35,2.8,2.8,0,0,0,2.51-1.65A4.21,4.21,0,0,0,387.37,338.61Z" style="fill:#fff"></path><path d="M350.34,340.18a3.58,3.58,0,0,0-.89-.35h0a6.5,6.5,0,0,0-3.13-.15,1.84,1.84,0,0,0-.57,3.58,6,6,0,0,0,1.93.43,5.81,5.81,0,0,0,2.24,0,1.81,1.81,0,0,0,.41-3.48Z" style="fill:#fff"></path><path d="M363.13,339.88a1.85,1.85,0,0,0-2.49-.45l.28-.11c-.95.2-1.17,1.61-.75,2.49a1.8,1.8,0,0,0,2.51.66A1.9,1.9,0,0,0,363.13,339.88Z" style="fill:#fff"></path><path d="M385.41,350.37a1.84,1.84,0,0,0-2.48-.45l.28-.11c-.95.21-1.18,1.61-.75,2.49a1.79,1.79,0,0,0,2.5.66A1.89,1.89,0,0,0,385.41,350.37Z" style="fill:#fff"></path><path d="M373.93,338.68a2,2,0,0,0-1.5.84c-.48.59-.33,1.71.42,1.88a1.33,1.33,0,0,0,1.09-.37,2.48,2.48,0,0,0,.73-1.54C374.82,338.66,373.93,338.68,373.93,338.68Z" style="fill:#fff"></path><path d="M413.19,312c-.08,0-.1-.34-.29-.82a3.06,3.06,0,0,0-1.19-1.5,4.1,4.1,0,0,0-1.93-.42c-.53,0-.87,0-.89-.05s.3-.23.86-.32a3.5,3.5,0,0,1,2.21.34,2.81,2.81,0,0,1,1.29,1.85C413.37,311.69,413.25,312.05,413.19,312Z" style="fill:#263238"></path><path d="M410,313.89c-.05.13-.93-.31-1.2-1.42s.36-1.89.46-1.79-.16.8.05,1.68S410.09,313.77,410,313.89Z" style="fill:#263238"></path><path d="M426.76,307.9c-.17,0-.13-.65-.26-1.29s-.58-.93-.56-1.06.21-.1.46.05a1.38,1.38,0,0,1,.61.9C427.16,307.34,426.87,307.91,426.76,307.9Z" style="fill:#263238"></path><path d="M436.92,296.89a10.63,10.63,0,0,1-2.08.78,11.69,11.69,0,0,0-4.52,2.58,5.8,5.8,0,0,0-1.49,2.37,4.75,4.75,0,0,0-.12,2.28,5.76,5.76,0,0,0,.87,2,2.8,2.8,0,0,1-1.23-1.88,4.88,4.88,0,0,1,0-2.49,6,6,0,0,1,1.58-2.61,10.73,10.73,0,0,1,4.78-2.56A8.25,8.25,0,0,1,436.92,296.89Z" style="fill:#263238"></path><path d="M396.34,297.67a6.94,6.94,0,0,1,2.33-.06,10.4,10.4,0,0,1,2.49.48,8.26,8.26,0,0,1,2.75,1.52,5.58,5.58,0,0,1,1.83,2.58,3.6,3.6,0,0,1-.1,2.59,2.85,2.85,0,0,1-1.15,1.32c-.36.21-.59.22-.6.2a3.53,3.53,0,0,0,1.41-1.66,3.3,3.3,0,0,0,0-2.3,5.23,5.23,0,0,0-1.71-2.33,9.55,9.55,0,0,0-4.95-2A19.38,19.38,0,0,1,396.34,297.67Z" style="fill:#263238"></path><path d="M424.1,320.09a5.68,5.68,0,0,0-2.07-2.35c-1.34-.92-3.62-.6-5.16-.05l-.4.55a6.54,6.54,0,0,0-1.37,1.6,2.24,2.24,0,0,0-.13,2,2.14,2.14,0,0,0,1.41,1,2.06,2.06,0,0,1,.57.25,5,5,0,0,0,2.94,1.23c1.75,0,1.72-1.06,2.4-1.33.37-.15,1-.12,1.41-.24s.64-.74.66-1.13A6,6,0,0,0,424.1,320.09Z" style="fill:#fff"></path><path d="M424.1,322.14s-.32.36-1.06.56a3.43,3.43,0,0,1-1.35.08,2.24,2.24,0,0,1-1.5-.85l.4,0c-.08.08-.16.17-.25.25a3.37,3.37,0,0,1-3.09.7c-.81-.23-1.15-.66-1.11-.7s.45.22,1.19.34a3.33,3.33,0,0,0,2.67-.73l.2-.2.23-.22.18.24a2.57,2.57,0,0,0,2.36.72C423.66,322.26,424.06,322.07,424.1,322.14Z" style="fill:#263238"></path><path d="M422.63,317a1.28,1.28,0,0,1,.74,1.24,1.52,1.52,0,0,1-.87,1.33,1.39,1.39,0,0,0-.45.24c-.13.12-.17.35,0,.45a1.36,1.36,0,0,0,.21.1c.19.15,0,.46-.14.61a3.1,3.1,0,0,1-4.18-.2c-.37-.57.62-.17.64-.48a1,1,0,0,0-.46-.77,5.38,5.38,0,0,0-.85-.38,1.36,1.36,0,0,1-.72-.57,1.16,1.16,0,0,1,.42-1.39,3.09,3.09,0,0,1,1.49-.48c1.47-.19,2.68-.45,4.2.3" style="fill:#263238"></path><path d="M338.65,378.88A4.28,4.28,0,0,1,342,376.1a13.91,13.91,0,0,1,4.55,0c10.52,1.12,20.72.77,31,3.41,0,0-3.78.5-6.06.74-5.68.61-11.58,1.11-17,1.56-5.61.47-11.48.05-15.8-3" style="fill:#fff"></path><path d="M418.84,310.16a1.1,1.1,0,0,0-1.36.63,1.07,1.07,0,0,0,2,.73A1.12,1.12,0,0,0,418.84,310.16Z" style="fill:#fff"></path><path d="M421.14,305.82a.76.76,0,0,0-.89-.28c-.33.08-.62.27-.95.35a2.53,2.53,0,0,1-1.5-.24,4.88,4.88,0,0,0-1.47-.48c-.51-.05-1.22.08-1.3.73-.32,1.64,1.52,2.62,2.91,2.73a3.16,3.16,0,0,0,3.2-2.17A.88.88,0,0,0,421.14,305.82Z" style="fill:#fff"></path><path d="M418,304.14c.05,0,.21.13.44.43l.27.35-.45-.13a5.92,5.92,0,0,1-2.28-1.34,4.38,4.38,0,0,1-1.6-2.8,28.78,28.78,0,0,0,2,2.42,9.5,9.5,0,0,0,2,1.44l-.19.22C418,304.38,417.91,304.17,418,304.14Z" style="fill:#263238"></path><path d="M418.87,304.49c-.06.12-.69-.06-1.28-.58s-.85-1.11-.73-1.19.54.34,1.08.8S418.93,304.36,418.87,304.49Z" style="fill:#263238"></path><path d="M420.12,304c0,.14-.58.27-1.21-.07s-.85-.91-.72-1,.47.25,1,.51S420.12,303.82,420.12,304Z" style="fill:#263238"></path><g style="opacity:0.30000000000000004"><path d="M339.29,377a12.39,12.39,0,0,0,5.27-9.46,18.12,18.12,0,0,0-2.8-10.83A39.19,39.19,0,0,1,339.29,377"></path></g><g style="opacity:0.30000000000000004"><path d="M393.77,341.2a76.33,76.33,0,0,1,6,13.39,10,10,0,0,1,.62,2.74,3.6,3.6,0,0,1-.86,2.61,52,52,0,0,0-5.93-18.64"></path></g><g style="opacity:0.30000000000000004"><path d="M310.1,345.82a7.25,7.25,0,0,0-.43,4.29c.11.53.38,1.13.91,1.23s1.06-.44,1.34-1a17.6,17.6,0,0,0,1.54-4.95,1.16,1.16,0,0,0-.06-.88,1,1,0,0,0-.76-.35,3,3,0,0,0-2.91,1.91"></path></g><path d="M331.85,338.64a20.55,20.55,0,0,1-2.57.09,37.67,37.67,0,0,0-6.12.67,37.28,37.28,0,0,0-5.93,1.66,21.7,21.7,0,0,1-2.42.87,9.61,9.61,0,0,1,2.28-1.21,28.77,28.77,0,0,1,6-1.84,29.19,29.19,0,0,1,6.22-.52A9.63,9.63,0,0,1,331.85,338.64Z" style="fill:#fff"></path><path d="M405.46,323.88a3.5,3.5,0,0,1-.24,1.62,9.84,9.84,0,0,1-5,5.89,3.44,3.44,0,0,1-1.56.49,12.72,12.72,0,0,0,6.83-8Z" style="fill:#fff"></path></g><g id="freepik--Floor--inject-7"><path d="M721.81,429.26c0,.14-151.36.26-338,.26s-338.07-.12-338.07-.26S197,429,383.78,429,721.81,429.11,721.81,429.26Z" style="fill:#263238"></path></g></svg>