<?xml version="1.0" encoding="utf-8"?>
<svg xmlns="http://www.w3.org/2000/svg" xmlns:xlink="http://www.w3.org/1999/xlink" style="margin: auto; background: rgb(255, 255, 255); display: block; shape-rendering: auto;" width="200px" height="200px" viewBox="0 0 100 100" preserveAspectRatio="xMidYMid">
<g transform="rotate(0 50 50)">
  <rect x="47.5" y="24" rx="1.32" ry="1.32" width="5" height="12" fill="#272791">
    <animate attributeName="opacity" values="1;0" keyTimes="0;1" dur="0.42372881355932207s" begin="-0.3884180790960452s" repeatCount="indefinite"></animate>
  </rect>
</g><g transform="rotate(30 50 50)">
  <rect x="47.5" y="24" rx="1.32" ry="1.32" width="5" height="12" fill="#272791">
    <animate attributeName="opacity" values="1;0" keyTimes="0;1" dur="0.42372881355932207s" begin="-0.3531073446327684s" repeatCount="indefinite"></animate>
  </rect>
</g><g transform="rotate(60 50 50)">
  <rect x="47.5" y="24" rx="1.32" ry="1.32" width="5" height="12" fill="#272791">
    <animate attributeName="opacity" values="1;0" keyTimes="0;1" dur="0.42372881355932207s" begin="-0.3177966101694915s" repeatCount="indefinite"></animate>
  </rect>
</g><g transform="rotate(90 50 50)">
  <rect x="47.5" y="24" rx="1.32" ry="1.32" width="5" height="12" fill="#272791">
    <animate attributeName="opacity" values="1;0" keyTimes="0;1" dur="0.42372881355932207s" begin="-0.2824858757062147s" repeatCount="indefinite"></animate>
  </rect>
</g><g transform="rotate(120 50 50)">
  <rect x="47.5" y="24" rx="1.32" ry="1.32" width="5" height="12" fill="#272791">
    <animate attributeName="opacity" values="1;0" keyTimes="0;1" dur="0.42372881355932207s" begin="-0.24717514124293785s" repeatCount="indefinite"></animate>
  </rect>
</g><g transform="rotate(150 50 50)">
  <rect x="47.5" y="24" rx="1.32" ry="1.32" width="5" height="12" fill="#272791">
    <animate attributeName="opacity" values="1;0" keyTimes="0;1" dur="0.42372881355932207s" begin="-0.211864406779661s" repeatCount="indefinite"></animate>
  </rect>
</g><g transform="rotate(180 50 50)">
  <rect x="47.5" y="24" rx="1.32" ry="1.32" width="5" height="12" fill="#272791">
    <animate attributeName="opacity" values="1;0" keyTimes="0;1" dur="0.42372881355932207s" begin="-0.1765536723163842s" repeatCount="indefinite"></animate>
  </rect>
</g><g transform="rotate(210 50 50)">
  <rect x="47.5" y="24" rx="1.32" ry="1.32" width="5" height="12" fill="#272791">
    <animate attributeName="opacity" values="1;0" keyTimes="0;1" dur="0.42372881355932207s" begin="-0.14124293785310735s" repeatCount="indefinite"></animate>
  </rect>
</g><g transform="rotate(240 50 50)">
  <rect x="47.5" y="24" rx="1.32" ry="1.32" width="5" height="12" fill="#272791">
    <animate attributeName="opacity" values="1;0" keyTimes="0;1" dur="0.42372881355932207s" begin="-0.1059322033898305s" repeatCount="indefinite"></animate>
  </rect>
</g><g transform="rotate(270 50 50)">
  <rect x="47.5" y="24" rx="1.32" ry="1.32" width="5" height="12" fill="#272791">
    <animate attributeName="opacity" values="1;0" keyTimes="0;1" dur="0.42372881355932207s" begin="-0.07062146892655367s" repeatCount="indefinite"></animate>
  </rect>
</g><g transform="rotate(300 50 50)">
  <rect x="47.5" y="24" rx="1.32" ry="1.32" width="5" height="12" fill="#272791">
    <animate attributeName="opacity" values="1;0" keyTimes="0;1" dur="0.42372881355932207s" begin="-0.03531073446327684s" repeatCount="indefinite"></animate>
  </rect>
</g><g transform="rotate(330 50 50)">
  <rect x="47.5" y="24" rx="1.32" ry="1.32" width="5" height="12" fill="#272791">
    <animate attributeName="opacity" values="1;0" keyTimes="0;1" dur="0.42372881355932207s" begin="0s" repeatCount="indefinite"></animate>
  </rect>
</g>
<!-- [ldio] generated by https://loading.io/ --></svg>