<svg xmlns="http://www.w3.org/2000/svg" viewBox="0 0 500 500"><g id="freepik--background-complete--inject-9"><rect y="382.4" width="500" height="0.25" style="fill:#ebebeb"></rect><rect x="416.78" y="398.49" width="33.12" height="0.25" style="fill:#ebebeb"></rect><rect x="322.53" y="401.21" width="8.69" height="0.25" style="fill:#ebebeb"></rect><rect x="396.59" y="389.21" width="19.19" height="0.25" style="fill:#ebebeb"></rect><rect x="52.46" y="390.89" width="43.19" height="0.25" style="fill:#ebebeb"></rect><rect x="104.56" y="390.89" width="6.33" height="0.25" style="fill:#ebebeb"></rect><rect x="131.47" y="395.11" width="93.68" height="0.25" style="fill:#ebebeb"></rect><path d="M237,337.8H43.91a5.71,5.71,0,0,1-5.7-5.71V60.66A5.71,5.71,0,0,1,43.91,55H237a5.71,5.71,0,0,1,5.71,5.71V332.09A5.71,5.71,0,0,1,237,337.8ZM43.91,55.2a5.46,5.46,0,0,0-5.45,5.46V332.09a5.46,5.46,0,0,0,5.45,5.46H237a5.47,5.47,0,0,0,5.46-5.46V60.66A5.47,5.47,0,0,0,237,55.2Z" style="fill:#ebebeb"></path><path d="M453.31,337.8H260.21a5.72,5.72,0,0,1-5.71-5.71V60.66A5.72,5.72,0,0,1,260.21,55h193.1A5.71,5.71,0,0,1,459,60.66V332.09A5.71,5.71,0,0,1,453.31,337.8ZM260.21,55.2a5.47,5.47,0,0,0-5.46,5.46V332.09a5.47,5.47,0,0,0,5.46,5.46h193.1a5.47,5.47,0,0,0,5.46-5.46V60.66a5.47,5.47,0,0,0-5.46-5.46Z" style="fill:#ebebeb"></path><polygon points="372.73 76.9 375.15 82.53 370.93 79.72 366.29 81.88 368.38 76.9 364.61 74.48 369.26 74.48 370.49 69.88 372.07 74.36 376.2 74.44 372.73 76.9" style="fill:#e0e0e0"></polygon><polygon points="305.45 129.1 307.86 134.72 303.64 131.91 299 134.07 301.09 129.1 297.32 126.68 301.98 126.68 303.21 122.07 304.79 126.55 308.92 126.64 305.45 129.1" style="fill:#e0e0e0"></polygon><polygon points="119.67 321.38 121.46 325.55 118.34 323.46 114.89 325.07 116.44 321.38 113.64 319.58 117.1 319.58 118.01 316.16 119.18 319.49 122.25 319.55 119.67 321.38" style="fill:#e0e0e0"></polygon><polygon points="54.79 149.27 57.2 154.89 52.99 152.08 48.34 154.24 50.43 149.27 46.66 146.84 51.32 146.84 52.55 142.24 54.13 146.72 58.26 146.81 54.79 149.27" style="fill:#e0e0e0"></polygon><path d="M61.77,265.82a3.17,3.17,0,1,0,3.17-3.16A3.17,3.17,0,0,0,61.77,265.82Z" style="fill:#e0e0e0"></path><path d="M58.61,79.5a3.17,3.17,0,1,0,3.16-3.16A3.16,3.16,0,0,0,58.61,79.5Z" style="fill:#e0e0e0"></path><circle cx="425.05" cy="179.08" r="3.16" style="fill:#e0e0e0"></circle><circle cx="409.77" cy="227.96" r="3.16" style="fill:#e0e0e0"></circle><circle cx="408.99" cy="198.23" r="3.16" style="fill:#e0e0e0"></circle><path d="M109.17,276.87a3.16,3.16,0,1,0,3.16-3.17A3.16,3.16,0,0,0,109.17,276.87Z" style="fill:#e0e0e0"></path><path d="M82.67,278.45a1.58,1.58,0,1,0,1.58-1.58A1.58,1.58,0,0,0,82.67,278.45Z" style="fill:#e0e0e0"></path><path d="M430.17,269a1.58,1.58,0,1,0,1.58-1.58A1.58,1.58,0,0,0,430.17,269Z" style="fill:#e0e0e0"></path><path d="M360.44,162.37a1.58,1.58,0,1,0,1.58-1.58A1.58,1.58,0,0,0,360.44,162.37Z" style="fill:#e0e0e0"></path><path d="M432.5,189.18a1.58,1.58,0,1,0,1.58-1.58A1.58,1.58,0,0,0,432.5,189.18Z" style="fill:#e0e0e0"></path><path d="M188.93,76.34a1.58,1.58,0,1,0,1.58-1.58A1.58,1.58,0,0,0,188.93,76.34Z" style="fill:#e0e0e0"></path><path d="M281.51,145.47a1.59,1.59,0,1,0,1.59-1.58A1.59,1.59,0,0,0,281.51,145.47Z" style="fill:#e0e0e0"></path><path d="M107.58,229.54a1.59,1.59,0,1,0,1.59-1.58A1.59,1.59,0,0,0,107.58,229.54Z" style="fill:#e0e0e0"></path><path d="M60.19,210a1.58,1.58,0,1,0,1.58-1.58A1.58,1.58,0,0,0,60.19,210Z" style="fill:#e0e0e0"></path><path d="M107.58,96.4a1.59,1.59,0,1,0,1.59-1.58A1.59,1.59,0,0,0,107.58,96.4Z" style="fill:#e0e0e0"></path><path d="M63.35,114a1.59,1.59,0,1,0,1.59-1.59A1.59,1.59,0,0,0,63.35,114Z" style="fill:#e0e0e0"></path><path d="M76.3,196.38a1.58,1.58,0,1,0,1.58-1.59A1.58,1.58,0,0,0,76.3,196.38Z" style="fill:#e0e0e0"></path><path d="M125.43,265.82a1.59,1.59,0,1,0,1.59-1.58A1.59,1.59,0,0,0,125.43,265.82Z" style="fill:#e0e0e0"></path><path d="M168.07,304.23a1.58,1.58,0,1,0,1.58-1.58A1.58,1.58,0,0,0,168.07,304.23Z" style="fill:#e0e0e0"></path><path d="M169.65,314.81a1.58,1.58,0,1,0,1.58-1.58A1.59,1.59,0,0,0,169.65,314.81Z" style="fill:#e0e0e0"></path><path d="M287.9,87.9a1.59,1.59,0,1,0,1.58-1.58A1.58,1.58,0,0,0,287.9,87.9Z" style="fill:#e0e0e0"></path><path d="M338.1,99.94a1.58,1.58,0,1,0,1.58-1.58A1.58,1.58,0,0,0,338.1,99.94Z" style="fill:#e0e0e0"></path><path d="M322.22,160.79a1.58,1.58,0,1,0,1.58-1.59A1.58,1.58,0,0,0,322.22,160.79Z" style="fill:#e0e0e0"></path><path d="M69.64,115.59c0,.87.24,1.58.55,1.58s.55-.71.55-1.58S70.5,114,70.19,114,69.64,114.71,69.64,115.59Z" style="fill:#e0e0e0"></path><path d="M300,76.2A3.16,3.16,0,1,0,303.12,73,3.15,3.15,0,0,0,300,76.2Z" style="fill:#e0e0e0"></path><circle cx="434.92" cy="315.52" r="3.16" style="fill:#e0e0e0"></circle><path d="M418.73,295.82a3.16,3.16,0,1,0,3.16-3.16A3.16,3.16,0,0,0,418.73,295.82Z" style="fill:#e0e0e0"></path><circle cx="336.83" cy="148.64" r="3.16" style="fill:#e0e0e0"></circle></g><g id="freepik--Shadow--inject-9"><ellipse id="freepik--path--inject-9" cx="250" cy="421.7" rx="193.89" ry="11.32" style="fill:#f5f5f5"></ellipse></g><g id="freepik--Space--inject-9"><path d="M446.36,318c6.7-27.25,3.66-57.5-8.41-81.63-5.93-11.85-13.65-22.84-24.16-31.09-28.62-22.48-61.79-10.47-94.41-13.46-11.4-1-22.9-4.83-31.25-12.66-14.73-13.8-16.46-36-20.93-55.71C260,91.55,241.37,69.88,209.64,61s-68.36-5.06-97.4,10.8c-36.78,20.11-55,60.57-60.37,100.69-3.18,23.62-2.12,48.27,4.71,71.2.45,1.53.94,3.05,1.45,4.57,18,53.56,70.63,94.48,120.52,116.83C219.22,383.27,263.62,392,308,394.34c38.38,2.07,81.07.07,110.83-27.59C432.68,353.85,441.79,336.65,446.36,318Z" style="fill:#263238"></path><path d="M131.73,275.87a1.79,1.79,0,1,0,1.79-1.79A1.79,1.79,0,0,0,131.73,275.87Z" style="fill:#407BFF;opacity:0.5"></path><path d="M96.84,261a7.72,7.72,0,1,0,7.72-7.72A7.72,7.72,0,0,0,96.84,261Z" style="fill:#407BFF;opacity:0.5"></path><path d="M102.76,261a1.8,1.8,0,1,0,1.8-1.79A1.8,1.8,0,0,0,102.76,261Z" style="fill:#ebebeb;opacity:0.7000000000000001"></path><path d="M257.43,161.2a3.15,3.15,0,1,0,3.15-3.15A3.15,3.15,0,0,0,257.43,161.2Z" style="fill:#407BFF;opacity:0.5"></path><path d="M258.78,161.2a1.8,1.8,0,1,0,1.8-1.79A1.8,1.8,0,0,0,258.78,161.2Z" style="fill:#ebebeb;opacity:0.7000000000000001"></path><path d="M200.33,264.47a3.15,3.15,0,1,0,3.15-3.15A3.15,3.15,0,0,0,200.33,264.47Z" style="fill:#407BFF;opacity:0.5"></path><path d="M201.69,264.47a1.8,1.8,0,1,0,1.79-1.8A1.79,1.79,0,0,0,201.69,264.47Z" style="fill:#ebebeb;opacity:0.7000000000000001"></path><path d="M427.59,274.68a3.15,3.15,0,1,0,3.15-3.15A3.15,3.15,0,0,0,427.59,274.68Z" style="fill:#407BFF;opacity:0.5"></path><path d="M429,274.68a1.8,1.8,0,1,0,1.79-1.8A1.79,1.79,0,0,0,429,274.68Z" style="fill:#ebebeb;opacity:0.7000000000000001"></path><path d="M219.57,102.37a1.79,1.79,0,1,0,1.79-1.79A1.8,1.8,0,0,0,219.57,102.37Z" style="fill:#ebebeb;opacity:0.7000000000000001"></path><path d="M225.55,110.13a1.8,1.8,0,1,0,1.79-1.79A1.79,1.79,0,0,0,225.55,110.13Z" style="fill:#ebebeb;opacity:0.7000000000000001"></path><path d="M90.53,210.47a1.79,1.79,0,1,0,1.79-1.79A1.8,1.8,0,0,0,90.53,210.47Z" style="fill:#407BFF;opacity:0.5"></path><path d="M138.16,295.2a1.79,1.79,0,1,0,1.79-1.8A1.79,1.79,0,0,0,138.16,295.2Z" style="fill:#ebebeb;opacity:0.7000000000000001"></path><path d="M69,166.41a1.8,1.8,0,1,0,1.79-1.79A1.8,1.8,0,0,0,69,166.41Z" style="fill:#ebebeb;opacity:0.7000000000000001"></path><path d="M165.86,287.7a5.11,5.11,0,1,0,5.11-5.11A5.11,5.11,0,0,0,165.86,287.7Z" style="fill:#407BFF;opacity:0.5"></path><path d="M169.18,287.7a1.79,1.79,0,1,0,1.79-1.79A1.79,1.79,0,0,0,169.18,287.7Z" style="fill:#ebebeb;opacity:0.7000000000000001"></path><path d="M244.89,361.88a5.11,5.11,0,1,0,5.11-5.1A5.11,5.11,0,0,0,244.89,361.88Z" style="fill:#407BFF;opacity:0.5"></path><path d="M248.21,361.88a1.79,1.79,0,1,0,1.79-1.79A1.8,1.8,0,0,0,248.21,361.88Z" style="fill:#ebebeb;opacity:0.7000000000000001"></path><path d="M174.6,304.57a1.79,1.79,0,1,0,1.79-1.79A1.8,1.8,0,0,0,174.6,304.57Z" style="fill:#407BFF;opacity:0.5"></path><circle cx="256.06" cy="146.84" r="1.79" style="fill:#407BFF;opacity:0.5"></circle><path d="M81.33,128.94a1.79,1.79,0,1,0,1.79-1.79A1.79,1.79,0,0,0,81.33,128.94Z" style="fill:#407BFF;opacity:0.5"></path><path d="M113.68,98.79a1.8,1.8,0,1,0,1.8-1.79A1.8,1.8,0,0,0,113.68,98.79Z" style="fill:#ebebeb;opacity:0.7000000000000001"></path><path d="M416.07,245.31a1.8,1.8,0,1,0,1.8-1.79A1.8,1.8,0,0,0,416.07,245.31Z" style="fill:#407BFF;opacity:0.5"></path><path d="M421.45,304.32a1.8,1.8,0,1,0,1.79-1.79A1.79,1.79,0,0,0,421.45,304.32Z" style="fill:#ebebeb;opacity:0.7000000000000001"></path><path d="M254.26,133.85a1.8,1.8,0,1,0,1.8-1.8A1.8,1.8,0,0,0,254.26,133.85Z" style="fill:#407BFF;opacity:0.5"></path><path d="M419.66,332.21a1.79,1.79,0,1,0,1.79-1.79A1.79,1.79,0,0,0,419.66,332.21Z" style="fill:#ebebeb;opacity:0.7000000000000001"></path><path d="M164.07,339a1.79,1.79,0,1,0,1.79-1.8A1.79,1.79,0,0,0,164.07,339Z" style="fill:#ebebeb;opacity:0.7000000000000001"></path><path d="M216.2,181.47a1.8,1.8,0,1,0,1.79-1.8A1.79,1.79,0,0,0,216.2,181.47Z" style="fill:#407BFF;opacity:0.5"></path><path d="M231.65,306.37a1.79,1.79,0,1,0,1.79-1.8A1.79,1.79,0,0,0,231.65,306.37Z" style="fill:#407BFF;opacity:0.5"></path><path d="M427.16,326.85a1.79,1.79,0,1,0,1.79-1.79A1.8,1.8,0,0,0,427.16,326.85Z" style="fill:#407BFF;opacity:0.5"></path><path d="M263.27,368.79a1.8,1.8,0,1,0,1.79-1.8A1.79,1.79,0,0,0,263.27,368.79Z" style="fill:#407BFF;opacity:0.5"></path><path d="M223.76,74.89a1.79,1.79,0,1,0,1.79-1.79A1.79,1.79,0,0,0,223.76,74.89Z" style="fill:#407BFF;opacity:0.5"></path><path d="M176.39,74.89a5.26,5.26,0,1,0,5.26-5.26A5.27,5.27,0,0,0,176.39,74.89Z" style="fill:#407BFF;opacity:0.5"></path><path d="M179.86,74.89a1.79,1.79,0,1,0,1.79-1.79A1.79,1.79,0,0,0,179.86,74.89Z" style="fill:#ebebeb;opacity:0.7000000000000001"></path><path d="M74.08,211.72a3.63,3.63,0,1,0,3.62-3.62A3.62,3.62,0,0,0,74.08,211.72Z" style="fill:#407BFF;opacity:0.5"></path><path d="M75.91,211.72a1.8,1.8,0,1,0,1.79-1.79A1.79,1.79,0,0,0,75.91,211.72Z" style="fill:#407BFF;opacity:0.5"></path><path d="M75.91,211.72a1.8,1.8,0,1,0,1.79-1.79A1.79,1.79,0,0,0,75.91,211.72Z" style="fill:#ebebeb;opacity:0.7000000000000001"></path></g><g id="freepik--planet-2--inject-9"><circle cx="70.67" cy="338.43" r="12.93" transform="translate(-114.61 46.54) rotate(-20.61)" style="fill:#407BFF"></circle><path d="M67.13,329.64c-16.42,6.62-28,16.15-26,21.3s17.07,4,33.49-2.66,28.05-16.16,26-21.31S83.55,323,67.13,329.64ZM73.32,345c-10.65,4.3-20.38,5.07-21.73,1.73s6.2-9.53,16.86-13.82,20.38-5.07,21.73-1.73S84,340.71,73.32,345Z" style="fill:#407BFF"></path><path d="M67.13,329.64c-16.42,6.62-28,16.15-26,21.3s17.07,4,33.49-2.66,28.05-16.16,26-21.31S83.55,323,67.13,329.64ZM73.32,345c-10.65,4.3-20.38,5.07-21.73,1.73s6.2-9.53,16.86-13.82,20.38-5.07,21.73-1.73S84,340.71,73.32,345Z" style="fill:#fff;opacity:0.4"></path><path d="M58.68,343.27l24-9.67a13,13,0,0,0-16.83-7.16A12.8,12.8,0,0,0,58.68,343.27Z" style="fill:#407BFF"></path></g><g id="freepik--planet-1--inject-9"><circle cx="368.38" cy="125.36" r="31.54" transform="translate(213.49 482.33) rotate(-85.34)" style="fill:#407BFF"></circle><path d="M338.14,134.34q36,.49,52.14-31.7a31.3,31.3,0,0,0-8.44-5.81q-13.8,28-45,27.34A31.31,31.31,0,0,0,338.14,134.34Z" style="fill:#fafafa;opacity:0.5"></path><path d="M338.14,134.34q36,.48,52.14-31.7a31.91,31.91,0,0,1,8,12.7q-18.49,28.82-52.58,32A31.47,31.47,0,0,1,338.14,134.34Z" style="fill:#fff;opacity:0.7000000000000001"></path><path d="M358.44,96.59c.39.64-1.77,2.65-4.81,4.5s-5.82,2.84-6.21,2.2,1.77-2.65,4.81-4.5S358.05,96,358.44,96.59Z" style="fill:#fafafa;opacity:0.5"></path></g><g id="freepik--Earth--inject-9"><path d="M352.48,226.35c0,1.06,0,2.09,0,3.09l-4-2.65v14.1l-15.17-3-3.67,2.26,3.67,6.66-6.87-5.33-7.19,1.07-2.93,21.9-8-6.73L295,268.49l3.55,6.56-7.82-8.26L274.44,282.2V268.35l-9.86,9.16L264,282.1l-2.64-.83a76.77,76.77,0,1,0,91.1-54.92Z" style="fill:#407BFF"></path><path d="M352.48,226.35c0,1.06,0,2.09,0,3.09l-4-2.65v14.1l-15.17-3-3.67,2.26,3.67,6.66-6.87-5.33-7.19,1.07-2.93,21.9-8-6.73L295,268.49l3.55,6.56-7.82-8.26L274.44,282.2V268.35l-9.86,9.16L264,282.1l-2.64-.83a76.77,76.77,0,1,0,91.1-54.92Z" style="fill:#fff;opacity:0.7000000000000001"></path><circle cx="335.55" cy="302.18" r="61.67" transform="translate(-115.39 325.78) rotate(-45)" style="fill:#407BFF"></circle><circle cx="335.55" cy="302.18" r="61.67" transform="translate(-115.39 325.78) rotate(-45)" style="fill:#fff;opacity:0.1"></circle><path d="M303.26,354.72a59.18,59.18,0,0,0,22.16,8.22,60.5,60.5,0,0,0,27.52-1.58,15.86,15.86,0,0,0-2.91-.46c-.57,0-.69-.74-1.29-.76-1.22,0-2.92.29-4.12.34-.94,0-1.88.47-2.7.53-2.17.16-3.73.35-3.73.35L337,360.9l-.69-1.14-1.43-.54-1.58.27-1.34-.51-.8-.9-1.71-.79-1.31.52-1.26-.13-1.75.69-.42.79-1.78.7-.84-.51-1.91-.37-3.92-3.14-1.7.37-3.41-1.49h-.78l-1.34-.58h-3.57l-1,.58Z" style="fill:#fff;opacity:0.4"></path><path d="M287.06,340.29l3.28,2.43,1.09,1.59,1.5,1.38,1.79-.2.94,1.33,1.32.54,2.11-2.41L298,343.27l-.43-3-.8-.84-.37-1.62-1.4-1.49-1.46-.34-.74-.79-1.83-.18-.36-2.14.48-1-.28-.25.22-.45.57-.36.69-1.45L291,324.13l.38-1.49-.52-.75.67-2.63,1-1,.36-1.45,1.54-1.1.56-1.39,2.4-.67.41-.9,2.19-.62,1.38.4,1.94-.54,2.76-3.66.54-2-1-1.19,1.25-2.08.64.08.33-1.23h4.37l.93-.81.4-1.11.72-.63,1.09-.19,1.13-1,0-3.56-.74-1.25,0-4.73.71-1.42,0-2.67,1.65-2.47.46.31,1.76-2.64-1.34-2,.18-3.57-2.5-.71-.6-.57-.64.39-1.08-1.07-.2-1.14-.5-.47-.37-2.14-1.83.05L309.61,267l-2.54.5.14.84-3.39,1.25-1.51-1.13-1.86.37-.74-1-1.6.36-.44,1.22-1.82.37L294,268.32l-1,2-2.05.41-.5-.63-1.21.27-.74.85-1.45.29,1.45-2.08-.5-1.12,1.71,0,.36-1.61L289,264.93l1.07-1.43,1.07-.72,1.16.77,2.76-1.84,0-1.62,1.11-1.39,2.12-.38-.33-1.87,3-1.16,1.07,1.16h1.23l.09-1.9.89-.33.33-1.27-2.27-.2,1.87-1-.64-.81.07-1.51c-8.76,5.8-15.92,12.36-20.42,20.18a61.22,61.22,0,0,0,3.88,70.69Z" style="fill:#fff;opacity:0.4"></path><path d="M364,350.84,360,348l-.32-1.18-.84-.2-.41-4.46L357,341,356,338.44v-2.5l-1.47-1.07,1.47-5.76,1.28-2.2,1.42-.17.67-1.15-.34-1.7,2.06-3.56V312l-1-1.74.13-5.55-1.09-.51-1.31.7-4.8-2.24,0-1.32-2.52-1.18-.33-3.57.92-2.52-1.36-2.16-.49-5.31,3.78-5.24,2.35.4.6-2.19-.69-1.47,1.12-.09,2.09-1.62.29-1.44.95-.73,2.2-.49.71.67-.45.9,1,.92,3.49-1.29,8.27,2.57-.42-5.65-3.08-3,1.22-.9,1.33.11.11-2.72-4.46-.26-1.3-1.77-2.25-.12-1.19-1.69-2.12-.48-.65-3-1.78.09L359.7,257l-3.61.18-.81,1.15-2,.11.16,2.05-2.32-.36-1.4-1.51-2.11.1-1.9-2.66-1.91-.21-1.24-1.43,1-1.41-.5-.71,1.23-.52.21-1.15,2.87-.18,1.32-.58,1.5.29,2-.72-.65-.8.6-.26-4.7-.56-.19-1.28-1.34-.5.77-1.44-2.14-.53-2.15,2-2.49-.58-2.43,1-.81,1.57-1.07.1-1.13,1.7.61,1.29-.79,1.55-2.05.28-1.27-1.11-1.05,1-1.52-2.41.17-.7-1.49-1.3-.61-2.51-1.77.43,1.91-2.56-4.27.5-.54-.47-.72.64-1.33-1.08.95-.52-.51-.45c12.76-3.14,25.62-2.52,37.13,2.18a57.91,57.91,0,0,1,22.06,14.11l-.28,3.21,2.46,1.26,1.54,3.86-1.53,1-1-1.85-.3,3.51L378.27,271l2.45,2.67-1.2,2.15h-1.2l-.94,1.33.67,3.81,6.28,4.49.77,2.19,1.78,1.69.94,3.1L386.48,294l-.74.91.28,1.26,4.92-1,1.16.59,4.55,6.09.48,3.7-3.56,7.63-2.83.85-1,1.85.7,1-4.48,8.4-1.48.47-1.36,2.54-5.75,3.48.37,2.25-2.38,3.5-4.42.05-2.17,1.83,1.5,2,.4,3.22-1.33,4.41-.89.29-.65.21-.31,1.06-1.45.47Z" style="fill:#fff;opacity:0.4"></path><polygon points="301.18 342.37 301.03 341.85 299.92 341.28 299.38 339.37 300.07 338.44 299.77 337.37 300.43 337.02 300.34 336.21 302.09 336.12 299.27 334.07 298.23 334.77 296.98 334.34 296.98 333.36 295.88 333 296.98 331.21 296.98 330.06 298.48 328.68 297.39 327.38 297.93 326.79 297.63 325.77 299.86 325.77 300.58 326.5 303.26 328.36 303.9 329.88 304.77 330.77 304.99 331.54 305.84 332.04 306.44 334.09 305.87 334.55 306.02 335.05 305.65 336.23 305.51 340.23 304.27 340.61 303.94 341.65 301.18 342.37" style="fill:#fff;opacity:0.4"></polygon><polygon points="306.02 256.54 306.46 255.63 306.94 252.44 307.87 252.72 308.1 252.26 306.85 251.19 307.28 250.03 307.06 249.42 308.1 248.47 310.6 248.47 311.43 248.26 312.02 248.6 313.99 247.62 314.24 248.47 315.24 248.47 314.88 250.65 314.29 251.79 314.88 252.7 312.25 255.76 311.85 256.54 309.26 257.07 309.14 258.09 308.1 258.68 306.02 256.54" style="fill:#fff;opacity:0.4"></polygon><polygon points="336.83 254.22 337.69 253.15 339.68 253.15 339.68 255.11 338.25 257.07 336.83 256.18 336.83 254.22" style="fill:#fff;opacity:0.4"></polygon><polygon points="355.09 261.54 355.51 260.97 355.62 260.29 356.21 259.51 356.75 259.31 357.23 258.68 357.72 259.29 358.84 259.44 359.55 261.54 361.5 261.02 362.02 262.58 361.5 263.05 361.5 263.68 359.73 263.68 358.94 264.42 359.41 264.82 359.1 265.15 359.34 265.36 358.41 266.2 358.22 266.04 357.9 266.36 357.01 266.25 356.34 266.89 355.85 266.58 355.33 266.89 354.67 265.82 353.02 265.82 352.64 265.5 351.77 265.51 350.06 264.08 349.98 263.28 349.38 262.79 349.87 262.01 350.81 261.89 351.63 262.15 352.15 261.95 353.02 262.08 353.66 262.79 354.01 262.47 354.56 262.52 355.09 261.54" style="fill:#fff;opacity:0.4"></polygon><polygon points="383.4 275.99 386.07 274.56 388.62 275.1 390.62 277.37 390.57 278.58 391.25 279.38 391.25 281.39 390.45 281.44 390 282.59 387.32 282.59 387.32 279.91 385.14 279.51 384.49 277.08 383.4 275.99" style="fill:#fff;opacity:0.4"></polygon><polygon points="345.33 259.93 347.35 261.18 347.35 264.21 345.33 265.82 344.94 265.41 344.22 265.5 343.07 263.44 342.54 262.87 342.94 262.45 343.03 261.66 344.27 260.36 345.05 260.23 345.33 259.93" style="fill:#fff;opacity:0.4"></polygon><polygon points="298.82 259.93 301.82 258.68 303.26 259.31 304.53 262.79 303.75 262.95 302.59 264.05 300.71 264.46 299.92 263.79 298.82 264.03 296.14 262.79 296.98 260.55 298.17 260.62 298.82 259.93" style="fill:#fff;opacity:0.4"></polygon><polygon points="319.7 246.01 322.19 246.73 323.8 249.42 321.75 251.19 318.45 251.19 318.45 247.62 319.7 246.01" style="fill:#fff;opacity:0.4"></polygon><path d="M393.63,281.16s8,30.82-23.77,55.26-77.07,10.19-77.07,10.19c22.45,22,60.15,23.59,85.17.34C396.24,328.81,401.25,305.69,393.63,281.16Z" style="opacity:0.2"></path><path d="M412.29,301.24a76.83,76.83,0,0,0-2.66-20.07,13.87,13.87,0,0,1-.5-1.41,76.61,76.61,0,0,0-46.51-50.27,74.28,74.28,0,0,0-14.59-3.9l-4.81,2.11,14.47,11.18-2.4,1.87,2.4,4.53-4.78-2.92-5.35,2.92,10.13,21.87-20.31,3.45-2.6,4,6.27,9.12-8.4-7.41-7.74,8.42-2.12,26.65-6.92-8.53-13.6-16.79h-11.2l-2.67,10.12V285.79l-9.06-2.07L267,301.57l-2.55,3.68,1.89-8.34v0l4.24-18.82-2,.51-4.17,1.09,3.2-9.59-2-.51a76.46,76.46,0,0,0-6.7,26.35c0,.08,0,.17,0,.26,0,.51-.07,1-.09,1.52l0,.73,0,1.12c0,.33,0,.67,0,1v.92c0,.33,0,.65,0,1s0,.67,0,1,0,.43,0,.65a77,77,0,0,0,15,42.77l.2.27.27.36a77.33,77.33,0,0,0,15.25,15.2l.14.11,1.06.77c.22.16.44.32.67.47l.6.42c.41.28.81.56,1.23.83l.1.07a77.41,77.41,0,0,0,33,12.09l.34,0,1.58.17.75.07,1.17.09,1,.06,1,.05,1.09,0,1,0h2.93a76.93,76.93,0,0,0,33.79-8.66c.32-.16.64-.31,1-.45A76.74,76.74,0,0,0,412.29,301.24Z" style="fill:#fff;opacity:0.30000000000000004"></path><circle cx="281.18" cy="319.33" r="16.12" style="fill:#fff;opacity:0.4"></circle><path d="M281.11,314.81a6,6,0,1,1-6-6A6,6,0,0,1,281.11,314.81Z" style="fill:#fff;opacity:0.5"></path></g><g id="freepik--Sun--inject-9"><path d="M246,118.68s-26.05,13.95-38.25,15c-2,.17,2.05-10,2.05-10s-10.23,5-10.37,2.09c-.63-13.93,14.85-41.57,14.85-41.57S188.32,119.86,182.09,121c-2.09.36-5.75-14.37-5.75-14.37s-5.77,8.84-10.56,8.74c-1.87,0-15.63-33.84-15.63-33.84s5.86,38.34-.33,40.07-18.46-25.67-18.46-25.67,13.75,25.46,6.52,33.6S107,117.8,107,117.8s20,20.52,16.85,28.24-25.21,1.18-25.21,1.18a28.1,28.1,0,0,1,17.69,12.14c6.73,10.43-38.49,3-38.49,3S108.7,176.63,121,183.92c2.24,1.32-7.57,6.64-7.57,6.64s12.67.17,11,3.17c-5.12,9-19.38,22.88-19.38,22.88S133,208,136.77,212.08s-12.87,23.84-12.87,23.84,19.21-17.3,24.67-15S147,258.39,147,258.39s13.63-24.6,21-33.94c1.57-2,3.57,7.74,3.57,7.74s2.4-10.34,4-8.35c6.21,7.73,15.77,28.13,15.77,28.13s-3.51-22.33,4.69-26.71,27.4,14,27.4,14-12.16-18.2-16.26-28.54c-.86-2.16,6.92,2.36,6.92,2.36s-6-9.61-2.69-9c10.14,1.81,30.61,11.75,30.61,11.75s-11.82-14.91-18.19-24.39c-2.13-3.16,12.88-5.06,12.88-5.06s-14-5.2-9.18-6.8c9.19-3.06,24.23-5.74,31.27-6.91,0,0-30.78-2-35.27-9.17s11.9-14.12,11.9-14.12-9.3,5.43-13.74.84S246,118.68,246,118.68Z" style="fill:#407BFF"></path><path d="M246,118.68s-26.05,13.95-38.25,15c-2,.17,2.05-10,2.05-10s-10.23,5-10.37,2.09c-.63-13.93,14.85-41.57,14.85-41.57S188.32,119.86,182.09,121c-2.09.36-5.75-14.37-5.75-14.37s-5.77,8.84-10.56,8.74c-1.87,0-15.63-33.84-15.63-33.84s5.86,38.34-.33,40.07-18.46-25.67-18.46-25.67,13.75,25.46,6.52,33.6S107,117.8,107,117.8s20,20.52,16.85,28.24-25.21,1.18-25.21,1.18a28.1,28.1,0,0,1,17.69,12.14c6.73,10.43-38.49,3-38.49,3S108.7,176.63,121,183.92c2.24,1.32-7.57,6.64-7.57,6.64s12.67.17,11,3.17c-5.12,9-19.38,22.88-19.38,22.88S133,208,136.77,212.08s-12.87,23.84-12.87,23.84,19.21-17.3,24.67-15S147,258.39,147,258.39s13.63-24.6,21-33.94c1.57-2,3.57,7.74,3.57,7.74s2.4-10.34,4-8.35c6.21,7.73,15.77,28.13,15.77,28.13s-3.51-22.33,4.69-26.71,27.4,14,27.4,14-12.16-18.2-16.26-28.54c-.86-2.16,6.92,2.36,6.92,2.36s-6-9.61-2.69-9c10.14,1.81,30.61,11.75,30.61,11.75s-11.82-14.91-18.19-24.39c-2.13-3.16,12.88-5.06,12.88-5.06s-14-5.2-9.18-6.8c9.19-3.06,24.23-5.74,31.27-6.91,0,0-30.78-2-35.27-9.17s11.9-14.12,11.9-14.12-9.3,5.43-13.74.84S246,118.68,246,118.68Z" style="fill:#fff;opacity:0.7000000000000001"></path><path d="M120.22,130.2s16,7.54,20.56,5.35,1.87-13.32,1.87-13.32,4.84,7,8.29,6.35,5.23-23.89,5.23-23.89,5.73,13,9.18,14.22,8.56-6.71,8.56-6.71,1.6,11.89,6.23,12.27,20.48-16.17,20.48-16.17-6.19,19.24-3.05,22,7.21-1,7.21-1-2.66,4.22-.57,7.32,20-2.93,20-2.93-10.7,12.6-10.34,16.91,9.51,3.49,9.51,3.49-7.11,1.77-6.34,7,18.79,9.09,18.79,9.09-14.4,4.1-15,7.73,6.5,5.32,6.5,5.32-10.67-.24-11.73,5.59,11.16,18.47,11.16,18.47-18.26-8.82-20.38-6.71,1.39,8.58,1.39,8.58-6.84-5.07-6.85-4.29,6.15,16.33,6.15,16.33-9.47-10.87-14.17-9-4.22,22-4.22,22-6.11-17.31-10.66-17.77-6.79,13.22-6.79,13.22,0-12.05-1.86-12.7-17.23,16-17.23,16,1.19-16.73-1.1-19.29-15.06,7.07-14.28,6.76,7.82-9.93,4.44-12.5-24.59,1.59-24.59,1.59,14-13.2,12.71-16.84-14.17-2.46-14.17-2.46,13.59-2.63,13-5.82-24.89-16.08-24.89-16.08,21.64-1.72,23.41-5.25-12.14-11.45-12.14-11.45,12.77,3.91,16.34-1.57S120.22,130.2,120.22,130.2Z" style="fill:#407BFF"></path><path d="M120.22,130.2s16,7.54,20.56,5.35,1.87-13.32,1.87-13.32,4.84,7,8.29,6.35,5.23-23.89,5.23-23.89,5.73,13,9.18,14.22,8.56-6.71,8.56-6.71,1.6,11.89,6.23,12.27,20.48-16.17,20.48-16.17-6.19,19.24-3.05,22,7.21-1,7.21-1-2.66,4.22-.57,7.32,20-2.93,20-2.93-10.7,12.6-10.34,16.91,9.51,3.49,9.51,3.49-7.11,1.77-6.34,7,18.79,9.09,18.79,9.09-14.4,4.1-15,7.73,6.5,5.32,6.5,5.32-10.67-.24-11.73,5.59,11.16,18.47,11.16,18.47-18.26-8.82-20.38-6.71,1.39,8.58,1.39,8.58-6.84-5.07-6.85-4.29,6.15,16.33,6.15,16.33-9.47-10.87-14.17-9-4.22,22-4.22,22-6.11-17.31-10.66-17.77-6.79,13.22-6.79,13.22,0-12.05-1.86-12.7-17.23,16-17.23,16,1.19-16.73-1.1-19.29-15.06,7.07-14.28,6.76,7.82-9.93,4.44-12.5-24.59,1.59-24.59,1.59,14-13.2,12.71-16.84-14.17-2.46-14.17-2.46,13.59-2.63,13-5.82-24.89-16.08-24.89-16.08,21.64-1.72,23.41-5.25-12.14-11.45-12.14-11.45,12.77,3.91,16.34-1.57S120.22,130.2,120.22,130.2Z" style="fill:#fafafa;opacity:0.5"></path><path d="M158.7,120.11s4.52,7.11,8.73,6.5,4.39-3.51,4.39-3.51,1.58,3.75,7.13,5.19,13.16-7.49,13.16-7.49-2.7,10.58.38,12.56,7.42-.05,7.42-.05a8.46,8.46,0,0,0,1.9,7.38c3,3.48,12-1.76,12-1.76s-7.87,5.55-5.47,10.64A7.78,7.78,0,0,0,216,154s-4.71,1.15-3.87,4.9,3.3,7.95,9.19,10.51c0,0-5.51,3.79-7,6.59s2.65,4.08,2.65,4.08-3.83-1.58-4.86,1.62-1.14,7.79,2.71,14.44c0,0-6.17-4.62-9.34-.77s-2.53,6.34-2.53,6.34a3.31,3.31,0,0,0-4.51.66c-2.33,2.37-.18,6.47-.18,6.47s-3-3.16-6.06-1.56-7.24,5.7-6.59,11.54c0,0-4.92-6.72-8.45-6.35a5.22,5.22,0,0,0-4.44,3.57s-.16-3-2.31-3.12-10.33,3.44-13.23,7.37c0,0-.09-9.17-4.13-11.31s-8.59,1.28-8.59,1.28,3.17-4,.66-6.06-16.62-1-16.62-1,6.53-8.37,4.68-12.76a5,5,0,0,0-6-3.19s4.29-1.47,3.33-3.79-3.15-9-12.59-13.41c0,0,10-3,10.92-7.82a9.39,9.39,0,0,0-2-7.9s3.38.74,5.43-3.45,3.14-9.26-.88-13c0,0,8.77,2.6,11.65-.07s2.7-8.17,2.7-8.17,3.1,2.88,6.77,1.12C157.93,128.34,158.7,120.11,158.7,120.11Z" style="fill:#407BFF"></path><path d="M158.7,120.11s4.52,7.11,8.73,6.5,4.39-3.51,4.39-3.51,1.58,3.75,7.13,5.19,13.16-7.49,13.16-7.49-2.7,10.58.38,12.56,7.42-.05,7.42-.05a8.46,8.46,0,0,0,1.9,7.38c3,3.48,12-1.76,12-1.76s-7.87,5.55-5.47,10.64A7.78,7.78,0,0,0,216,154s-4.71,1.15-3.87,4.9,3.3,7.95,9.19,10.51c0,0-5.51,3.79-7,6.59s2.65,4.08,2.65,4.08-3.83-1.58-4.86,1.62-1.14,7.79,2.71,14.44c0,0-6.17-4.62-9.34-.77s-2.53,6.34-2.53,6.34a3.31,3.31,0,0,0-4.51.66c-2.33,2.37-.18,6.47-.18,6.47s-3-3.16-6.06-1.56-7.24,5.7-6.59,11.54c0,0-4.92-6.72-8.45-6.35a5.22,5.22,0,0,0-4.44,3.57s-.16-3-2.31-3.12-10.33,3.44-13.23,7.37c0,0-.09-9.17-4.13-11.31s-8.59,1.28-8.59,1.28,3.17-4,.66-6.06-16.62-1-16.62-1,6.53-8.37,4.68-12.76a5,5,0,0,0-6-3.19s4.29-1.47,3.33-3.79-3.15-9-12.59-13.41c0,0,10-3,10.92-7.82a9.39,9.39,0,0,0-2-7.9s3.38.74,5.43-3.45,3.14-9.26-.88-13c0,0,8.77,2.6,11.65-.07s2.7-8.17,2.7-8.17,3.1,2.88,6.77,1.12C157.93,128.34,158.7,120.11,158.7,120.11Z" style="fill:#fafafa;opacity:0.30000000000000004"></path><path d="M211.27,164.55c1,1.85,1.62,3.45.73,5.5a21.16,21.16,0,0,0-1.65,3.75c-.33,1.49.05,3,.08,4.58,0,1.94-1.64,3.16-1.65,5.05,0,1.72,1.43,3.47.62,5s-3.37,1.31-4.62,2.62a6.91,6.91,0,0,0-1.13,2.27c-1.31,3.16-4.43,3.59-6.39,6-1.27,1.57-1.89,3.06-3.84,4-3.72,1.8-7,4.39-10.92,5.86-4.52,1.71-7.77.27-12.24-.09-3-.24-6.14,1.69-9,.25-1.49-.73-2.14-1.89-3.72-2.42-2-.65-4-.68-5.85-1.66-1.73-.9-3.22-2.26-5-3-1.56-.62-3.48-.85-4.42-2.25s-.41-3.8-1.57-5.22c-.79-1-2.14-1.23-3.25-1.8-3.32-1.69-4.88-8-5.47-11.34-.79-4.52-6.6-8.63-4-13.5.64-1.22,1.58-2.25,2.31-3.42a14.31,14.31,0,0,0,1.87-7c.13-2.72,2.77-4.78,3.57-7.3s1.27-5.92,3.43-7.89c1.76-1.61,4.05-2.45,6.14-3.53a10.34,10.34,0,0,0,2.79-1.75c.62-.62.76-1.6,1.52-2.18,2.23-1.7,5-1.25,7.26-3.18,1.58-1.37,3.73-4.06,6.13-3.43,3,.78,5.68,2.62,8.76.83,1.87-1.08,2.87-.15,4.4.89a8.27,8.27,0,0,0,8.39,1.12,5.1,5.1,0,0,1,2.9-.34c1.68.43,2.25,2.81,3.53,3.91,1.53,1.31,3.51,2,5.21,3,2,1.21,2.86,2.75,3.93,4.73,1.38,2.56,4.48,3,5.55,5.81.77,2,.64,4.29,1.51,6.31,1.31,3.05,2.43,6.32,3.93,9.28Z" style="fill:#407BFF"></path><path d="M211.27,164.55c1,1.85,1.62,3.45.73,5.5a21.16,21.16,0,0,0-1.65,3.75c-.33,1.49.05,3,.08,4.58,0,1.94-1.64,3.16-1.65,5.05,0,1.72,1.43,3.47.62,5s-3.37,1.31-4.62,2.62a6.91,6.91,0,0,0-1.13,2.27c-1.31,3.16-4.43,3.59-6.39,6-1.27,1.57-1.89,3.06-3.84,4-3.72,1.8-7,4.39-10.92,5.86-4.52,1.71-7.77.27-12.24-.09-3-.24-6.14,1.69-9,.25-1.49-.73-2.14-1.89-3.72-2.42-2-.65-4-.68-5.85-1.66-1.73-.9-3.22-2.26-5-3-1.56-.62-3.48-.85-4.42-2.25s-.41-3.8-1.57-5.22c-.79-1-2.14-1.23-3.25-1.8-3.32-1.69-4.88-8-5.47-11.34-.79-4.52-6.6-8.63-4-13.5.64-1.22,1.58-2.25,2.31-3.42a14.31,14.31,0,0,0,1.87-7c.13-2.72,2.77-4.78,3.57-7.3s1.27-5.92,3.43-7.89c1.76-1.61,4.05-2.45,6.14-3.53a10.34,10.34,0,0,0,2.79-1.75c.62-.62.76-1.6,1.52-2.18,2.23-1.7,5-1.25,7.26-3.18,1.58-1.37,3.73-4.06,6.13-3.43,3,.78,5.68,2.62,8.76.83,1.87-1.08,2.87-.15,4.4.89a8.27,8.27,0,0,0,8.39,1.12,5.1,5.1,0,0,1,2.9-.34c1.68.43,2.25,2.81,3.53,3.91,1.53,1.31,3.51,2,5.21,3,2,1.21,2.86,2.75,3.93,4.73,1.38,2.56,4.48,3,5.55,5.81.77,2,.64,4.29,1.51,6.31,1.31,3.05,2.43,6.32,3.93,9.28Z" style="fill:#fafafa;opacity:0.15"></path><circle cx="170.97" cy="169.66" r="37.66" transform="translate(-69.89 170.59) rotate(-45)" style="fill:#407BFF"></circle></g><g id="freepik--Arrows--inject-9"><rect x="238.04" y="202.04" width="5" height="84.63" transform="translate(-98.41 296.15) rotate(-54.14)" style="fill:#407BFF"></rect><polygon points="270.73 272.33 280.65 273.35 276.57 264.25 270.73 272.33" style="fill:#407BFF"></polygon><rect x="256.46" y="193.76" width="5" height="73.49" transform="translate(-79.56 305.33) rotate(-54.14)" style="fill:#407BFF"></rect><polygon points="284.63 255.21 294.55 256.23 290.47 247.13 284.63 255.21" style="fill:#407BFF"></polygon><rect x="276.11" y="184.7" width="5" height="70.46" transform="translate(-62.85 316.88) rotate(-54.14)" style="fill:#407BFF"></rect><polygon points="303.06 243.75 312.98 244.77 308.9 235.67 303.06 243.75" style="fill:#407BFF"></polygon><rect x="300.88" y="172.4" width="5" height="81.02" transform="matrix(0.59, -0.81, 0.81, 0.59, -46.9, 334.05)" style="fill:#407BFF"></rect><polygon points="332.11 239.83 342.03 240.84 337.95 231.74 332.11 239.83" style="fill:#407BFF"></polygon><polygon points="217.46 293.38 216.41 288.49 254.43 280.35 184.5 231.59 187.36 227.49 266.73 282.82 217.46 293.38" style="fill:#407BFF"></polygon><polygon points="217.31 285.75 209.91 292.44 219.4 295.51 217.31 285.75" style="fill:#407BFF"></polygon><polygon points="365.41 236.62 288.06 182.68 290.91 178.58 362.84 228.73 375.46 192.03 380.19 193.66 365.41 236.62" style="fill:#407BFF"></polygon><polygon points="382.06 195.85 380.15 186.06 372.63 192.6 382.06 195.85" style="fill:#407BFF"></polygon></g><g id="freepik--Moon--inject-9"><circle cx="206.25" cy="334.38" r="20.57" transform="translate(-166.57 458.29) rotate(-76.72)" style="fill:#263238"></circle><circle cx="206.25" cy="334.38" r="20.57" transform="translate(-166.57 458.29) rotate(-76.72)" style="fill:#fff;opacity:0.8"></circle><path d="M193,327.06c-.82-.93.57-3.49,3.11-5.71s5.26-3.25,6.08-2.31-.57,3.5-3.11,5.71S193.77,328,193,327.06Z" style="opacity:0.30000000000000004"></path><path d="M193.22,327.37c-.68-.77.84-3.19,3.38-5.41s5.14-3.38,5.81-2.61-.84,3.19-3.38,5.4S193.89,328.14,193.22,327.37Z" style="fill:#fff;opacity:0.4"></path><path d="M214.29,340.07c2.5.81,3.63,4.24,2.53,7.66s-4,5.55-6.52,4.74-3.64-4.23-2.54-7.65S211.78,339.27,214.29,340.07Z" style="opacity:0.30000000000000004"></path><ellipse cx="211.87" cy="346.14" rx="6.51" ry="4.31" transform="translate(-182.51 441.87) rotate(-72.17)" style="fill:#fff;opacity:0.4"></ellipse><path d="M216.28,336.81a1.18,1.18,0,0,1,.52,1.55c-.23.69-.82,1.12-1.32,1a1.19,1.19,0,0,1-.52-1.55C215.19,337.07,215.78,336.64,216.28,336.81Z" style="opacity:0.30000000000000004"></path><path d="M216,336.73c.37.12.49.78.27,1.47s-.71,1.16-1.08,1-.49-.78-.27-1.47S215.67,336.61,216,336.73Z" style="fill:#fff;opacity:0.4"></path><path d="M214.61,320.2c.59-.58,2-.12,3.12,1s1.58,2.55,1,3.14-2,.12-3.12-1S214,320.79,214.61,320.2Z" style="opacity:0.30000000000000004"></path><path d="M214.42,320.39c.48-.47,1.79.07,2.93,1.22s1.66,2.47,1.18,2.95-1.8-.07-2.93-1.22S213.94,320.87,214.42,320.39Z" style="fill:#fff;opacity:0.4"></path><path d="M224.72,330.78c.69,0,1.23,1.13,1.19,2.49s-.62,2.44-1.32,2.42-1.23-1.13-1.19-2.48S224,330.77,224.72,330.78Z" style="opacity:0.30000000000000004"></path><path d="M224.49,330.78c.57,0,1,1.12,1,2.48s-.53,2.44-1.1,2.43-1-1.13-1-2.48S223.92,330.76,224.49,330.78Z" style="fill:#fff;opacity:0.4"></path><path d="M191.79,349s16.48,8.52,26.87-1.58c8.86-8.61,4.27-25.1,4.27-25.1A20.57,20.57,0,0,1,191.79,349Z" style="opacity:0.2"></path><path d="M192.42,330.28c-.58-.18-1.35.6-1.72,1.76s-.19,2.23.39,2.42,1.35-.6,1.72-1.76S193,330.47,192.42,330.28Z" style="opacity:0.30000000000000004"></path><path d="M192.61,330.34c-.48-.15-1.16.66-1.53,1.82s-.27,2.21.2,2.36,1.16-.66,1.53-1.82S193.09,330.49,192.61,330.34Z" style="fill:#fff;opacity:0.4"></path><path d="M196.32,348.09c-.95.7-2.89-.31-4.34-2.26s-1.86-4.1-.91-4.8,2.88.31,4.33,2.26S197.26,347.39,196.32,348.09Z" style="opacity:0.30000000000000004"></path><path d="M196.62,347.86c-.77.58-2.57-.54-4-2.49s-2-4-1.23-4.57,2.58.54,4,2.49S197.4,347.29,196.62,347.86Z" style="fill:#fff;opacity:0.4"></path></g></svg>
