<svg xmlns="http://www.w3.org/2000/svg" viewBox="0 0 500 500"><g id="freepik--background-complete--inject-66"><path d="M462.37,257.78s0-1.18-.11-3.48q0-1.73-.12-4.29c0-.85-.05-1.77-.08-2.76s-.14-2-.22-3.16c-.17-2.24-.37-4.74-.58-7.5s-.72-5.76-1.12-9a225,225,0,0,0-4.35-22.23c-.47-2.08-1.15-4.17-1.74-6.34l-.94-3.29-.48-1.67c-.18-.56-.37-1.11-.56-1.67-.76-2.25-1.54-4.54-2.34-6.89-.37-1.18-.84-2.35-1.31-3.53s-.94-2.37-1.41-3.58a207.24,207.24,0,0,0-14.93-30.23,216.57,216.57,0,0,0-54.48-61,214,214,0,0,0-90.29-40.1l-6.64-1.18L273.92,45c-4.51-.68-9.11-.87-13.72-1.26-1.15-.11-2.31-.14-3.47-.16l-3.49-.09-3.51-.08c-1.17,0-2.34-.07-3.52,0-4.7.15-9.44.13-14.19.6a213.55,213.55,0,0,0-28.74,4l-7.2,1.66-1.81.42-1.79.5-3.58,1c-4.81,1.26-9.52,3-14.3,4.58-2.36.86-4.69,1.83-7.06,2.75-1.17.47-2.36.92-3.53,1.41l-3.48,1.57L157,63.49c-1.16.53-2.34,1-3.47,1.64l-6.87,3.52a226.05,226.05,0,0,0-26.41,16.72,236.2,236.2,0,0,0-24.2,20.84,230.92,230.92,0,0,0-21.18,24.72l-4.78,6.71q-2.23,3.48-4.48,7c-1.54,2.3-2.83,4.76-4.24,7.15l-2.07,3.61c-.66,1.22-1.28,2.47-1.92,3.71l-1.91,3.72-.95,1.87c-.31.63-.58,1.27-.87,1.91-1.16,2.55-2.31,5.1-3.47,7.66s-2.06,5.23-3.1,7.85l-.77,2-.68,2-1.36,4-1.36,4-1.16,4.09-1.17,4.11-.57,2-.48,2.08-1.92,8.35c-.5,2.82-1,5.64-1.51,8.46a231.59,231.59,0,0,0-2.81,34.51,231.83,231.83,0,0,0,2.8,34.52c.5,2.82,1,5.64,1.51,8.46s1.28,5.57,1.91,8.35l.49,2.08c.17.69.38,1.38.57,2.06l1.16,4.1,1.17,4.1,1.35,4,1.36,4,.68,2,.78,2c1,2.63,2.07,5.24,3.1,7.86s2.31,5.11,3.46,7.66l.87,1.91,1,1.87,1.91,3.72,1.91,3.72,2.08,3.61c1.41,2.39,2.69,4.85,4.24,7.15l4.48,7,4.77,6.71a230.15,230.15,0,0,0,21.19,24.73,233.91,233.91,0,0,0,24.2,20.84,224.94,224.94,0,0,0,26.42,16.73l6.87,3.52c1.13.61,2.31,1.11,3.47,1.64l3.49,1.58,3.48,1.57c1.17.5,2.36.94,3.53,1.41,2.37.92,4.7,1.89,7.06,2.76,4.78,1.59,9.49,3.31,14.3,4.57l3.59,1,1.79.5,1.8.41,7.2,1.67a213.74,213.74,0,0,0,28.74,4c4.76.47,9.5.45,14.2.6,1.18.05,2.35,0,3.52,0l3.51-.09,3.49-.09c1.16,0,2.32-.05,3.47-.16,4.62-.39,9.21-.58,13.72-1.26,2.26-.29,4.51-.56,6.75-.87l6.64-1.18a213.93,213.93,0,0,0,90.3-40.1,217.09,217.09,0,0,0,54.47-61A207.22,207.22,0,0,0,447,337.18c.48-1.21.95-2.4,1.41-3.58s.94-2.34,1.32-3.53q1.18-3.52,2.33-6.88l.57-1.67c.16-.57.31-1.12.47-1.68l.94-3.29c.59-2.17,1.27-4.25,1.74-6.33A225.74,225.74,0,0,0,460.14,288c.4-3.25.84-6.25,1.12-9s.41-5.27.58-7.5c.08-1.12.2-2.17.22-3.16s.05-1.91.08-2.76q.08-2.57.12-4.29c.07-2.3.11-3.48.11-3.48s0,1.18-.06,3.48c0,1.15-.05,2.59-.09,4.29,0,.85,0,1.77-.07,2.76s-.13,2-.2,3.16c-.17,2.24-.36,4.75-.56,7.51s-.7,5.76-1.1,9a225.13,225.13,0,0,1-4.3,22.26c-.47,2.08-1.15,4.17-1.73,6.34l-.94,3.29c-.15.56-.31,1.12-.47,1.68l-.56,1.68q-1.14,3.36-2.33,6.89c-.38,1.19-.84,2.36-1.31,3.54s-.93,2.37-1.41,3.58a206.42,206.42,0,0,1-14.9,30.29,216.86,216.86,0,0,1-54.5,61.14,214.35,214.35,0,0,1-90.44,40.23l-6.65,1.19c-2.24.32-4.5.58-6.77.88-4.51.68-9.12.88-13.74,1.26-1.16.12-2.32.14-3.48.17l-3.5.09-3.52.09c-1.17,0-2.34.06-3.52,0-4.71-.15-9.47-.12-14.23-.59a215,215,0,0,1-28.81-4L196,466.35l-1.81-.41-1.8-.51-3.59-1c-4.82-1.26-9.54-3-14.33-4.58-2.37-.87-4.71-1.84-7.08-2.76-1.18-.47-2.37-.92-3.54-1.41l-3.49-1.58-3.5-1.58c-1.16-.53-2.35-1-3.48-1.64l-6.88-3.53A226,226,0,0,1,120,430.58,236,236,0,0,1,95.72,409.7a232.4,232.4,0,0,1-21.24-24.79l-4.79-6.73-4.49-7c-1.55-2.3-2.83-4.77-4.25-7.17l-2.08-3.62L57,356.7,55,353l-1-1.87-.87-1.92-3.48-7.68q-1.54-3.93-3.11-7.88l-.77-2-.68-2-1.37-4-1.36-4-1.16-4.1-1.17-4.12c-.19-.68-.4-1.37-.58-2.06l-.48-2.08-1.92-8.38c-.5-2.82-1-5.65-1.51-8.48a231.47,231.47,0,0,1-2.81-34.6,231.45,231.45,0,0,1,2.82-34.59c.5-2.83,1-5.66,1.51-8.48s1.28-5.58,1.92-8.37l.48-2.09.58-2.06,1.17-4.11,1.16-4.1,1.37-4,1.36-4,.68-2,.78-2c1-2.63,2.07-5.25,3.11-7.87l3.47-7.68c.29-.64.57-1.28.88-1.91l.95-1.87L57,158.83c.64-1.24,1.26-2.49,1.92-3.72L61,151.49c1.41-2.39,2.7-4.86,4.25-7.16l4.49-7,4.78-6.73a232.28,232.28,0,0,1,21.24-24.78A236,236,0,0,1,120,85a227.13,227.13,0,0,1,26.48-16.75l6.89-3.53c1.13-.61,2.31-1.11,3.48-1.64l3.49-1.58,3.49-1.58c1.17-.49,2.36-.94,3.54-1.41,2.37-.92,4.71-1.89,7.08-2.75,4.79-1.6,9.5-3.33,14.33-4.58l3.59-1,1.79-.5,1.82-.42,7.21-1.66a213,213,0,0,1,28.8-4c4.77-.47,9.52-.45,14.23-.6,1.18,0,2.35,0,3.52,0l3.52.09,3.5.08c1.16,0,2.32.06,3.48.17,4.62.39,9.22.58,13.74,1.26l6.76.88,6.66,1.19a214.5,214.5,0,0,1,90.44,40.22A216.86,216.86,0,0,1,432.33,148a206.52,206.52,0,0,1,14.91,30.29c.47,1.21.94,2.4,1.41,3.59s.93,2.34,1.31,3.53c.79,2.35,1.57,4.65,2.32,6.9l.57,1.67c.16.56.31,1.12.47,1.68.32,1.11.63,2.21.93,3.29.59,2.18,1.27,4.27,1.74,6.35a224,224,0,0,1,4.3,22.26c.4,3.26.83,6.27,1.1,9s.39,5.27.56,7.51c.07,1.12.18,2.17.2,3.16s.05,1.91.07,2.76q.06,2.56.09,4.29C462.36,256.6,462.37,257.78,462.37,257.78Z" style="fill:#e0e0e0"></path><path d="M444.94,257.78s-.05-1.08-.11-3.2c0-1.06-.07-2.37-.11-3.93,0-.79-.05-1.63-.07-2.54s-.14-1.88-.21-2.9q-.24-3.09-.53-6.9c-.26-2.53-.66-5.29-1-8.28-.84-6-2.14-12.82-4-20.43-.43-1.91-1.06-3.83-1.6-5.82-.29-1-.57-2-.86-3-.15-.51-.29-1-.44-1.54s-.35-1-.52-1.54c-.7-2.06-1.41-4.17-2.15-6.32-.34-1.09-.77-2.16-1.2-3.24l-1.3-3.29a190.35,190.35,0,0,0-13.71-27.78A199.38,199.38,0,0,0,367,101a196.65,196.65,0,0,0-83-36.83L278,63.1l-6.2-.8c-4.14-.62-8.37-.8-12.6-1.15-1.06-.1-2.13-.13-3.2-.15l-3.2-.08-3.22-.08c-1.08,0-2.16-.06-3.24,0-4.31.14-8.67.12-13,.55a196.66,196.66,0,0,0-26.4,3.69l-6.61,1.52-1.66.39-1.64.46-3.29.93c-4.43,1.16-8.75,2.74-13.14,4.2A210.52,210.52,0,0,0,154.92,84a207.29,207.29,0,0,0-24.27,15.36,217.72,217.72,0,0,0-22.23,19.15A212.69,212.69,0,0,0,89,141.25l-4.38,6.17-4.12,6.39c-1.42,2.1-2.6,4.36-3.89,6.56l-1.91,3.32c-.6,1.13-1.17,2.27-1.76,3.41l-1.75,3.42-.88,1.71c-.28.58-.53,1.17-.8,1.76-1.06,2.34-2.12,4.68-3.18,7l-2.85,7.21-.72,1.81-.62,1.84-1.25,3.69-1.25,3.7L58.54,203l-1.07,3.77-.53,1.89-.44,1.91q-.89,3.82-1.76,7.67-.7,3.89-1.39,7.77a196.47,196.47,0,0,0,0,63.41c.46,2.6.93,5.19,1.39,7.78s1.17,5.12,1.76,7.67l.44,1.91c.16.64.35,1.26.52,1.89l1.07,3.77,1.07,3.76,1.25,3.7,1.25,3.7.62,1.84.71,1.81c1,2.41,1.9,4.81,2.85,7.21l3.19,7.05.8,1.75.87,1.71,1.76,3.43,1.75,3.41,1.91,3.32c1.3,2.19,2.48,4.45,3.9,6.56l4.11,6.4L89,374.3A212.52,212.52,0,0,0,108.41,397a216.48,216.48,0,0,0,22.23,19.15A197.59,197.59,0,0,0,180.55,443c4.39,1.47,8.71,3.05,13.14,4.2l3.29.94,1.64.46,1.66.38,6.61,1.53a195.17,195.17,0,0,0,26.41,3.68c4.37.44,8.73.42,13,.55,1.08,0,2.16,0,3.24,0l3.22-.08,3.2-.08c1.07,0,2.14,0,3.2-.15,4.23-.35,8.46-.53,12.6-1.15l6.2-.8,6.1-1.09a196.35,196.35,0,0,0,82.95-36.84,199.13,199.13,0,0,0,50.05-56,189.75,189.75,0,0,0,13.71-27.77l1.3-3.29c.44-1.09.86-2.16,1.21-3.24q1.1-3.24,2.14-6.33c.18-.51.35-1,.52-1.53s.29-1,.44-1.54l.86-3c.54-2,1.17-3.91,1.6-5.83,1.86-7.6,3.16-14.45,4-20.42.37-3,.77-5.75,1-8.28s.37-4.84.53-6.9c.07-1,.18-2,.21-2.9s.05-1.75.07-2.53c0-1.57.08-2.88.11-3.94.06-2.12.11-3.2.11-3.2s0,1.08-.06,3.2c0,1.06-.05,2.37-.08,3.94,0,.78,0,1.63-.06,2.54s-.13,1.87-.19,2.9c-.15,2.06-.33,4.36-.51,6.9s-.65,5.3-1,8.29A205.75,205.75,0,0,1,439.08,306c-.43,1.92-1.05,3.84-1.59,5.83-.29,1-.57,2-.86,3-.14.51-.29,1-.44,1.54l-.51,1.54q-1.05,3.09-2.14,6.34c-.34,1.09-.77,2.16-1.2,3.24l-1.3,3.3a189,189,0,0,1-13.69,27.83,199.42,199.42,0,0,1-50.07,56.18,197,197,0,0,1-83.1,37l-6.11,1.1-6.22.8c-4.15.63-8.38.81-12.63,1.17-1.06.1-2.13.13-3.2.15l-3.21.08-3.23.08c-1.08,0-2.16.06-3.24,0-4.33-.14-8.7-.12-13.07-.55A195.81,195.81,0,0,1,206.8,451l-6.63-1.53L198.5,449l-1.64-.46-3.3-.93c-4.44-1.16-8.77-2.74-13.17-4.21A210.19,210.19,0,0,1,154.68,432a207.85,207.85,0,0,1-24.33-15.4,215.34,215.34,0,0,1-22.3-19.19A212.65,212.65,0,0,1,88.54,374.6l-4.4-6.19L80,362c-1.42-2.11-2.6-4.38-3.9-6.58l-1.92-3.33-1.76-3.42-1.76-3.43-.88-1.72-.8-1.75-3.19-7.06c-1-2.41-1.91-4.82-2.86-7.24l-.71-1.81-.63-1.85-1.25-3.7L59.1,316.4,58,312.62,57,308.85c-.17-.64-.36-1.26-.53-1.9L56,305q-.87-3.84-1.76-7.69c-.46-2.59-.93-5.19-1.39-7.8a212.67,212.67,0,0,1-2.58-31.79A212.54,212.54,0,0,1,52.84,226q.69-3.9,1.39-7.79c.59-2.57,1.17-5.13,1.76-7.69l.44-1.92.53-1.89L58,202.9l1.07-3.77,1.25-3.71,1.25-3.7.63-1.85.71-1.81q1.44-3.63,2.86-7.24c1.07-2.35,2.13-4.71,3.19-7,.27-.59.53-1.18.81-1.76l.88-1.72,1.75-3.43c.59-1.14,1.16-2.29,1.77-3.42l1.91-3.32c1.3-2.21,2.48-4.47,3.91-6.58l4.12-6.41,4.4-6.18a212.65,212.65,0,0,1,19.51-22.77A217.42,217.42,0,0,1,130.35,99a197.89,197.89,0,0,1,50-26.88c4.4-1.47,8.73-3.05,13.17-4.2l3.29-.94,1.65-.46,1.67-.39,6.62-1.52a197.67,197.67,0,0,1,26.47-3.69c4.38-.43,8.74-.41,13.07-.54,1.08-.05,2.16,0,3.24,0l3.23.08,3.21.08c1.07,0,2.14.05,3.2.15,4.25.36,8.48.54,12.63,1.17l6.22.8,6.11,1.1a196.7,196.7,0,0,1,83.1,37,199.47,199.47,0,0,1,50.08,56.17A190.65,190.65,0,0,1,431,184.74c.44,1.11.87,2.2,1.29,3.29s.86,2.16,1.21,3.25q1.09,3.24,2.14,6.33l.51,1.54c.15.52.29,1,.44,1.54l.85,3c.54,2,1.17,3.92,1.6,5.83A205.9,205.9,0,0,1,443,230c.36,3,.76,5.75,1,8.29s.36,4.84.51,6.9c.06,1,.17,2,.19,2.9s0,1.76.06,2.54c0,1.57.06,2.88.08,3.94C444.93,256.7,444.94,257.78,444.94,257.78Z" style="fill:#e0e0e0"></path><polygon points="37.99 106.35 35.06 101.78 40.02 104.06 41.72 98.65 42.96 103.87 48.44 101.84 45.17 106.35 50.01 109.28 44.46 109.28 45.04 114.9 41.52 110.66 37.93 114.9 38.71 109.42 33.23 109.16 37.99 106.35" style="fill:#e0e0e0"></polygon><polygon points="125.33 35.57 122.39 31 127.35 33.29 129.04 27.87 130.29 33.09 135.77 31.07 132.5 35.57 137.34 38.51 131.79 38.51 132.37 44.12 128.85 39.88 125.26 44.12 126.04 38.64 120.56 38.38 125.33 35.57" style="fill:#e0e0e0"></polygon><polygon points="456.25 37.42 454.56 34.8 457.41 36.11 458.38 32.99 459.1 35.99 462.25 34.83 460.37 37.42 463.14 39.11 459.96 39.11 460.3 42.33 458.27 39.89 456.21 42.33 456.66 39.18 453.51 39.03 456.25 37.42" style="fill:#e0e0e0"></polygon><polygon points="41.33 39.4 39.64 36.78 42.49 38.09 43.47 34.98 44.18 37.98 47.33 36.82 45.45 39.4 48.23 41.09 45.04 41.09 45.38 44.32 43.36 41.88 41.29 44.32 41.74 41.17 38.59 41.02 41.33 39.4" style="fill:#e0e0e0"></polygon><polygon points="34.79 370.21 32.95 367.35 36.06 368.78 37.13 365.38 37.91 368.66 41.34 367.39 39.3 370.21 42.33 372.06 38.85 372.06 39.22 375.58 37 372.92 34.75 375.58 35.24 372.14 31.8 371.97 34.79 370.21" style="fill:#e0e0e0"></polygon><polygon points="360.82 468.24 357.65 463.31 363.01 465.77 364.84 459.92 366.18 465.56 372.1 463.38 368.58 468.24 373.8 471.42 367.8 471.42 368.44 477.48 364.63 472.9 360.75 477.48 361.6 471.56 355.68 471.27 360.82 468.24" style="fill:#e0e0e0"></polygon><polygon points="349.94 35.54 346.77 30.6 352.12 33.07 353.96 27.22 355.3 32.86 361.22 30.67 357.69 35.54 362.91 38.71 356.92 38.71 357.55 44.77 353.75 40.19 349.87 44.77 350.71 38.85 344.79 38.57 349.94 35.54" style="fill:#e0e0e0"></polygon><polygon points="438.63 462.45 436.52 459.16 440.09 460.8 441.31 456.9 442.2 460.66 446.15 459.21 443.8 462.45 447.28 464.56 443.29 464.56 443.71 468.61 441.17 465.55 438.58 468.61 439.15 464.66 435.2 464.47 438.63 462.45" style="fill:#e0e0e0"></polygon><polygon points="445.64 402.98 443.52 399.69 447.1 401.34 448.32 397.43 449.21 401.19 453.16 399.74 450.81 402.98 454.29 405.1 450.29 405.1 450.72 409.14 448.18 406.08 445.59 409.14 446.16 405.19 442.21 405 445.64 402.98" style="fill:#e0e0e0"></polygon><polygon points="470.99 321.91 468.88 318.62 472.45 320.26 473.67 316.36 474.56 320.12 478.51 318.67 476.16 321.91 479.64 324.02 475.64 324.02 476.07 328.07 473.53 325.01 470.94 328.07 471.51 324.12 467.56 323.93 470.99 321.91" style="fill:#e0e0e0"></polygon><polygon points="455.52 100.81 453.41 97.52 456.98 99.16 458.2 95.26 459.1 99.02 463.04 97.56 460.69 100.81 464.17 102.92 460.18 102.92 460.6 106.97 458.06 103.91 455.48 106.97 456.04 103.02 452.09 102.83 455.52 100.81" style="fill:#e0e0e0"></polygon><polygon points="103.33 472.46 100.41 467.92 105.34 470.19 107.03 464.8 108.26 469.99 113.71 467.98 110.47 472.46 115.27 475.38 109.75 475.38 110.34 480.96 106.83 476.74 103.26 480.96 104.04 475.51 98.59 475.25 103.33 472.46" style="fill:#e0e0e0"></polygon><path d="M256.38,472.43a5.69,5.69,0,1,1-5.69-5.68A5.69,5.69,0,0,1,256.38,472.43Z" style="fill:#e0e0e0"></path><circle cx="33.07" cy="258.15" r="5.69" style="fill:#e0e0e0"></circle><circle cx="464.78" cy="258.15" r="5.69" style="fill:#e0e0e0"></circle><path d="M253.86,27.74a5.69,5.69,0,1,1-5.69-5.69A5.68,5.68,0,0,1,253.86,27.74Z" style="fill:#e0e0e0"></path><path d="M438.05,164.18c-4.84,11.73-15.48,20.38-27.16,22.08s-24-3.62-31.5-13.57c1.62,7.07-6.5,14.14-12.44,10.84,2.3,20.83-9.89,42.52-27.94,49.7s-40.16-.88-50.65-18.46c-14.73,2.33-30.4-6.33-37.4-20.68-7.8,10.26-22.53,13.25-33.19,6.73-.4,13.58-11.09,25.28-23.3,27.86s-25.1-2.91-34.13-12.25-14.57-22.12-17.79-35.24c-18.3,5.87-39.58-1.79-51.1-18.39a44.45,44.45,0,0,1-21.91,8.35c-9,.9-18.85-3.29-27-7.48,0,0-13.64-7.21-14.47-7l13-.58c8.45-1.47,9.55-8.28,14.32-11.88,9.47-7.17,20.51-1.15,23.09,6.11,4.34-12.91,10.12-21.5,22-26.13a40.55,40.55,0,0,1,36.43,3.77c6.43-16.86,28-24.16,42-14.21C184.28,84,207.46,59,234.79,53.6s57,9.13,71.57,35a26.18,26.18,0,0,1,25.13,5.64c6.88,6.16,10.73,16.14,10,25.82,16.08-7.07,33.85-.25,47.42,11.53,8.75-15.69,43.14-11.93,52.41,14.92,0,0,14.43,8.95,32,6.09C473.32,152.58,465.66,168.44,438.05,164.18Z" style="fill:#ebebeb"></path><path d="M121.12,153.82a4.55,4.55,0,0,0,2.61,5.07,3.6,3.6,0,0,0,3.14-.26,5.64,5.64,0,0,0,2.43-2.95c1-2.62-.08-6.33-3-8.37a8,8,0,0,0-5.24-1.4,9.11,9.11,0,0,0-5.43,2.31c-3.09,2.81-4.25,7.83-2.92,12.31a12.57,12.57,0,0,0,3.91,5.91,12,12,0,0,0,14.22,1.21,15.3,15.3,0,0,0,5.58-5.63,15,15,0,0,0,2-7.68,22,22,0,0,0-1.44-7.66,28.31,28.31,0,0,0-8.58-11.9,26.06,26.06,0,0,0-12.06-5.6,23.12,23.12,0,0,0-6.07-.25,25.35,25.35,0,0,0-5.48,1.19,27.84,27.84,0,0,0-8.41,4.71A29.35,29.35,0,0,0,89,144.1q-.34.68-.54,1.08a2.14,2.14,0,0,1-.2.36,2.09,2.09,0,0,1,.15-.38l.49-1.11a29,29,0,0,1,2.36-4,28.4,28.4,0,0,1,5-5.42,27.74,27.74,0,0,1,8.47-4.84,25.37,25.37,0,0,1,5.56-1.24,23.08,23.08,0,0,1,6.18.23,26.46,26.46,0,0,1,12.29,5.64,28.81,28.81,0,0,1,8.76,12.11,22.59,22.59,0,0,1,1.48,7.83,15.68,15.68,0,0,1-2.07,7.94,15.87,15.87,0,0,1-5.77,5.82,12.91,12.91,0,0,1-18.85-7.44c-1.36-4.65-.16-9.81,3.09-12.76a9.56,9.56,0,0,1,5.69-2.39,8.43,8.43,0,0,1,5.48,1.5c3,2.16,4.16,6,3,8.77a5.91,5.91,0,0,1-2.58,3.07,3.79,3.79,0,0,1-3.34.22,4.74,4.74,0,0,1-2.7-3.64,3.66,3.66,0,0,1,0-1.21A2.19,2.19,0,0,1,121.12,153.82Z" style="fill:#e0e0e0"></path><path d="M95.29,132.66c0,.07-.81.73-2.07,1.93a31.4,31.4,0,0,0-4.36,5.18,33.72,33.72,0,0,0-3.16,6,23,23,0,0,1-1,2.63,11.42,11.42,0,0,1,.71-2.76,27.31,27.31,0,0,1,3.07-6.15A25.81,25.81,0,0,1,93,134.32,10.44,10.44,0,0,1,95.29,132.66Z" style="fill:#e0e0e0"></path><path d="M99.92,129.26c.08.12-.46.62-1.22,1.12s-1.43.8-1.51.68.47-.62,1.22-1.12S99.84,129.14,99.92,129.26Z" style="fill:#e0e0e0"></path><path d="M134.08,131.7a37.87,37.87,0,0,0-5.75-3.51,32.8,32.8,0,0,0-6.48-1.85,5.76,5.76,0,0,1,2,0,17.18,17.18,0,0,1,4.68,1.33,18.07,18.07,0,0,1,4.13,2.55A6.09,6.09,0,0,1,134.08,131.7Z" style="fill:#e0e0e0"></path><path d="M140.22,167.42a7.12,7.12,0,0,1,.52-1.24c.36-.78.88-1.91,1.46-3.32A35.35,35.35,0,0,0,145,151.32a20.82,20.82,0,0,0-2.6-11.43,18.81,18.81,0,0,0-3.1-3.82s.12.05.3.18a6.48,6.48,0,0,1,.78.63,13.24,13.24,0,0,1,2.34,2.82,20.42,20.42,0,0,1,2.8,11.65,33.11,33.11,0,0,1-3,11.65c-.63,1.41-1.2,2.52-1.62,3.27A6.94,6.94,0,0,1,140.22,167.42Z" style="fill:#e0e0e0"></path><path d="M169.66,115.58a43.25,43.25,0,0,0-4.92-.55,24.18,24.18,0,0,0-11.48,2.53,27,27,0,0,0-9.07,7.55c-1.87,2.42-2.69,4.15-2.78,4.1A7.47,7.47,0,0,1,142,128a23.25,23.25,0,0,1,1.93-3.1A25.76,25.76,0,0,1,153,117.1a23.32,23.32,0,0,1,11.74-2.44,20.87,20.87,0,0,1,3.62.52A5.64,5.64,0,0,1,169.66,115.58Z" style="fill:#e0e0e0"></path><path d="M171.44,123.2a22.86,22.86,0,0,0-7.12-1.13,23.23,23.23,0,0,0-7,1.67,6,6,0,0,1,1.89-1.07,15,15,0,0,1,5.11-1.12,14.52,14.52,0,0,1,5.18.73A5.81,5.81,0,0,1,171.44,123.2Z" style="fill:#e0e0e0"></path><path d="M300.26,95.25a2.79,2.79,0,0,1-.21-.35l-.58-1-.94-1.69-1.38-2.24c-1-1.67-2.44-3.65-4.16-5.87a73.07,73.07,0,0,0-6.44-7A62.47,62.47,0,0,0,265.7,64a56.67,56.67,0,0,0-29.86-2.55,58.6,58.6,0,0,0-14.9,4.83,59.7,59.7,0,0,0-12.27,7.88A67.33,67.33,0,0,0,193,93.18a72.47,72.47,0,0,0-6.36,15.45c-.25,1-.48,1.79-.68,2.53s-.31,1.37-.42,1.88-.2.87-.27,1.16a1.86,1.86,0,0,1-.11.39,2,2,0,0,1,.06-.4c.05-.29.12-.67.22-1.17s.22-1.15.37-1.89.4-1.6.64-2.56A69.88,69.88,0,0,1,192.71,93a66.86,66.86,0,0,1,15.65-19.25,59.35,59.35,0,0,1,12.36-8,58.71,58.71,0,0,1,15-4.88,56.76,56.76,0,0,1,30.11,2.61A62.09,62.09,0,0,1,286.8,76.78a71.49,71.49,0,0,1,6.42,7.11c1.7,2.25,3.07,4.25,4.11,6l1.33,2.27c.37.67.66,1.25.9,1.71s.4.8.54,1.06A2.21,2.21,0,0,1,300.26,95.25Z" style="fill:#e0e0e0"></path><path d="M281.13,141.27a11.64,11.64,0,0,0,4.63-1.34,14.67,14.67,0,0,0,4.36-3.61,21.93,21.93,0,0,0,3.61-6.58,37.14,37.14,0,0,0,1.9-8.94,41.37,41.37,0,0,0-.3-10.48,49,49,0,0,0-9.28-22,43.88,43.88,0,0,0-8.8-8.79,46.32,46.32,0,0,0-10.1-5.68A51.54,51.54,0,0,0,257.06,71a57.38,57.38,0,0,0-9.13-.84,60.38,60.38,0,0,0-13.2,1.41c-1.54.31-2.71.65-3.51.86l-.91.24a1.31,1.31,0,0,1-.32.06l.3-.11.9-.29c.79-.25,2-.61,3.5-1a58.21,58.21,0,0,1,13.25-1.58,57,57,0,0,1,9.2.79,51.12,51.12,0,0,1,10.19,2.91,46.29,46.29,0,0,1,10.23,5.71,44.35,44.35,0,0,1,8.9,8.89,49,49,0,0,1,9.34,22.21,41.24,41.24,0,0,1,.26,10.59,37.15,37.15,0,0,1-2,9,21.73,21.73,0,0,1-3.73,6.65,14.6,14.6,0,0,1-4.48,3.6,11,11,0,0,1-3.47,1.1A5.71,5.71,0,0,1,281.13,141.27Z" style="fill:#e0e0e0"></path><path d="M374.3,152.87l.15-.33.2-.39.2-.57a7.17,7.17,0,0,0,.09-3.94,7.88,7.88,0,0,0-3.59-5,6.54,6.54,0,0,0-3.77-.69,8.56,8.56,0,0,0-4,1.61,9.94,9.94,0,0,0-3.08,3.65,13.32,13.32,0,0,0-1.31,5.05,17.88,17.88,0,0,0,3,11,11.85,11.85,0,0,0,4.61,4.09,8.65,8.65,0,0,0,6.3.36,12.56,12.56,0,0,0,5.57-3.64,20.11,20.11,0,0,0,3.62-6,34.32,34.32,0,0,0,2.5-13.54c-.13-4.44-1.43-8.81-4.19-11.86s-6.51-4.64-10-5.66c-1.76-.51-3.49-.91-5.16-1.28s-3.27-.71-4.81-1a44.72,44.72,0,0,0-8.38-.83,23.24,23.24,0,0,0-6.28.85A20.73,20.73,0,0,0,341,127a1.76,1.76,0,0,1,.29-.21l.89-.57c.39-.24.91-.47,1.52-.79a21.13,21.13,0,0,1,2.19-.81,23.26,23.26,0,0,1,6.33-.94,43.94,43.94,0,0,1,8.45.76c1.55.27,3.16.59,4.84,1s3.41.76,5.19,1.27a28.34,28.34,0,0,1,5.37,2.06,16.7,16.7,0,0,1,4.87,3.69c2.87,3.15,4.2,7.64,4.34,12.16a34.67,34.67,0,0,1-2.53,13.76,20.36,20.36,0,0,1-3.71,6.09,13.1,13.1,0,0,1-5.81,3.79,9.16,9.16,0,0,1-6.66-.4,12.17,12.17,0,0,1-4.79-4.27,18.28,18.28,0,0,1-3-11.31,13.58,13.58,0,0,1,1.38-5.2,10.35,10.35,0,0,1,3.23-3.77,8.89,8.89,0,0,1,4.21-1.64,6.72,6.72,0,0,1,3.94.77,8,8,0,0,1,3.64,5.16,7,7,0,0,1-.18,4l-.23.57c-.08.15-.16.27-.22.38A1.64,1.64,0,0,1,374.3,152.87Z" style="fill:#e0e0e0"></path><path d="M385.17,168.89c-.09,0,.79-1.56,1.82-4.19a39.21,39.21,0,0,0,1.5-4.7,45.1,45.1,0,0,0,1-6,44.17,44.17,0,0,0,.08-6,39,39,0,0,0-.62-4.9c-.53-2.76-1.11-4.42-1-4.45a5.08,5.08,0,0,1,.47,1.14c.14.37.29.83.44,1.38s.34,1.16.47,1.86a35.67,35.67,0,0,1,.74,4.94,36.59,36.59,0,0,1-1.1,12.15,34,34,0,0,1-1.62,4.73c-.26.66-.56,1.23-.81,1.74s-.48.94-.68,1.28A6.12,6.12,0,0,1,385.17,168.89Z" style="fill:#e0e0e0"></path><path d="M414.83,162.44a6.31,6.31,0,0,0,1.2.68,4.49,4.49,0,0,0,3.79-.47,5.09,5.09,0,0,0,1.9-2,5.93,5.93,0,0,0,.49-3.29,7.28,7.28,0,0,0-1.5-3.52,6.13,6.13,0,0,0-3.58-2.25,8.74,8.74,0,0,0-8.68,3.66,12.4,12.4,0,0,0-1.91,10.89,11.35,11.35,0,0,0,3.36,5.1,9.9,9.9,0,0,0,5.81,2.49,10.61,10.61,0,0,0,6.31-1.77,17.47,17.47,0,0,0,4.87-4.86,22.38,22.38,0,0,0,2.89-6.29,24.32,24.32,0,0,0,1-6.67,26.78,26.78,0,0,0-.62-6.49,31.34,31.34,0,0,0-.83-3.06,30.1,30.1,0,0,0-1.18-2.86A21.58,21.58,0,0,0,420.8,133a20.86,20.86,0,0,0-9.42-3.31,22.22,22.22,0,0,0-8.25.81c-.58.19-1.16.33-1.68.56l-1.52.64a24,24,0,0,0-2.49,1.43l-1,.69-.84.68-.71.58c-.21.19-.38.38-.55.54l-.74.73-.27.24a2.14,2.14,0,0,1,.23-.28l.71-.76c.16-.17.33-.36.53-.56l.7-.61.83-.71,1-.71a23.28,23.28,0,0,1,2.5-1.48l1.53-.67c.53-.24,1.11-.38,1.7-.59a22.24,22.24,0,0,1,8.36-.9,21.14,21.14,0,0,1,9.63,3.32,21.9,21.9,0,0,1,7.53,8.9,25.8,25.8,0,0,1,1.21,2.91,28.44,28.44,0,0,1,.85,3.11,27.14,27.14,0,0,1,.65,6.6,24.51,24.51,0,0,1-1,6.8,22.07,22.07,0,0,1-2.95,6.44,17.87,17.87,0,0,1-5,5,11.07,11.07,0,0,1-6.62,1.85,10.4,10.4,0,0,1-6.09-2.62,11.77,11.77,0,0,1-3.49-5.33,12.78,12.78,0,0,1,2-11.3c2.21-3,6-4.52,9.1-3.76a6.52,6.52,0,0,1,3.76,2.4,7.58,7.58,0,0,1,1.53,3.7,6.26,6.26,0,0,1-.55,3.43,5.34,5.34,0,0,1-2,2.1,4.5,4.5,0,0,1-3.92.39,2.17,2.17,0,0,1-.55-.27,2.42,2.42,0,0,1-.36-.26C414.91,162.53,414.82,162.45,414.83,162.44Z" style="fill:#e0e0e0"></path><path d="M436,157.37c-.1,0,.26-1.86.17-4.86a27.57,27.57,0,0,0-2.76-11.26,24.83,24.83,0,0,0-7.38-8.9,43.61,43.61,0,0,0-4.13-2.55,6.18,6.18,0,0,1,1.24.47,19.17,19.17,0,0,1,3.11,1.79,23.81,23.81,0,0,1,7.63,9,26.33,26.33,0,0,1,2.66,11.48,24.84,24.84,0,0,1-.26,3.58A6.35,6.35,0,0,1,436,157.37Z" style="fill:#e0e0e0"></path><path d="M413,180.55a3.43,3.43,0,0,1-.85.2,17.92,17.92,0,0,1-2.35.22,25.22,25.22,0,0,1-7.75-.92,26.68,26.68,0,0,1-7.12-3.2,20.82,20.82,0,0,1-1.91-1.39c-.43-.36-.66-.57-.63-.6s1,.68,2.74,1.68a31.11,31.11,0,0,0,7.06,3,29.32,29.32,0,0,0,7.6,1C411.73,180.61,413,180.46,413,180.55Z" style="fill:#e0e0e0"></path><path d="M377.31,175.16a3.16,3.16,0,0,1-.47,1.71,6.19,6.19,0,0,1-3.12,3,5.56,5.56,0,0,1-4.3-.08c-1-.47-1.48-1-1.44-1.05s.58.36,1.58.71a5.63,5.63,0,0,0,4-.07,6.38,6.38,0,0,0,3-2.65C377.06,175.79,377.23,175.13,377.31,175.16Z" style="fill:#e0e0e0"></path><path d="M359.07,185.36a4.08,4.08,0,0,1,.15.79c.06.52.21,1.28.27,2.28a41.14,41.14,0,0,1-.22,8.45,42.6,42.6,0,0,1-3.4,12.06A38.39,38.39,0,0,1,347,221.45a34.23,34.23,0,0,1-25.71,9.05,30.54,30.54,0,0,1-8.27-1.72,21.06,21.06,0,0,1-2.13-.85,6.34,6.34,0,0,1-.72-.35,4.38,4.38,0,0,1,.76.25c.5.16,1.19.5,2.15.76a33,33,0,0,0,8.24,1.55,34.7,34.7,0,0,0,12.27-1.51,34.07,34.07,0,0,0,13.05-7.56,38.32,38.32,0,0,0,8.76-12.33,43.06,43.06,0,0,0,3.47-11.91,43.62,43.62,0,0,0,.38-8.39c0-1-.14-1.76-.17-2.28A6.8,6.8,0,0,1,359.07,185.36Z" style="fill:#e0e0e0"></path><path d="M193.5,190.69s.15.11.43.35a6,6,0,0,1,1.07,1.21,8.34,8.34,0,0,1,1.12,2.39,10.89,10.89,0,0,1,.37,3.57,11.47,11.47,0,0,1-1.13,4.36,9.08,9.08,0,0,1-3.64,3.89c-3.35,2-8.41,1.95-12.53-.71s-7.11-7.65-7.83-13.32a20,20,0,0,1,.75-8.78,20.42,20.42,0,0,1,4.85-8,19.74,19.74,0,0,1,8.39-5.08,18.07,18.07,0,0,1,10.2.06A22.18,22.18,0,0,1,204.7,176a24.56,24.56,0,0,1,5.94,9.16,30.7,30.7,0,0,1,.08,21.21,27.66,27.66,0,0,1-5.23,8.8,21.13,21.13,0,0,1-8,5.7,22.15,22.15,0,0,1-9.23,1.43,30.37,30.37,0,0,1-8.64-1.77,39,39,0,0,1-7.37-3.67,40.07,40.07,0,0,1-6-4.71,44,44,0,0,1-8-10.27,46.71,46.71,0,0,1-3.87-9c-.37-1.3-.71-2.45-.89-3.48a24.6,24.6,0,0,1-.48-2.58l-.21-1.6c0-.36,0-.55,0-.55s0,.18.1.54.15.91.26,1.59.3,1.56.53,2.57.55,2.16.94,3.45a46.91,46.91,0,0,0,3.92,8.95,43.87,43.87,0,0,0,8,10.14,40.06,40.06,0,0,0,5.91,4.65,39.55,39.55,0,0,0,7.29,3.59,30.14,30.14,0,0,0,8.52,1.72,21.64,21.64,0,0,0,9-1.42,20.82,20.82,0,0,0,7.79-5.58,27.25,27.25,0,0,0,5.13-8.65,30.24,30.24,0,0,0-.1-20.84,24.13,24.13,0,0,0-5.8-9,21.72,21.72,0,0,0-8.94-5.22,17.63,17.63,0,0,0-9.92-.08,19.3,19.3,0,0,0-8.18,5,19.73,19.73,0,0,0-4.76,7.77,19.43,19.43,0,0,0-.76,8.58c.69,5.57,3.6,10.46,7.6,13.07s8.93,2.68,12.18.77a8.8,8.8,0,0,0,3.57-3.76,11.29,11.29,0,0,0,1.15-4.25,10.73,10.73,0,0,0-.32-3.52,8.81,8.81,0,0,0-1.05-2.37A10.44,10.44,0,0,0,193.5,190.69Z" style="fill:#e0e0e0"></path><path d="M61,159.17a2.55,2.55,0,0,1-.07-.75,4.45,4.45,0,0,1,.6-2.07,4.5,4.5,0,0,1,2.62-2.15,4.41,4.41,0,0,1,4.26,1.25,6,6,0,0,1,1.71,5.14,7.12,7.12,0,0,1-3.37,5.23,7.77,7.77,0,0,1-6.86.4,12,12,0,0,1-5.58-4.92,9.65,9.65,0,0,1-1.33-3.59,8,8,0,0,1,.32-3.72,12.69,12.69,0,0,1,4-5.65,13.69,13.69,0,0,1,5.62-2.82,11,11,0,0,1,5.47.12,11.34,11.34,0,0,1,6.28,4.65,8.15,8.15,0,0,1,1.21,2.62,16.25,16.25,0,0,0-1.38-2.51A11.29,11.29,0,0,0,68.28,146,10.76,10.76,0,0,0,63,146a13.16,13.16,0,0,0-5.41,2.76,12.22,12.22,0,0,0-3.86,5.44,7.57,7.57,0,0,0-.3,3.48A9.11,9.11,0,0,0,54.7,161,11.61,11.61,0,0,0,60,165.75a7.3,7.3,0,0,0,6.43-.34,6.72,6.72,0,0,0,3.19-4.88,5.66,5.66,0,0,0-1.54-4.82,4.14,4.14,0,0,0-3.93-1.23,4.36,4.36,0,0,0-2.53,2,4.56,4.56,0,0,0-.66,2C60.94,158.91,61,159.17,61,159.17Z" style="fill:#e0e0e0"></path><path d="M50.14,160.84a7,7,0,0,1-.35-2.39,15.27,15.27,0,0,1,1-5.74,16.49,16.49,0,0,1,1.46-2.88,13.35,13.35,0,0,1,1.65-2.05,6.43,6.43,0,0,1,1.91-1.49c.05.08-.68.64-1.64,1.74a16,16,0,0,0-1.51,2.06,17.51,17.51,0,0,0-1.38,2.81,17.77,17.77,0,0,0-1.14,5.55C50.11,159.92,50.23,160.83,50.14,160.84Z" style="fill:#e0e0e0"></path><path d="M328.88,188.48l.47-.13a4.55,4.55,0,0,1,1.41-.06,6.64,6.64,0,0,1,4.47,2.91,8.1,8.1,0,0,1,1.44,3.66,10.61,10.61,0,0,1-.55,4.65,14.06,14.06,0,0,1-7.7,8.1,15.24,15.24,0,0,1-6.51,1.29A14.65,14.65,0,0,1,315,207a17.73,17.73,0,0,1-8.34-13,18.27,18.27,0,0,1,.86-8.54,23.12,23.12,0,0,1,4.57-7.7A26.86,26.86,0,0,1,328.39,169a21.42,21.42,0,0,1,13.81,2.74,23.56,23.56,0,0,1,3.73,2.74,22.86,22.86,0,0,1,7.56,15.47,34.81,34.81,0,0,1-2.79,15.52,40.46,40.46,0,0,1-7.22,11.74,25.26,25.26,0,0,1-9.2,6.62,20,20,0,0,1-8.44,1.47,17,17,0,0,1-5.3-1.14,10.42,10.42,0,0,1-1.28-.59c-.28-.14-.42-.23-.42-.23s.58.3,1.74.72a17.42,17.42,0,0,0,5.27,1,20.25,20.25,0,0,0,8.32-1.54,25.07,25.07,0,0,0,9-6.6,40.4,40.4,0,0,0,7.09-11.65A34.54,34.54,0,0,0,353,190a22.33,22.33,0,0,0-7.42-15.13,23.64,23.64,0,0,0-3.65-2.68,22.21,22.21,0,0,0-4.19-1.87,21.83,21.83,0,0,0-9.29-.79,26.32,26.32,0,0,0-16,8.6,22.58,22.58,0,0,0-4.48,7.53,17.81,17.81,0,0,0-.85,8.31,17.28,17.28,0,0,0,8.07,12.71,14.74,14.74,0,0,0,13.09.64,13.78,13.78,0,0,0,7.57-7.86,10.07,10.07,0,0,0,.58-4.52,8,8,0,0,0-1.36-3.58,6.56,6.56,0,0,0-4.31-2.92A6,6,0,0,0,328.88,188.48Z" style="fill:#e0e0e0"></path><path d="M467.91,361c-2.12,5.33-6.78,9.25-11.9,10a14.68,14.68,0,0,1-13.79-6.15c.71,3.2-2.85,6.41-5.46,4.91,1,9.46-4.33,19.3-12.23,22.56s-17.6-.4-22.19-8.38C395.88,385,389,381.11,386,374.6a11,11,0,0,1-14.53,3,13.63,13.63,0,0,1-10.21,12.65c-5.35,1.16-11-1.32-14.95-5.56s-6.38-10-7.79-16c-8,2.66-17.34-.82-22.39-8.35a19.11,19.11,0,0,1-9.6,3.79c-3.92.41-8.26-1.5-11.83-3.4,0,0-6-3.27-6.34-3.19l5.7-.26c3.71-.67,4.19-3.76,6.28-5.4a6.46,6.46,0,0,1,10.11,2.78c1.9-5.86,4.44-9.76,9.63-11.86a17.23,17.23,0,0,1,16,1.71c2.82-7.65,12.27-11,18.41-6.45,2.34-13.5,12.5-24.83,24.47-27.27s25,4.14,31.35,15.87a11.17,11.17,0,0,1,11,2.56A14.81,14.81,0,0,1,425.6,341c7-3.21,14.83-.12,20.77,5.23,3.84-7.12,21-5.62,25.06,6.57,0,0,.3,4.16,8.59,2.39C480,355.19,478.15,362,467.91,361Z" style="fill:#ebebeb"></path><path d="M329,356.17a3.22,3.22,0,0,0,0,.71,2.1,2.1,0,0,0,1.15,1.53,1.45,1.45,0,0,0,1.33-.12,2.48,2.48,0,0,0,1-1.3,3.37,3.37,0,0,0-1.25-3.67,3.62,3.62,0,0,0-4.58.4,5.58,5.58,0,0,0-1.24,5.39,5.47,5.47,0,0,0,4.53,4,5.94,5.94,0,0,0,5.61-3.26,8.22,8.22,0,0,0,.28-6.74,12.87,12.87,0,0,0-3.63-5.36,11.3,11.3,0,0,0-5.25-2.6,9.69,9.69,0,0,0-5.09.39A12.35,12.35,0,0,0,316,350a27.27,27.27,0,0,0-1.42,2.39,9.89,9.89,0,0,1,1.25-2.51,12.31,12.31,0,0,1,5.93-4.74,10.06,10.06,0,0,1,5.29-.46,11.59,11.59,0,0,1,5.48,2.66,13.11,13.11,0,0,1,3.8,5.56,8.71,8.71,0,0,1-.3,7.16,6.46,6.46,0,0,1-6.12,3.51,6.09,6.09,0,0,1-3.53-10.18,4,4,0,0,1,5.09-.38,3.66,3.66,0,0,1,1.3,4.06,2.73,2.73,0,0,1-1.17,1.42,1.66,1.66,0,0,1-1.54.08,2.14,2.14,0,0,1-1.17-1.7A1.28,1.28,0,0,1,329,356.17Z" style="fill:#e0e0e0"></path><path d="M317.7,346.57a35.86,35.86,0,0,0-2.71,3.32c-1.28,2-1.8,3.86-1.95,3.82a8,8,0,0,1,1.51-4.1A7.48,7.48,0,0,1,317.7,346.57Z" style="fill:#e0e0e0"></path><path d="M319.73,345c.08.12-.12.4-.45.63s-.67.31-.75.19.12-.4.45-.62S319.64,344.9,319.73,345Z" style="fill:#e0e0e0"></path><path d="M334.69,346.13c-.11.11-1.1-.79-2.57-1.46s-2.8-.82-2.79-1a4.43,4.43,0,0,1,3,.5A4.65,4.65,0,0,1,334.69,346.13Z" style="fill:#e0e0e0"></path><path d="M337.38,362.34a13.68,13.68,0,0,1,.77-2.11,17.25,17.25,0,0,0,1.18-5.19,9.9,9.9,0,0,0-1.07-5.12,16.19,16.19,0,0,0-1.28-1.81,3.93,3.93,0,0,1,1.6,1.62,9.35,9.35,0,0,1,1.27,5.33,14.94,14.94,0,0,1-1.36,5.31A7.31,7.31,0,0,1,337.38,362.34Z" style="fill:#e0e0e0"></path><path d="M350.28,338.81c0,.09-.84-.13-2.18-.14a10.45,10.45,0,0,0-5,1.2,12.16,12.16,0,0,0-3.93,3.36c-.82,1.06-1.2,1.81-1.28,1.77a5.73,5.73,0,0,1,1-2,11.09,11.09,0,0,1,4-3.6,9.71,9.71,0,0,1,5.25-1.11A5,5,0,0,1,350.28,338.81Z" style="fill:#e0e0e0"></path><path d="M351.06,342.27a22.32,22.32,0,0,0-3.12-.37,21.09,21.09,0,0,0-3.08.62,5.25,5.25,0,0,1,6.2-.25Z" style="fill:#e0e0e0"></path><path d="M407.49,329.59c-.06,0-.46-.86-1.4-2.35a30.69,30.69,0,0,0-4.63-5.78,27.26,27.26,0,0,0-9.13-5.94,23.89,23.89,0,0,0-13.17-1.12,25.33,25.33,0,0,0-11.89,5.85,30.32,30.32,0,0,0-6.74,8.6,33.62,33.62,0,0,0-2.76,6.87c-.48,1.69-.63,2.66-.69,2.65a3.09,3.09,0,0,1,.09-.71,19.65,19.65,0,0,1,.4-2,31.72,31.72,0,0,1,2.63-7,30,30,0,0,1,6.75-8.79,25.56,25.56,0,0,1,12.11-6,24.13,24.13,0,0,1,13.45,1.19,27,27,0,0,1,9.21,6.12,28.9,28.9,0,0,1,4.55,5.94,19.53,19.53,0,0,1,.94,1.8A4.16,4.16,0,0,1,407.49,329.59Z" style="fill:#e0e0e0"></path><path d="M399.1,350.47a5.78,5.78,0,0,0,2-.67,8,8,0,0,0,3.4-4.59,17.12,17.12,0,0,0,.8-4,18.69,18.69,0,0,0-.12-4.64,22.37,22.37,0,0,0-3.9-9.82,19.5,19.5,0,0,0-8.15-6.66,21.89,21.89,0,0,0-8.47-1.84,26.53,26.53,0,0,0-5.87.59c-1.36.28-2.1.53-2.12.48a2.34,2.34,0,0,1,.53-.21,14.14,14.14,0,0,1,1.55-.47,24.44,24.44,0,0,1,5.91-.76,22,22,0,0,1,8.66,1.77,19.75,19.75,0,0,1,8.38,6.8,22.55,22.55,0,0,1,4,10,19,19,0,0,1,.07,4.75,17.11,17.11,0,0,1-.89,4.05,10,10,0,0,1-1.64,3,6.45,6.45,0,0,1-2,1.65,4.48,4.48,0,0,1-1.56.49A1.4,1.4,0,0,1,399.1,350.47Z" style="fill:#e0e0e0"></path><path d="M439.92,355.74s.1-.2.21-.59a3.41,3.41,0,0,0,0-1.74,3.56,3.56,0,0,0-1.52-2.2,3,3,0,0,0-3.35.4,5.07,5.07,0,0,0-1.87,3.83,8.26,8.26,0,0,0,1.25,4.87,5.19,5.19,0,0,0,1.93,1.85,3.52,3.52,0,0,0,2.69.22,6.7,6.7,0,0,0,4-4.22,16,16,0,0,0,1.12-6,8.74,8.74,0,0,0-1.64-5.29,8.57,8.57,0,0,0-4.28-2.67c-1.55-.47-3.05-.8-4.41-1.08a13.9,13.9,0,0,0-6.5-.07,11.86,11.86,0,0,0-2.21.94,4.14,4.14,0,0,1,.51-.38,7.12,7.12,0,0,1,1.64-.76,13.67,13.67,0,0,1,6.63-.09,44.49,44.49,0,0,1,4.47,1,8.89,8.89,0,0,1,4.52,2.78,9.14,9.14,0,0,1,1.78,5.58,16.38,16.38,0,0,1-1.15,6.18,9.33,9.33,0,0,1-1.66,2.78,5.81,5.81,0,0,1-2.65,1.74,4,4,0,0,1-3.06-.27,5.67,5.67,0,0,1-2.11-2,8.64,8.64,0,0,1-1.27-5.15,5.47,5.47,0,0,1,2.08-4.1,3.36,3.36,0,0,1,3.72-.35,3.7,3.7,0,0,1,1.57,2.41,3.25,3.25,0,0,1-.12,1.81A1.48,1.48,0,0,1,439.92,355.74Z" style="fill:#e0e0e0"></path><path d="M444.68,363a26.22,26.22,0,0,0,1.75-6.76,27.41,27.41,0,0,0-.54-7,5.84,5.84,0,0,1,.71,2,16.23,16.23,0,0,1-.87,9.95A5.64,5.64,0,0,1,444.68,363Z" style="fill:#e0e0e0"></path><path d="M457.68,360.08a2.93,2.93,0,0,0,.54.28,1.86,1.86,0,0,0,1.63-.25,2.34,2.34,0,0,0,1-2.35,2.93,2.93,0,0,0-2.17-2.52A3.68,3.68,0,0,0,455,356.9a5.7,5.7,0,0,0-.78,4.78,4.66,4.66,0,0,0,3.88,3.37c1.92.13,3.7-1.27,4.8-3a11.12,11.12,0,0,0,1.66-5.73,11.85,11.85,0,0,0-.24-2.87,11.37,11.37,0,0,0-.83-2.63,9.75,9.75,0,0,0-3.09-4,9,9,0,0,0-4.1-1.58,9.3,9.3,0,0,0-6.16,1.5,18.4,18.4,0,0,0-1.84,1.53,6.9,6.9,0,0,1,1.73-1.7,9.2,9.2,0,0,1,10.62-.1,10.17,10.17,0,0,1,3.28,4.12,12.45,12.45,0,0,1,.88,2.73,12.77,12.77,0,0,1,.26,3,11.36,11.36,0,0,1-1.74,6,8,8,0,0,1-2.23,2.32,4.91,4.91,0,0,1-3,.87,5.11,5.11,0,0,1-4.31-3.74,6.08,6.08,0,0,1,.89-5.16,4.06,4.06,0,0,1,4.14-1.77,2.93,2.93,0,0,1,1.71,1.14,3.65,3.65,0,0,1,.67,1.71,2.9,2.9,0,0,1-.25,1.57,2.35,2.35,0,0,1-.91,1,2,2,0,0,1-1.78.18A1.09,1.09,0,0,1,457.68,360.08Z" style="fill:#e0e0e0"></path><path d="M466.94,357.78c-.08,0,0-.85,0-2.18a13.26,13.26,0,0,0-1.21-5,11.44,11.44,0,0,0-3.16-4.05c-1-.84-1.81-1.18-1.77-1.26a4.8,4.8,0,0,1,2,1,10.63,10.63,0,0,1,3.4,4.13,11.72,11.72,0,0,1,1.11,5.23A5.36,5.36,0,0,1,466.94,357.78Z" style="fill:#e0e0e0"></path><path d="M456.86,368.3a7.79,7.79,0,0,1-4.85-.1,8.25,8.25,0,0,1-4.18-2.48,27.34,27.34,0,0,0,4.32,2A23.5,23.5,0,0,0,456.86,368.3Z" style="fill:#e0e0e0"></path><path d="M441.24,365.85c.06,0,.08.33-.11.81a2.7,2.7,0,0,1-1.38,1.43,2.35,2.35,0,0,1-2-.06c-.47-.25-.64-.53-.6-.57s.31.1.74.23a2.38,2.38,0,0,0,1.65-.08,3,3,0,0,0,1.26-1.12C441.05,366.11,441.16,365.83,441.24,365.85Z" style="fill:#e0e0e0"></path><path d="M433.25,370.48a5.71,5.71,0,0,1,.24,1.36,18.64,18.64,0,0,1,0,3.79,19.63,19.63,0,0,1-1.41,5.44,17.72,17.72,0,0,1-3.8,5.73,14.8,14.8,0,0,1-5.87,3.59,14.52,14.52,0,0,1-5.59.68,12.5,12.5,0,0,1-3.69-.83,6.48,6.48,0,0,1-.94-.42c-.21-.1-.32-.16-.31-.18a19.32,19.32,0,0,0,5,1.07,14.76,14.76,0,0,0,11.06-4.28,17.61,17.61,0,0,0,3.73-5.55,20.35,20.35,0,0,0,1.48-5.3A31.76,31.76,0,0,0,433.25,370.48Z" style="fill:#e0e0e0"></path><path d="M360.72,372.9a2.38,2.38,0,0,1,.68.69,4.43,4.43,0,0,1,.69,2.69,5.47,5.47,0,0,1-.47,2,4.11,4.11,0,0,1-1.58,1.83,5.3,5.3,0,0,1-5.68-.29,8.7,8.7,0,0,1-3.46-6.09,9.36,9.36,0,0,1,2.41-7.64,8.76,8.76,0,0,1,3.74-2.4,7.89,7.89,0,0,1,4.64,0,10.53,10.53,0,0,1,6.69,6.7,14.54,14.54,0,0,1,.05,9.59,11.09,11.09,0,0,1-5.82,6.7,10.93,10.93,0,0,1-8.05-.14,17.34,17.34,0,0,1-3.29-1.72,18.32,18.32,0,0,1-2.61-2.19,20.24,20.24,0,0,1-5.11-8.78,15.59,15.59,0,0,1-.64-3.69,1.6,1.6,0,0,1,.06.24l.12.71a21,21,0,0,0,.66,2.68,20.49,20.49,0,0,0,5.17,8.58,17.68,17.68,0,0,0,2.58,2.12,16.69,16.69,0,0,0,3.21,1.64,10.53,10.53,0,0,0,7.72.11A10.68,10.68,0,0,0,368,379.8a14.14,14.14,0,0,0-.06-9.24,10,10,0,0,0-6.35-6.39,7.38,7.38,0,0,0-4.34,0,8.3,8.3,0,0,0-3.54,2.26,8.92,8.92,0,0,0-2.33,7.26,8.28,8.28,0,0,0,3.24,5.83,5,5,0,0,0,5.31.36,4.5,4.5,0,0,0,2-3.58,4.42,4.42,0,0,0-.58-2.62A6.88,6.88,0,0,0,360.72,372.9Z" style="fill:#e0e0e0"></path><path d="M302.65,358.6a.77.77,0,0,1-.06-.34,2,2,0,0,1,.23-.95,2.1,2.1,0,0,1,1.17-1,2,2,0,0,1,2,.57,3.23,3.23,0,0,1-.7,4.86,3.41,3.41,0,0,1-3.17.22,5.42,5.42,0,0,1-2.52-2.29,4.17,4.17,0,0,1-.46-3.38,5.76,5.76,0,0,1,1.78-2.62,5.34,5.34,0,0,1,5-1.27,4.94,4.94,0,0,1,2.77,2.19,4.24,4.24,0,0,1,.41.88c.06.21.09.32.07.33s-.18-.43-.65-1.1a5,5,0,0,0-2.7-2,5,5,0,0,0-4.61,1.28,5.44,5.44,0,0,0-1.61,2.41,3.7,3.7,0,0,0,.42,3,5,5,0,0,0,2.27,2.08,2.84,2.84,0,0,0,4-2.27,2.56,2.56,0,0,0-.63-2.08,1.67,1.67,0,0,0-1.64-.55,1.88,1.88,0,0,0-1.08.86A3.12,3.12,0,0,0,302.65,358.6Z" style="fill:#e0e0e0"></path><path d="M297.92,359.35a5,5,0,0,1,.15-3.71,6.07,6.07,0,0,1,1.42-2.27c.49-.48.88-.67.92-.62a13.59,13.59,0,0,0-1.86,3.07A17.47,17.47,0,0,0,297.92,359.35Z" style="fill:#e0e0e0"></path><path d="M420,371.89a1.62,1.62,0,0,1,.84-.11,2.94,2.94,0,0,1,2,1.34,4.22,4.22,0,0,1,.41,3.78,6.4,6.4,0,0,1-3.39,3.76,6.55,6.55,0,0,1-6.08-.29,8.21,8.21,0,0,1-3.67-6,9.54,9.54,0,0,1,2.35-7.39,11.78,11.78,0,0,1,7.29-4.1,9.5,9.5,0,0,1,4.31.4,9.83,9.83,0,0,1,3.58,2.2,10.63,10.63,0,0,1,3.27,7.06,16.37,16.37,0,0,1-1.21,7,18.61,18.61,0,0,1-3.14,5.32,11.27,11.27,0,0,1-4.06,3.08,8.59,8.59,0,0,1-3.79.69,7,7,0,0,1-2.37-.54,4,4,0,0,1-.75-.4,9,9,0,0,0,3.13.74,8.45,8.45,0,0,0,3.66-.76,10.94,10.94,0,0,0,3.9-3.05,18.28,18.28,0,0,0,3-5.24,15.78,15.78,0,0,0,1.14-6.79,10.15,10.15,0,0,0-3.14-6.73,9.43,9.43,0,0,0-3.4-2.08,9,9,0,0,0-4.07-.37c-5.56.76-9.94,6-9.23,10.91A7.8,7.8,0,0,0,414,380a6.16,6.16,0,0,0,5.71.32,6,6,0,0,0,3.26-3.51,4,4,0,0,0-.3-3.57,2.87,2.87,0,0,0-1.85-1.35A4.3,4.3,0,0,0,420,371.89Z" style="fill:#e0e0e0"></path><path d="M191.94,424.38c-2.12,5.33-6.78,9.25-11.9,10a14.69,14.69,0,0,1-13.8-6.15c.71,3.2-2.85,6.41-5.45,4.91,1,9.45-4.33,19.3-12.24,22.56s-17.59-.4-22.18-8.38c-6.46,1.06-13.32-2.87-16.39-9.39A11,11,0,0,1,95.45,441a13.63,13.63,0,0,1-10.21,12.64c-5.35,1.17-11-1.32-14.95-5.56s-6.38-10-7.8-16c-8,2.66-17.33-.81-22.38-8.35a19,19,0,0,1-9.6,3.79c-3.93.42-8.26-1.49-11.83-3.39,0,0-6-3.27-6.34-3.19l5.7-.26c3.7-.67,4.19-3.77,6.27-5.4a6.47,6.47,0,0,1,10.12,2.78c1.9-5.87,4.43-9.76,9.63-11.86a17.24,17.24,0,0,1,16,1.71c2.82-7.65,12.27-11,18.41-6.45,2.34-13.51,12.5-24.83,24.47-27.28s25,4.15,31.35,15.87a11.22,11.22,0,0,1,11,2.56,14.84,14.84,0,0,1,4.37,11.72c7-3.21,14.82-.11,20.77,5.24,3.84-7.13,21-5.62,25.06,6.56,0,0,.29,4.17,8.59,2.4C204.05,418.55,202.18,425.33,191.94,424.38Z" style="fill:#ebebeb"></path><path d="M53,419.52a3.26,3.26,0,0,0,0,.71,2.05,2.05,0,0,0,1.15,1.53,1.42,1.42,0,0,0,1.33-.11,2.41,2.41,0,0,0,1-1.3,3.36,3.36,0,0,0-1.24-3.67,3.61,3.61,0,0,0-4.58.4,5.58,5.58,0,0,0-1.24,5.39,5.5,5.5,0,0,0,4.53,4,6,6,0,0,0,5.61-3.26,8.22,8.22,0,0,0,.28-6.74,12.74,12.74,0,0,0-3.64-5.36,11.12,11.12,0,0,0-5.24-2.6,9.77,9.77,0,0,0-5.09.38,12.41,12.41,0,0,0-5.88,4.51,25,25,0,0,0-1.42,2.4,9.71,9.71,0,0,1,1.25-2.51,12.26,12.26,0,0,1,5.93-4.74,10.06,10.06,0,0,1,5.29-.47,11.69,11.69,0,0,1,5.48,2.66,13.2,13.2,0,0,1,3.8,5.56,8.71,8.71,0,0,1-.3,7.16A6.49,6.49,0,0,1,54,427a6.1,6.1,0,0,1-3.53-10.19,4,4,0,0,1,5.1-.38,3.68,3.68,0,0,1,1.3,4.07,2.71,2.71,0,0,1-1.17,1.41,1.66,1.66,0,0,1-1.54.09,2.14,2.14,0,0,1-1.17-1.7A1.33,1.33,0,0,1,53,419.52Z" style="fill:#e0e0e0"></path><path d="M41.72,409.92a41,41,0,0,0-2.7,3.32c-1.28,2-1.8,3.87-2,3.82a8,8,0,0,1,1.51-4.1A7.65,7.65,0,0,1,41.72,409.92Z" style="fill:#e0e0e0"></path><path d="M43.75,408.38c.09.12-.12.4-.45.62s-.66.32-.74.2.12-.4.45-.63S43.67,408.26,43.75,408.38Z" style="fill:#e0e0e0"></path><path d="M58.72,409.49c-.11.11-1.1-.8-2.57-1.46s-2.8-.82-2.79-1a4.41,4.41,0,0,1,3,.5A4.64,4.64,0,0,1,58.72,409.49Z" style="fill:#e0e0e0"></path><path d="M61.41,425.7a13.54,13.54,0,0,1,.77-2.12,17.17,17.17,0,0,0,1.18-5.19,10,10,0,0,0-1.07-5.12,17,17,0,0,0-1.28-1.8,3.85,3.85,0,0,1,1.6,1.62,9.43,9.43,0,0,1,1.27,5.33,14.82,14.82,0,0,1-1.36,5.3A7.86,7.86,0,0,1,61.41,425.7Z" style="fill:#e0e0e0"></path><path d="M74.3,402.17c0,.09-.84-.13-2.17-.15a10.53,10.53,0,0,0-5,1.21,12.21,12.21,0,0,0-3.92,3.35c-.82,1.06-1.2,1.82-1.28,1.78a5.5,5.5,0,0,1,1-2,11.2,11.2,0,0,1,4-3.61,9.89,9.89,0,0,1,5.25-1.11A5,5,0,0,1,74.3,402.17Z" style="fill:#e0e0e0"></path><path d="M75.09,405.63a20.69,20.69,0,0,0-3.12-.37,23.75,23.75,0,0,0-3.08.61,5.27,5.27,0,0,1,6.2-.24Z" style="fill:#e0e0e0"></path><path d="M131.52,392.94c-.06,0-.47-.86-1.4-2.34a30.78,30.78,0,0,0-4.63-5.78,27.1,27.1,0,0,0-9.13-5.94,23.89,23.89,0,0,0-13.17-1.12,25.42,25.42,0,0,0-11.9,5.85,30.42,30.42,0,0,0-6.73,8.59,33.88,33.88,0,0,0-2.76,6.88c-.48,1.69-.63,2.65-.69,2.64a3.09,3.09,0,0,1,.09-.7,19.65,19.65,0,0,1,.4-2,32,32,0,0,1,2.63-7A30.13,30.13,0,0,1,91,383.25a25.67,25.67,0,0,1,12.11-6,24.17,24.17,0,0,1,13.44,1.19,27,27,0,0,1,9.22,6.13,28.62,28.62,0,0,1,4.55,5.93c.43.77.75,1.38.94,1.8A4.72,4.72,0,0,1,131.52,392.94Z" style="fill:#e0e0e0"></path><path d="M123.13,413.83a5.78,5.78,0,0,0,2-.67,8,8,0,0,0,3.39-4.6,17,17,0,0,0,.81-4,18.69,18.69,0,0,0-.12-4.64,22.22,22.22,0,0,0-3.91-9.82,19.58,19.58,0,0,0-8.14-6.67,22,22,0,0,0-8.47-1.83,26.63,26.63,0,0,0-5.87.58c-1.37.29-2.1.54-2.12.49a2.34,2.34,0,0,1,.53-.21,13.47,13.47,0,0,1,1.55-.47,23.94,23.94,0,0,1,5.91-.76,21.79,21.79,0,0,1,8.66,1.76,19.77,19.77,0,0,1,8.38,6.81,22.57,22.57,0,0,1,4,10.05,19,19,0,0,1,.07,4.75,17.22,17.22,0,0,1-.89,4.05,10,10,0,0,1-1.64,3,6.71,6.71,0,0,1-2,1.65,4.71,4.71,0,0,1-1.56.49A1.67,1.67,0,0,1,123.13,413.83Z" style="fill:#e0e0e0"></path><path d="M164,419.09s.1-.19.21-.58a3.41,3.41,0,0,0,0-1.74,3.51,3.51,0,0,0-1.52-2.2,3,3,0,0,0-3.35.39,5.11,5.11,0,0,0-1.87,3.84,8.27,8.27,0,0,0,1.24,4.86,5.32,5.32,0,0,0,1.94,1.86,3.52,3.52,0,0,0,2.69.22,6.75,6.75,0,0,0,4-4.22,16,16,0,0,0,1.12-6,8.84,8.84,0,0,0-1.64-5.29,8.55,8.55,0,0,0-4.28-2.66c-1.55-.48-3.06-.8-4.41-1.09a14,14,0,0,0-6.5-.07,11.8,11.8,0,0,0-2.21.95,2.21,2.21,0,0,1,.51-.38,7.12,7.12,0,0,1,1.64-.76,13.48,13.48,0,0,1,6.62-.1c1.39.27,2.88.57,4.48,1a9.07,9.07,0,0,1,4.52,2.78,9.2,9.2,0,0,1,1.78,5.58,16.39,16.39,0,0,1-1.15,6.19,9.55,9.55,0,0,1-1.66,2.78,5.89,5.89,0,0,1-2.65,1.74,4.05,4.05,0,0,1-3.06-.27,5.74,5.74,0,0,1-2.11-2,8.64,8.64,0,0,1-1.27-5.15,5.44,5.44,0,0,1,2.08-4.1,3.34,3.34,0,0,1,3.72-.35,3.66,3.66,0,0,1,1.57,2.4,3.29,3.29,0,0,1-.12,1.82A1.68,1.68,0,0,1,164,419.09Z" style="fill:#e0e0e0"></path><path d="M168.71,426.36a26.07,26.07,0,0,0,1.75-6.76,27.55,27.55,0,0,0-.54-7,5.84,5.84,0,0,1,.71,2,16.4,16.4,0,0,1,.35,5,16.17,16.17,0,0,1-1.22,4.9A5.87,5.87,0,0,1,168.71,426.36Z" style="fill:#e0e0e0"></path><path d="M181.7,423.44s.17.14.55.28a1.86,1.86,0,0,0,1.63-.25,2.34,2.34,0,0,0,1-2.35,3,3,0,0,0-2.17-2.53,3.69,3.69,0,0,0-3.71,1.67,5.65,5.65,0,0,0-.78,4.77,4.64,4.64,0,0,0,3.88,3.37c1.92.14,3.7-1.27,4.8-3a11.1,11.1,0,0,0,1.66-5.73,12.33,12.33,0,0,0-.24-2.86,11.37,11.37,0,0,0-.83-2.63,9.63,9.63,0,0,0-3.1-4,8.9,8.9,0,0,0-4.09-1.58,9.28,9.28,0,0,0-6.16,1.5,19.45,19.45,0,0,0-1.84,1.52A7,7,0,0,1,174,410a9.16,9.16,0,0,1,10.62-.1,10.1,10.1,0,0,1,3.28,4.12,12.28,12.28,0,0,1,.88,2.73,12.77,12.77,0,0,1,.26,3,11.45,11.45,0,0,1-1.74,6,8.08,8.08,0,0,1-2.23,2.32,4.92,4.92,0,0,1-3,.87,5.13,5.13,0,0,1-4.31-3.74,6.07,6.07,0,0,1,.89-5.16,4.06,4.06,0,0,1,4.14-1.78,3,3,0,0,1,1.71,1.15,3.6,3.6,0,0,1,.66,1.7,3,3,0,0,1-.24,1.57,2.38,2.38,0,0,1-.91,1,2,2,0,0,1-1.78.18A1.17,1.17,0,0,1,181.7,423.44Z" style="fill:#e0e0e0"></path><path d="M191,421.13c-.08,0,0-.84,0-2.18a13.22,13.22,0,0,0-1.21-5,11.4,11.4,0,0,0-3.16-4.06c-1-.83-1.81-1.17-1.77-1.25a4.59,4.59,0,0,1,2,1,10.45,10.45,0,0,1,3.41,4.12,11.79,11.79,0,0,1,1.11,5.24A5.23,5.23,0,0,1,191,421.13Z" style="fill:#e0e0e0"></path><path d="M180.89,431.65a7.77,7.77,0,0,1-4.86-.09,8.09,8.09,0,0,1-4.17-2.49,26.83,26.83,0,0,0,4.32,2A22.23,22.23,0,0,0,180.89,431.65Z" style="fill:#e0e0e0"></path><path d="M165.27,429.21c.06,0,.08.33-.11.81a2.72,2.72,0,0,1-1.39,1.43,2.35,2.35,0,0,1-2-.07c-.46-.24-.63-.52-.59-.57s.3.11.73.23a2.46,2.46,0,0,0,1.66-.07,3,3,0,0,0,1.26-1.12C165.08,429.47,165.19,429.19,165.27,429.21Z" style="fill:#e0e0e0"></path><path d="M157.28,433.84a6.26,6.26,0,0,1,.24,1.36,18.54,18.54,0,0,1,0,3.78,19.63,19.63,0,0,1-1.41,5.44,17.76,17.76,0,0,1-3.8,5.74,14.88,14.88,0,0,1-5.88,3.59,14.45,14.45,0,0,1-5.58.68,13,13,0,0,1-3.7-.83,6.79,6.79,0,0,1-.93-.42,1.34,1.34,0,0,1-.31-.18,20.17,20.17,0,0,0,5,1.06,14.8,14.8,0,0,0,11.07-4.27,17.72,17.72,0,0,0,3.73-5.55,20.56,20.56,0,0,0,1.48-5.3A33.3,33.3,0,0,0,157.28,433.84Z" style="fill:#e0e0e0"></path><path d="M84.75,436.26a2.22,2.22,0,0,1,.68.69,4.39,4.39,0,0,1,.69,2.69,5.47,5.47,0,0,1-.47,2,4.21,4.21,0,0,1-1.58,1.83,5.3,5.3,0,0,1-5.68-.3,8.62,8.62,0,0,1-3.46-6.08,9.37,9.37,0,0,1,2.4-7.64A8.87,8.87,0,0,1,81.08,427a7.89,7.89,0,0,1,4.64,0,10.53,10.53,0,0,1,6.69,6.7,14.51,14.51,0,0,1,0,9.58A11.08,11.08,0,0,1,86.64,450a11,11,0,0,1-8.06-.15,17.52,17.52,0,0,1-3.28-1.71A17.78,17.78,0,0,1,72.69,446a20.21,20.21,0,0,1-5.11-8.79,15.94,15.94,0,0,1-.65-3.68,1,1,0,0,1,.07.24c0,.19.07.42.12.71a21.38,21.38,0,0,0,.66,2.68A20.45,20.45,0,0,0,73,445.72a18.08,18.08,0,0,0,2.57,2.11,17.32,17.32,0,0,0,3.21,1.65,10.58,10.58,0,0,0,7.72.11A10.69,10.69,0,0,0,92,443.16a14.14,14.14,0,0,0-.06-9.24,10,10,0,0,0-6.35-6.39,7.3,7.3,0,0,0-4.34,0,8.37,8.37,0,0,0-3.54,2.25A9,9,0,0,0,75.36,437a8.3,8.3,0,0,0,3.24,5.83,5,5,0,0,0,5.31.35,4.47,4.47,0,0,0,2-3.58,4.39,4.39,0,0,0-.58-2.61A7.13,7.13,0,0,0,84.75,436.26Z" style="fill:#e0e0e0"></path><path d="M26.68,422a.69.69,0,0,1-.06-.33,2,2,0,0,1,.23-.95A2.12,2.12,0,0,1,28,419.62a2,2,0,0,1,2,.58,3.23,3.23,0,0,1-.7,4.86,3.43,3.43,0,0,1-3.17.22A5.47,5.47,0,0,1,23.62,423a4.18,4.18,0,0,1-.46-3.38A5.71,5.71,0,0,1,24.94,417a5.34,5.34,0,0,1,5-1.27,4.93,4.93,0,0,1,2.77,2.18,4.49,4.49,0,0,1,.41.88,1.24,1.24,0,0,1,.07.33s-.18-.43-.65-1.09a4.93,4.93,0,0,0-2.71-1.95,5,5,0,0,0-4.61,1.28,5.31,5.31,0,0,0-1.6,2.41,3.68,3.68,0,0,0,.42,3,5,5,0,0,0,2.26,2.09,3,3,0,0,0,2.73-.16,2.92,2.92,0,0,0,1.31-2.12,2.49,2.49,0,0,0-.62-2.07,1.68,1.68,0,0,0-1.64-.56,1.92,1.92,0,0,0-1.08.86A3,3,0,0,0,26.68,422Z" style="fill:#e0e0e0"></path><path d="M22,422.71a4.94,4.94,0,0,1,.14-3.72,6.15,6.15,0,0,1,1.43-2.26c.49-.48.88-.67.92-.62a13.11,13.11,0,0,0-1.86,3.06A16.71,16.71,0,0,0,22,422.71Z" style="fill:#e0e0e0"></path><path d="M144.05,435.25a1.56,1.56,0,0,1,.85-.11,2.93,2.93,0,0,1,2,1.34,4.25,4.25,0,0,1,.41,3.78,6.38,6.38,0,0,1-3.39,3.75,6.52,6.52,0,0,1-6.08-.28,8.21,8.21,0,0,1-3.67-6,9.56,9.56,0,0,1,2.35-7.4,11.72,11.72,0,0,1,7.29-4.09,9.63,9.63,0,0,1,4.31.39,9.83,9.83,0,0,1,3.58,2.2,10.7,10.7,0,0,1,3.27,7.07,16.4,16.4,0,0,1-1.22,7,18.5,18.5,0,0,1-3.13,5.32,11.32,11.32,0,0,1-4.07,3.08,8.53,8.53,0,0,1-3.78.69,7.15,7.15,0,0,1-2.37-.54,3.62,3.62,0,0,1-.75-.41,8.49,8.49,0,0,0,3.13.75,8.63,8.63,0,0,0,3.66-.76,11.17,11.17,0,0,0,3.9-3.05,18.28,18.28,0,0,0,3-5.24,16,16,0,0,0,1.14-6.8,10.21,10.21,0,0,0-3.15-6.73,9.31,9.31,0,0,0-3.39-2.08,9.14,9.14,0,0,0-4.07-.37c-5.56.76-9.94,6-9.23,10.92a7.77,7.77,0,0,0,3.41,5.67,6.18,6.18,0,0,0,5.71.32,6.06,6.06,0,0,0,3.26-3.52,4,4,0,0,0-.3-3.57,2.9,2.9,0,0,0-1.85-1.35A3.83,3.83,0,0,0,144.05,435.25Z" style="fill:#e0e0e0"></path></g><g id="freepik--Stars--inject-66"><polygon points="73.24 73.7 69.68 68.16 75.7 70.93 77.75 64.36 79.26 70.69 85.9 68.24 81.95 73.7 87.8 77.26 81.08 77.26 81.79 84.06 77.52 78.92 73.16 84.06 74.11 77.42 67.47 77.1 73.24 73.7" style="fill:#FF725E"></polygon><polygon points="414.22 434.18 410.66 428.64 416.67 431.41 418.73 424.84 420.23 431.17 426.88 428.72 422.92 434.18 428.78 437.74 422.05 437.74 422.76 444.54 418.49 439.4 414.14 444.54 415.09 437.9 408.44 437.58 414.22 434.18" style="fill:#FF725E"></polygon><polygon points="73.71 426.1 68.46 417.94 77.33 422.02 80.36 412.34 82.57 421.67 92.36 418.05 86.53 426.1 95.16 431.34 85.25 431.34 86.3 441.37 80.01 433.79 73.59 441.37 74.99 431.58 65.2 431.11 73.71 426.1" style="fill:#FF725E"></polygon><path d="M68.49,424.81a91.72,91.72,0,0,1-9.7-.7,93.45,93.45,0,0,1-9.64-1.21,90,90,0,0,1,9.7.69A92.17,92.17,0,0,1,68.49,424.81Z" style="fill:#263238"></path><path d="M74.77,418.28a86,86,0,0,1-4.15-8.51A82.52,82.52,0,0,1,66.94,401a87,87,0,0,1,4.15,8.52A87.26,87.26,0,0,1,74.77,418.28Z" style="fill:#263238"></path><path d="M64.1,442.82a21.8,21.8,0,0,1,2.62-4,22.9,22.9,0,0,1,3-3.73,21.81,21.81,0,0,1-2.62,4A22.41,22.41,0,0,1,64.1,442.82Z" style="fill:#263238"></path><path d="M79.88,456.48a65.39,65.39,0,0,1,0-8.39,69.59,69.59,0,0,1,.56-8.38,65.34,65.34,0,0,1,0,8.39A70,70,0,0,1,79.88,456.48Z" style="fill:#263238"></path><path d="M95.17,440.5a11.33,11.33,0,0,1-2.75-2A11.33,11.33,0,0,1,90,436.11a11.12,11.12,0,0,1,2.75,2A11.33,11.33,0,0,1,95.17,440.5Z" style="fill:#263238"></path><path d="M111.84,425.37a90.11,90.11,0,0,1-9.81.1,95.84,95.84,0,0,1-9.8-.43A88.76,88.76,0,0,1,102,425,94.1,94.1,0,0,1,111.84,425.37Z" style="fill:#263238"></path><path d="M89.44,406.11a34.67,34.67,0,0,1-2,5.53A34.15,34.15,0,0,1,84.86,417a33.53,33.53,0,0,1,2-5.53A32.14,32.14,0,0,1,89.44,406.11Z" style="fill:#263238"></path><path d="M64.12,414.07a12.38,12.38,0,0,1-2.52-2.4,11.38,11.38,0,0,1-2.14-2.74A11.83,11.83,0,0,1,62,411.32,11.53,11.53,0,0,1,64.12,414.07Z" style="fill:#263238"></path><path d="M81.3,401.31a13.89,13.89,0,0,1-.49,5.39,7.3,7.3,0,0,1,0-2.72A7.5,7.5,0,0,1,81.3,401.31Z" style="fill:#263238"></path><path d="M100.9,411.12a7.91,7.91,0,0,1-2.31,1.7A8.26,8.26,0,0,1,96,414.07a8,8,0,0,1,2.32-1.7A8.27,8.27,0,0,1,100.9,411.12Z" style="fill:#263238"></path><path d="M104.78,435.91a8,8,0,0,1-2.68-1,8.11,8.11,0,0,1-2.47-1.46,7.94,7.94,0,0,1,2.69,1A7.84,7.84,0,0,1,104.78,435.91Z" style="fill:#263238"></path><path d="M87.37,450.07a10,10,0,0,1-1.21-4.41,10.44,10.44,0,0,1,1.21,4.41Z" style="fill:#263238"></path><path d="M70.13,448.77a7,7,0,0,1,.94-2.53,7.16,7.16,0,0,1,1.42-2.3,14.18,14.18,0,0,1-2.36,4.83Z" style="fill:#263238"></path><path d="M60.47,432.71a5.92,5.92,0,0,1-2.44.38,6.1,6.1,0,0,1-2.46-.15,5.87,5.87,0,0,1,2.44-.37A6,6,0,0,1,60.47,432.71Z" style="fill:#263238"></path><polygon points="419.01 62.58 412.96 54.99 422.19 58.15 424.22 48.21 427.37 57.27 436.75 52.68 431.77 61.27 440.88 65.62 431.02 66.62 433.08 76.49 426.05 69.59 420.44 77.78 420.84 67.9 411.05 68.43 419.01 62.58" style="fill:#FF725E"></polygon><path d="M413.68,61.83a91.76,91.76,0,0,1-9.71.28,88,88,0,0,1-9.72-.23,93.35,93.35,0,0,1,9.72-.29A89.24,89.24,0,0,1,413.68,61.83Z" style="fill:#263238"></path><path d="M419.27,54.69a88.32,88.32,0,0,1-5-8,85.89,85.89,0,0,1-4.54-8.31,87.06,87.06,0,0,1,5,8.05A84.81,84.81,0,0,1,419.27,54.69Z" style="fill:#263238"></path><path d="M411.14,80.19a22.49,22.49,0,0,1,2.2-4.26,23.33,23.33,0,0,1,2.66-4,21.46,21.46,0,0,1-2.2,4.27A22.63,22.63,0,0,1,411.14,80.19Z" style="fill:#263238"></path><path d="M428.23,92.18a65.72,65.72,0,0,1-.81-8.36,67.16,67.16,0,0,1-.29-8.39,70.11,70.11,0,0,1,.81,8.36A69.55,69.55,0,0,1,428.23,92.18Z" style="fill:#263238"></path><path d="M441.82,74.73A11.48,11.48,0,0,1,438.88,73a11.45,11.45,0,0,1-2.65-2.13,10.92,10.92,0,0,1,2.94,1.7A11.33,11.33,0,0,1,441.82,74.73Z" style="fill:#263238"></path><path d="M456.87,58a94,94,0,0,1-9.75,1.09,91.39,91.39,0,0,1-9.8.56,93,93,0,0,1,9.76-1.08A89.78,89.78,0,0,1,456.87,58Z" style="fill:#263238"></path><path d="M432.62,41.09a33.43,33.43,0,0,1-1.47,5.72,34,34,0,0,1-2,5.56,35.3,35.3,0,0,1,1.48-5.72A34.56,34.56,0,0,1,432.62,41.09Z" style="fill:#263238"></path><path d="M408.25,51.58a11.58,11.58,0,0,1-2.76-2.12,11.78,11.78,0,0,1-2.4-2.52,12.22,12.22,0,0,1,2.75,2.13A11.52,11.52,0,0,1,408.25,51.58Z" style="fill:#263238"></path><path d="M424.05,37.14a7.48,7.48,0,0,1,.29,2.71,7.59,7.59,0,0,1-.23,2.71,7,7,0,0,1-.29-2.71A7.09,7.09,0,0,1,424.05,37.14Z" style="fill:#263238"></path><path d="M444.54,44.92a8,8,0,0,1-2.13,1.92A8.23,8.23,0,0,1,440,48.35c-.09-.12.86-1,2.13-1.93A7.94,7.94,0,0,1,444.54,44.92Z" style="fill:#263238"></path><path d="M450.92,69.19a8.16,8.16,0,0,1-2.78-.71,7.67,7.67,0,0,1-2.59-1.2,8.42,8.42,0,0,1,2.77.71A8,8,0,0,1,450.92,69.19Z" style="fill:#263238"></path><path d="M435,85c-.14.06-.62-.86-1.07-2a5,5,0,0,1-.58-2.23,5.47,5.47,0,0,1,1.07,2A5.36,5.36,0,0,1,435,85Z" style="fill:#263238"></path><path d="M417.74,85.49a7.17,7.17,0,0,1,.69-2.61,7.24,7.24,0,0,1,1.17-2.43,7,7,0,0,1-.68,2.61A7.15,7.15,0,0,1,417.74,85.49Z" style="fill:#263238"></path><path d="M406.51,70.5a6.07,6.07,0,0,1-2.39.62,6,6,0,0,1-2.46.1A5.92,5.92,0,0,1,404,70.6,6,6,0,0,1,406.51,70.5Z" style="fill:#263238"></path></g><g id="freepik--sun-and-moon--inject-66"><path d="M283.5,73.82a34.9,34.9,0,0,1,1.21-5.92,35.64,35.64,0,0,1,1.72-5.81A35.58,35.58,0,0,1,285.21,68,36.75,36.75,0,0,1,283.5,73.82Z" style="fill:#263238"></path><path d="M198.54,79.67c-.14,0-1.44-4.66-2.9-10.49s-2.53-10.58-2.39-10.62,1.44,4.66,2.9,10.49S198.68,79.63,198.54,79.67Z" style="fill:#263238"></path><path d="M85.81,147.31a32.92,32.92,0,0,1-5.42-2,31.74,31.74,0,0,1-5.2-2.51,33,33,0,0,1,5.41,2A32.65,32.65,0,0,1,85.81,147.31Z" style="fill:#263238"></path><path d="M408.36,358.24a27.1,27.1,0,0,1-3.44-3.94,25.65,25.65,0,0,1-3-4.26,53.31,53.31,0,0,1,6.46,8.2Z" style="fill:#263238"></path><path d="M468.21,265.89a6.89,6.89,0,0,1-1.29.05l-3.52,0c-3,0-7.08-.08-11.61,0s-8.64.17-11.61.27l-3.52.1a5.87,5.87,0,0,1-1.29,0,6.5,6.5,0,0,1,1.28-.18c.83-.08,2-.18,3.51-.27,3-.19,7.08-.37,11.62-.42s8.66.06,11.63.19c1.49.07,2.69.14,3.52.2A5.71,5.71,0,0,1,468.21,265.89Z" style="fill:#263238"></path><path d="M445.92,276.1a36,36,0,0,1-6.17,0,35.13,35.13,0,0,1-6.14-.56,37.92,37.92,0,0,1,6.17,0A37,37,0,0,1,445.92,276.1Z" style="fill:#263238"></path><path d="M453.55,191.7c0,.13-5.57,2.08-12.53,4.35s-12.64,4-12.69,3.86,5.57-2.09,12.53-4.36S453.5,191.56,453.55,191.7Z" style="fill:#263238"></path><path d="M437.06,183.38a38.53,38.53,0,0,1-7.64,4.66,19.94,19.94,0,0,1,3.69-2.56A19.33,19.33,0,0,1,437.06,183.38Z" style="fill:#263238"></path><path d="M423,118.29c.08.12-4.85,3.49-11,7.53s-11.21,7.22-11.29,7.1,4.85-3.49,11-7.53S422.91,118.17,423,118.29Z" style="fill:#263238"></path><path d="M410,115.32a58.74,58.74,0,0,1-5.63,5.53,60.91,60.91,0,0,1-6,5.15,60.16,60.16,0,0,1,5.63-5.53A59.87,59.87,0,0,1,410,115.32Z" style="fill:#263238"></path><path d="M361.47,67.37c.12.08-3.19,5.13-7.4,11.28s-7.72,11.08-7.84,11,3.2-5.14,7.41-11.29S361.36,67.29,361.47,67.37Z" style="fill:#263238"></path><path d="M268.71,105.48c-.14,0,.83-11.84,2.17-26.41s2.54-26.37,2.69-26.35-.83,11.83-2.17,26.4S268.86,105.49,268.71,105.48Z" style="fill:#263238"></path><path d="M242.35,311.7a1.49,1.49,0,0,1-.1.45c-.09.29-.19.73-.4,1.27a20.87,20.87,0,0,1-2.23,4.35,22.67,22.67,0,0,1-4.94,5.31A22.21,22.21,0,0,1,211,325.3a20.13,20.13,0,0,1-4.08-2.69c-.45-.36-.75-.7-1-.9s-.32-.33-.31-.35a29.08,29.08,0,0,0,5.52,3.61,23.18,23.18,0,0,0,6.82,2,21.52,21.52,0,0,0,16.43-4.32,23.19,23.19,0,0,0,4.92-5.14A30,30,0,0,0,242.35,311.7Z" style="fill:#e0e0e0"></path><path d="M335.49,235.29s18-28.77,33.18-31.61,30.63-.27,40.87-9.78c11.14-10.34,20-25.39,31.36-26.19,0,0-7.75-7.47-22.1,4.92s-21.5,13.46-34.05,9.65-35.8-13.51-62.6,15.33l-2.76,34Z" style="fill:#FF725E"></path><path d="M347.5,180s8.17,24.35,8.27,30.95l8.85-7L359.35,177S349.73,179.15,347.5,180Z" style="opacity:0.2"></path><path d="M370.3,192.36a1.84,1.84,0,0,1-.5,0l-1.41,0c-.62,0-1.37,0-2.24.07s-1.86.08-2.94.25l-1.71.22c-.59.08-1.19.22-1.83.34-1.27.2-2.59.58-4,.94a53,53,0,0,0-8.75,3.44,52.43,52.43,0,0,0-7.9,5.08,41,41,0,0,0-3.11,2.69c-.46.44-.93.85-1.35,1.28L333.4,208c-.77.78-1.36,1.57-1.93,2.24a19.87,19.87,0,0,0-1.36,1.77l-.84,1.13c-.2.26-.31.39-.33.38a2.05,2.05,0,0,1,.24-.43l.76-1.2a19.25,19.25,0,0,1,1.3-1.83c.55-.69,1.13-1.51,1.89-2.31l1.16-1.29c.4-.44.87-.86,1.33-1.32.91-.93,2-1.8,3.11-2.75a46.66,46.66,0,0,1,16.82-8.6c1.41-.35,2.76-.72,4-.91.64-.1,1.26-.24,1.86-.31l1.72-.18c1.09-.15,2.1-.14,3-.18a18.16,18.16,0,0,1,2.25,0l1.42.08A1.61,1.61,0,0,1,370.3,192.36Z" style="fill:#263238"></path><path d="M422.59,174.8s-.09.15-.31.39l-1,1.06c-.85.91-2.1,2.21-3.68,3.78a79.07,79.07,0,0,1-13.49,11,18.39,18.39,0,0,1-4.58,2,26.85,26.85,0,0,1-4.58.83,42.65,42.65,0,0,1-7.85-.11c-2.22-.22-4-.53-5.22-.75-.62-.11-1.09-.21-1.41-.28a1.64,1.64,0,0,1-.48-.13,14.66,14.66,0,0,1,1.92.21c1.23.16,3,.41,5.23.58a44.49,44.49,0,0,0,7.76,0,27.78,27.78,0,0,0,4.49-.84,18.66,18.66,0,0,0,4.45-2,86.25,86.25,0,0,0,13.5-10.81l3.79-3.66,1-1A2.26,2.26,0,0,1,422.59,174.8Z" style="fill:#263238"></path><path d="M325.76,204.92a6.11,6.11,0,0,1,.82-1c.55-.66,1.39-1.57,2.48-2.64a55,55,0,0,1,20.16-12.58c1.44-.5,2.63-.86,3.46-1.07a7.33,7.33,0,0,1,1.3-.28,5.6,5.6,0,0,1-1.24.48c-.81.26-2,.67-3.39,1.22a61.72,61.72,0,0,0-20,12.49c-1.12,1-2,1.9-2.59,2.51A6.47,6.47,0,0,1,325.76,204.92Z" style="fill:#263238"></path><path d="M335.62,223.19a5.75,5.75,0,0,1,.47-1.13,31.36,31.36,0,0,1,1.6-2.93,42,42,0,0,1,6.89-8.55,42.9,42.9,0,0,1,8.85-6.49,30.2,30.2,0,0,1,3-1.45,4.55,4.55,0,0,1,1.14-.42c0,.08-1.55.78-4,2.19A46.8,46.8,0,0,0,338,219.33C336.48,221.67,335.71,223.23,335.62,223.19Z" style="fill:#263238"></path><polygon points="392.41 104.07 318.22 200.35 293.87 174.78 392.41 104.07" style="fill:#FF725E"></polygon><path d="M341.3,153.55c.1.11-6.48,6.54-14.69,14.36s-15,14.09-15.06,14,6.48-6.53,14.7-14.36S341.2,153.45,341.3,153.55Z" style="fill:#263238"></path><path d="M361.85,136.17a61.32,61.32,0,0,1-5.55,5.64,60.66,60.66,0,0,1-5.9,5.26,58.4,58.4,0,0,1,5.55-5.64A57.81,57.81,0,0,1,361.85,136.17Z" style="fill:#263238"></path><path d="M321.78,184.08c-.11-.09,3.81-5,8.75-10.91s9.05-10.68,9.16-10.58-3.81,5-8.76,10.91S321.89,184.17,321.78,184.08Z" style="fill:#263238"></path><polygon points="327.13 150.91 341.3 170.39 352.21 156.23 341.53 140.58 327.13 150.91" style="opacity:0.2"></polygon><path d="M324.33,303.49s32.9-8.39,45.83,0,22.35,20.94,36.33,21.13c15.19.2,32-4.57,40.77,2.68,0,0-.46-10.76-19.39-11.69s-24.85-5.1-31.31-16.52S380,264.64,340.68,267l-25.46,22.7Z" style="fill:#FF725E"></path><path d="M379.15,296.44a2.2,2.2,0,0,1-.39-.31l-1-1c-.44-.43-1-.94-1.67-1.49s-1.4-1.22-2.3-1.85c-.45-.32-.91-.66-1.39-1s-1-.66-1.56-1c-1.06-.72-2.28-1.36-3.54-2.07a48.3,48.3,0,0,0-17.93-5.33c-1.44-.09-2.81-.22-4.1-.19-.64,0-1.27,0-1.86,0l-1.72.1c-1.09,0-2.07.2-2.94.29s-1.6.22-2.21.34l-1.39.24a1.7,1.7,0,0,1-.5,0,1.71,1.71,0,0,1,.48-.15l1.37-.34a20.72,20.72,0,0,1,2.21-.43c.87-.12,1.85-.31,2.95-.37l1.73-.13c.6,0,1.23,0,1.88,0,1.3-.05,2.69.06,4.15.15a50.67,50.67,0,0,1,9.33,1.76,50.12,50.12,0,0,1,8.77,3.62c1.27.72,2.5,1.38,3.56,2.13.54.37,1.07.69,1.55,1.06l1.38,1c.89.65,1.61,1.35,2.27,1.93a17.79,17.79,0,0,1,1.62,1.56l1,1A2.2,2.2,0,0,1,379.15,296.44Z" style="fill:#263238"></path><path d="M429.12,319.82a2.5,2.5,0,0,1-.5.07l-1.43.1c-1.24.07-3,.15-5.27.19a78.27,78.27,0,0,1-17.35-1.35,18.32,18.32,0,0,1-4.71-1.69,27.85,27.85,0,0,1-3.89-2.56,43.18,43.18,0,0,1-5.6-5.5c-1.45-1.69-2.53-3.14-3.27-4.14-.36-.51-.64-.9-.82-1.18s-.28-.42-.26-.43a17.59,17.59,0,0,1,1.24,1.48c.79,1,1.91,2.38,3.39,4a44.54,44.54,0,0,0,5.62,5.36,26.55,26.55,0,0,0,3.83,2.48,18.06,18.06,0,0,0,4.58,1.64,86.42,86.42,0,0,0,17.24,1.49l5.26,0h1.44A1.77,1.77,0,0,1,429.12,319.82Z" style="fill:#263238"></path><path d="M338.25,274.8a5.35,5.35,0,0,1,1.31-.19c.85-.1,2.09-.17,3.62-.2a55.34,55.34,0,0,1,23.27,4.81c1.39.63,2.5,1.18,3.24,1.61a6.11,6.11,0,0,1,1.13.7,7.42,7.42,0,0,1-1.22-.52c-.77-.37-1.9-.87-3.3-1.45a62,62,0,0,0-23.12-4.78c-1.52,0-2.75,0-3.61,0A7.91,7.91,0,0,1,338.25,274.8Z" style="fill:#263238"></path><path d="M332.78,294.82a5.71,5.71,0,0,1,1.12-.49,31.89,31.89,0,0,1,3.17-1,42.47,42.47,0,0,1,21.78,0,31.46,31.46,0,0,1,3.17,1,6.58,6.58,0,0,1,1.12.49c0,.09-1.66-.5-4.38-1.14a46.92,46.92,0,0,0-21.6,0C334.45,294.32,332.81,294.91,332.78,294.82Z" style="fill:#263238"></path><path d="M348,266.84s-8.63,14.61-7,18,2.25,3.76,2.25,3.76l-4.59,12.34,8.05-.52,15.59-28.5-6.6-5.05Z" style="opacity:0.2"></path><polygon points="456.4 240.26 337.28 264.45 335.62 229.19 456.4 240.26" style="fill:#FF725E"></polygon><polyline points="355.51 231.01 351.8 261.5 359.89 259.86 361.89 230.85 354.53 230.85" style="opacity:0.2"></polyline><path d="M385.17,244.52c0,.15-9.07.69-20.28,1.22s-20.31.85-20.31.7,9.07-.69,20.28-1.22S385.17,244.38,385.17,244.52Z" style="fill:#263238"></path><path d="M411.92,243.88a58.51,58.51,0,0,1-7.86.64,61.53,61.53,0,0,1-7.88.11A57.62,57.62,0,0,1,404,244,60.54,60.54,0,0,1,411.92,243.88Z" style="fill:#263238"></path><path d="M350.56,254.49c0-.14,6.14-1.27,13.77-2.52s13.83-2.14,13.85-2-6.14,1.27-13.77,2.52S350.59,254.63,350.56,254.49Z" style="fill:#263238"></path><polygon points="400.21 391.04 299.26 323.33 323.18 297.35 400.21 391.04" style="fill:#FF725E"></polygon><path d="M332,308.1c-4.48,9.89-12,17.1-20.61,23.36l7.1,4.87,18.43-22.24Z" style="opacity:0.2"></path><path d="M347.48,343.29c-.1.1-7-6-15.3-13.72s-15-14-14.94-14.11,6.95,6,15.3,13.72S347.57,343.18,347.48,343.29Z" style="fill:#263238"></path><path d="M366.17,362.65a119.39,119.39,0,0,1-11.63-10.71,61.6,61.6,0,0,1,6,5.16A58.27,58.27,0,0,1,366.17,362.65Z" style="fill:#263238"></path><path d="M315.73,325.81c.09-.12,5.22,3.47,11.47,8s11.24,8.33,11.16,8.45-5.22-3.48-11.47-8S315.65,325.92,315.73,325.81Z" style="fill:#263238"></path><polygon points="233.72 455.63 228 334.21 263.11 337.95 233.72 455.63" style="fill:#FF725E"></polygon><path d="M240.39,384.59c-.15,0,.7-9.08,1.89-20.23s2.27-20.2,2.41-20.19-.71,9.08-1.89,20.24S240.53,384.6,240.39,384.59Z" style="fill:#263238"></path><path d="M236.93,411.12a121.29,121.29,0,0,1,1.67-15.67,57.85,57.85,0,0,1-.57,7.86A57.42,57.42,0,0,1,236.93,411.12Z" style="fill:#263238"></path><path d="M235.82,348.86c.15,0,.32,6.27.39,14s0,14-.14,14-.32-6.26-.39-14S235.68,348.87,235.82,348.86Z" style="fill:#263238"></path><path d="M229.47,364.74s21.36-.38,26.64-2.41a5.42,5.42,0,0,0,1.13-.89l-12.18,48.8-13.62-3.63Z" style="opacity:0.2"></path><circle cx="250.14" cy="249.62" r="92.72" transform="translate(-103.24 249.99) rotate(-45)" style="fill:#FF725E"></circle><path d="M193.15,177.32S200,144.06,191,131.55s-22-21.36-22.81-35.31c-.91-15.17,3.07-32.18-4.58-40.6,0,0,10.77,0,12.58,18.82s6.26,24.58,18,30.5,35.22,15,34.67,54.33l-21.48,26.49Z" style="fill:#FF725E"></path><path d="M197.63,122.23a2,2,0,0,1,.4.3l1.08.92a19.55,19.55,0,0,1,1.63,1.54c.61.63,1.34,1.32,2,2.18l1.12,1.32c.38.47.73,1,1.12,1.51a41.31,41.31,0,0,1,2.3,3.45,46.29,46.29,0,0,1,6.22,17.84c.16,1.45.34,2.83.35,4.13,0,.65.07,1.28.05,1.88s0,1.18-.05,1.73c0,1.11-.15,2.1-.23,3a18.71,18.71,0,0,1-.33,2.22c-.1.56-.2,1-.27,1.39a1.64,1.64,0,0,1-.13.48,1.52,1.52,0,0,1,0-.49c.05-.38.1-.85.17-1.41a21,21,0,0,0,.24-2.22c0-.87.17-1.85.15-2.95,0-.55,0-1.12,0-1.72s-.06-1.22-.08-1.86c0-1.29-.23-2.65-.39-4.09a52.52,52.52,0,0,0-2.22-9.13,51.86,51.86,0,0,0-3.94-8.53c-.76-1.23-1.46-2.41-2.24-3.44-.38-.52-.71-1-1.09-1.51l-1.08-1.33c-.67-.88-1.37-1.57-2-2.22A19.93,19.93,0,0,0,199,123.6l-1-1C197.73,122.38,197.62,122.25,197.63,122.23Z" style="fill:#263238"></path><path d="M171.94,73.41a1.65,1.65,0,0,1,.06.5c0,.39,0,.86.06,1.43.06,1.32.13,3.1.22,5.26a86.49,86.49,0,0,0,2.3,17.15,17.82,17.82,0,0,0,1.85,4.51,25.9,25.9,0,0,0,2.66,3.7,45.6,45.6,0,0,0,5.61,5.37c1.72,1.4,3.18,2.45,4.18,3.19a14.58,14.58,0,0,1,1.54,1.17s-.16-.06-.44-.23l-1.21-.77c-1-.69-2.54-1.7-4.3-3.07a43.94,43.94,0,0,1-5.75-5.34,26.61,26.61,0,0,1-2.73-3.77,18.14,18.14,0,0,1-1.92-4.63,79.63,79.63,0,0,1-2.16-17.26c-.06-2.23-.07-4,0-5.28,0-.57,0-1,0-1.43A2,2,0,0,1,171.94,73.41Z" style="fill:#263238"></path><path d="M221.16,162.08a6.3,6.3,0,0,1-.08-1.32c0-.86,0-2.09-.14-3.61a61.74,61.74,0,0,0-5.85-22.87c-.65-1.38-1.2-2.48-1.61-3.23a7.55,7.55,0,0,1-.57-1.19,6.13,6.13,0,0,1,.75,1.09c.46.73,1.07,1.81,1.76,3.17a55.14,55.14,0,0,1,5.89,23c.05,1.53,0,2.77,0,3.62A7.14,7.14,0,0,1,221.16,162.08Z" style="fill:#263238"></path><path d="M201.41,168.47c-.09,0,.42-1.68.94-4.42a46.7,46.7,0,0,0-1-21.58c-.76-2.68-1.43-4.29-1.34-4.32a5.49,5.49,0,0,1,.54,1.09,32.45,32.45,0,0,1,1.16,3.13,42.25,42.25,0,0,1,1,21.75,31.47,31.47,0,0,1-.86,3.21A5.28,5.28,0,0,1,201.41,168.47Z" style="fill:#263238"></path><polygon points="242.76 44.37 229.9 165.24 265.17 163.57 242.76 44.37" style="fill:#FF725E"></polygon><path d="M245.23,115.68c.14,0,.68,9.08,1.21,20.29s.85,20.3.7,20.31-.69-9.08-1.22-20.29S245.08,115.69,245.23,115.68Z" style="fill:#263238"></path><path d="M243.34,89a57.62,57.62,0,0,1,.63,7.86,60.51,60.51,0,0,1,.12,7.88,58.51,58.51,0,0,1-.64-7.86A61.53,61.53,0,0,1,243.34,89Z" style="fill:#263238"></path><path d="M238.57,151.07c-.15,0,.16-6.26.68-14s1.07-13.95,1.21-13.94-.16,6.26-.69,14S238.71,151.08,238.57,151.07Z" style="fill:#263238"></path><path d="M159,234.77s-17.48-29.11-32.57-32.23S95.81,201.69,85.75,192c-10.94-10.55-19.52-25.76-30.86-26.78,0,0,7.9-7.32,22,5.33s21.24,13.87,33.87,10.3,36-12.83,62.29,16.52l2.12,34Z" style="fill:#FF725E"></path><path d="M125,191.19a1.91,1.91,0,0,1,.49-.05l1.42-.06a21.9,21.9,0,0,1,2.25,0c.87.06,1.87.06,3,.23l1.72.22c.59.08,1.2.23,1.84.35,1.29.21,2.62.6,4,1a46.9,46.9,0,0,1,16.66,8.92c1.09,1,2.16,1.86,3,2.81.45.46.91.89,1.31,1.34l1.13,1.31a29.84,29.84,0,0,1,1.84,2.35,18.36,18.36,0,0,1,1.27,1.85l.74,1.21a2.48,2.48,0,0,1,.23.44s-.13-.12-.32-.38l-.82-1.16c-.34-.5-.78-1.12-1.33-1.79s-1.13-1.48-1.89-2.28l-1.15-1.27c-.4-.44-.86-.86-1.32-1.32-.89-.92-2-1.8-3-2.74a47.8,47.8,0,0,0-16.49-8.83c-1.39-.39-2.71-.79-4-1-.64-.13-1.24-.28-1.83-.37l-1.7-.25c-1.08-.19-2.07-.23-2.94-.31a21.4,21.4,0,0,0-2.23-.11l-1.41,0A1.51,1.51,0,0,1,125,191.19Z" style="fill:#263238"></path><path d="M73.06,172.64s.15.1.38.33l1,1,3.72,3.73a86.39,86.39,0,0,0,13.3,11.06,18.58,18.58,0,0,0,4.41,2.07,27.82,27.82,0,0,0,4.47.93,44.75,44.75,0,0,0,7.76.14c2.22-.13,4-.34,5.24-.48a13.5,13.5,0,0,1,1.93-.17,2.38,2.38,0,0,1-.49.12c-.32.07-.8.15-1.41.25-1.23.2-3,.47-5.24.65a42.9,42.9,0,0,1-7.84,0,28,28,0,0,1-4.57-.91,18.68,18.68,0,0,1-4.54-2.12A79.17,79.17,0,0,1,77.92,178c-1.55-1.6-2.77-2.92-3.61-3.85L73.37,173A2,2,0,0,1,73.06,172.64Z" style="fill:#263238"></path><path d="M169.31,204.59a6.32,6.32,0,0,1-.95-.92c-.58-.63-1.44-1.51-2.54-2.56A61.6,61.6,0,0,0,146,188.24c-1.41-.58-2.56-1-3.37-1.29a7.73,7.73,0,0,1-1.23-.49,5.67,5.67,0,0,1,1.29.3c.83.22,2,.6,3.44,1.13a55.62,55.62,0,0,1,10.67,5.4,54.81,54.81,0,0,1,9.25,7.56c1.07,1.09,1.9,2,2.43,2.68A5.83,5.83,0,0,1,169.31,204.59Z" style="fill:#263238"></path><path d="M159.11,222.67c-.09,0-.83-1.53-2.31-3.9a46.69,46.69,0,0,0-15.33-15.21c-2.38-1.46-4-2.19-3.92-2.27a4.59,4.59,0,0,1,1.14.44,28.93,28.93,0,0,1,3,1.51,42.43,42.43,0,0,1,15.46,15.34c.7,1.22,1.22,2.23,1.54,2.95A5.66,5.66,0,0,1,159.11,222.67Z" style="fill:#263238"></path><polygon points="105.78 104.81 178.13 202.48 202.96 177.38 105.78 104.81" style="fill:#FF725E"></polygon><path d="M155.94,155.26c.1-.11,6.72,6.28,14.78,14.26s14.53,14.53,14.43,14.63-6.73-6.28-14.79-14.26S155.83,155.36,155.94,155.26Z" style="fill:#263238"></path><path d="M135.73,137.48a62.48,62.48,0,0,1,5.8,5.38A60.91,60.91,0,0,1,147,148.6a60.05,60.05,0,0,1-5.8-5.37A57.43,57.43,0,0,1,135.73,137.48Z" style="fill:#263238"></path><path d="M174.88,186.15c-.11.09-4.12-4.73-9-10.75s-8.66-11-8.55-11.08,4.13,4.72,9,10.75S175,186.06,174.88,186.15Z" style="fill:#263238"></path><path d="M175,301.18s-32.73-9-45.81-.85-22.75,20.52-36.73,20.44c-15.2-.09-31.91-5.18-40.81,1.91,0,0,.66-10.75,19.6-11.32s24.94-4.63,31.62-15.92,17.23-34.16,56.48-31l25,23.18Z" style="fill:#FF725E"></path><path d="M120.34,293.09a2,2,0,0,1,.32-.37l1-1a17.11,17.11,0,0,1,1.64-1.53,28.1,28.1,0,0,1,2.31-1.88l1.4-1c.48-.36,1-.67,1.57-1,1.08-.73,2.31-1.37,3.6-2.07a46.41,46.41,0,0,1,18.2-5c1.46-.06,2.85-.15,4.15-.07.65,0,1.28,0,1.88.06l1.72.17c1.11.08,2.09.29,2.95.43a17.55,17.55,0,0,1,2.2.47l1.37.36a1.9,1.9,0,0,1,.47.16,1.56,1.56,0,0,1-.5-.06l-1.39-.27A22.15,22.15,0,0,0,161,280c-.86-.12-1.84-.3-2.93-.35l-1.72-.13c-.59,0-1.21,0-1.86,0-1.28-.06-2.66.05-4.1.12a48.33,48.33,0,0,0-18,5c-1.27.68-2.5,1.3-3.58,2-.54.34-1.09.65-1.58,1l-1.4,1c-.91.61-1.65,1.27-2.34,1.81a18.82,18.82,0,0,0-1.69,1.46l-1.06.94C120.49,293,120.35,293.11,120.34,293.09Z" style="fill:#263238"></path><path d="M69.94,315.52a1.91,1.91,0,0,1,.5,0l1.43,0,5.27.12a85.49,85.49,0,0,0,17.26-1.16A18.13,18.13,0,0,0,99,312.94a27.41,27.41,0,0,0,3.88-2.41,46.61,46.61,0,0,0,5.72-5.25c1.51-1.63,2.66-3,3.46-4a14.29,14.29,0,0,1,1.27-1.45,2,2,0,0,1-.27.42c-.18.27-.47.66-.84,1.16-.76,1-1.86,2.42-3.35,4.08a42.45,42.45,0,0,1-5.7,5.39,27.25,27.25,0,0,1-3.94,2.48A18,18,0,0,1,94.5,315a78.64,78.64,0,0,1-17.37,1c-2.23-.08-4-.19-5.27-.29l-1.43-.13A1.53,1.53,0,0,1,69.94,315.52Z" style="fill:#263238"></path><path d="M161.65,272.23a6.23,6.23,0,0,1-1.33,0c-.85-.05-2.09-.09-3.61-.1a64.38,64.38,0,0,0-11.81,1.05,63.43,63.43,0,0,0-11.39,3.29c-1.42.55-2.55,1-3.33,1.39a5.79,5.79,0,0,1-1.23.49,6.3,6.3,0,0,1,1.14-.67c.75-.41,1.87-.95,3.28-1.55a55.06,55.06,0,0,1,23.35-4.37c1.53.06,2.77.15,3.61.26A6.55,6.55,0,0,1,161.65,272.23Z" style="fill:#263238"></path><path d="M166.73,292.35c0,.09-1.66-.53-4.36-1.23a47.06,47.06,0,0,0-21.59-.43c-2.73.59-4.37,1.15-4.4,1.06a5.8,5.8,0,0,1,1.13-.47c.73-.27,1.82-.6,3.19-.95a42.44,42.44,0,0,1,21.77.44,31.7,31.7,0,0,1,3.15,1.07A6,6,0,0,1,166.73,292.35Z" style="fill:#263238"></path><polygon points="43.6 244.79 163.37 265.55 164.02 230.25 43.6 244.79" style="fill:#FF725E"></polygon><path d="M114.92,247c0-.15,9.1-.1,20.32.11s20.32.49,20.32.64-9.1.09-20.33-.12S114.92,247.15,114.92,247Z" style="fill:#263238"></path><path d="M88.16,247.13a61.5,61.5,0,0,1,7.89-.11,61.22,61.22,0,0,1,7.87.4,58,58,0,0,1-7.88.12A58.27,58.27,0,0,1,88.16,247.13Z" style="fill:#263238"></path><path d="M149.8,256c0,.14-6.24-.57-13.9-1.6s-13.85-2-13.83-2.12,6.24.58,13.9,1.6S149.82,255.83,149.8,256Z" style="fill:#263238"></path><polygon points="97.44 388.08 199.65 322.3 176.24 295.87 97.44 388.08" style="fill:#FF725E"></polygon><path d="M151.07,341.34c-.1-.1,6.71-6.29,15.2-13.82s15.46-13.53,15.55-13.43-6.71,6.3-15.2,13.82S151.17,341.45,151.07,341.34Z" style="fill:#263238"></path><path d="M132,360.34a62.75,62.75,0,0,1,5.74-5.43,59,59,0,0,1,6.09-5.05,62,62,0,0,1-5.74,5.44A59.62,59.62,0,0,1,132,360.34Z" style="fill:#263238"></path><path d="M183.14,324.47c.08.11-5,3.8-11.32,8.23s-11.53,7.92-11.61,7.8,5-3.8,11.31-8.23S183.06,324.35,183.14,324.47Z" style="fill:#263238"></path><path d="M335.92,245s-.06-.48-.13-1.42-.14-2.35-.39-4.18a87.1,87.1,0,0,0-7.4-26.67,85.46,85.46,0,0,0-6.72-12.11,89.06,89.06,0,0,0-23.54-23.94A87.91,87.91,0,0,0,259.94,162a89.18,89.18,0,0,0-34.43,2,93.48,93.48,0,0,0-11.59,3.91,88.15,88.15,0,0,0-39.41,32.57,86.25,86.25,0,0,0-6.62,11.87c-1,2.07-1.81,4.21-2.66,6.36s-1.52,4.36-2.12,6.6a85.74,85.74,0,0,0-2.7,13.75,88,88,0,0,0,1.33,28.29,86.31,86.31,0,0,0,4,13.44c.8,2.19,1.78,4.28,2.73,6.39s2.06,4.11,3.24,6.07a86.77,86.77,0,0,0,7.71,11.2,88.32,88.32,0,0,0,42.31,28.73A94.55,94.55,0,0,0,233.63,336a85.87,85.87,0,0,0,11.86,1.09,87.42,87.42,0,0,0,22.62-2.31,87.82,87.82,0,0,0,36.25-18.18,89.14,89.14,0,0,0,21.17-26,85.45,85.45,0,0,0,5.55-12.69,87,87,0,0,0,3.09-11.22,88.8,88.8,0,0,0,1.76-16c.08-1.84,0-3.25,0-4.19s0-1.44,0-1.44,0,.49.05,1.43.13,2.36.07,4.2a86.24,86.24,0,0,1-4.73,27.33,85,85,0,0,1-5.52,12.74,89.19,89.19,0,0,1-21.2,26.2,88.4,88.4,0,0,1-36.39,18.31,90.17,90.17,0,0,1-34.64,1.27,93.56,93.56,0,0,1-12-2.81A88.56,88.56,0,0,1,179,304.79a86.08,86.08,0,0,1-7.76-11.26c-1.19-2-2.22-4-3.27-6.11s-1.94-4.23-2.75-6.42a87,87,0,0,1-4-13.52,94.19,94.19,0,0,1-1.82-14.17,95.62,95.62,0,0,1,.48-14.28,85.36,85.36,0,0,1,2.73-13.84c.59-2.26,1.37-4.45,2.13-6.64s1.68-4.32,2.67-6.39a87.75,87.75,0,0,1,6.66-11.94,88.71,88.71,0,0,1,39.65-32.74,95.09,95.09,0,0,1,11.66-3.92A88.28,88.28,0,0,1,298,176.36a89.47,89.47,0,0,1,23.58,24.08,88.61,88.61,0,0,1,10.8,23.1,87.13,87.13,0,0,1,3.18,15.83c.23,1.83.24,3.24.33,4.19S335.92,245,335.92,245Z" style="fill:#263238"></path><path d="M248.17,330.66a3.4,3.4,0,0,1-.76,0l-2.2-.07-1.58-.06c-.58,0-1.21-.11-1.88-.17-1.35-.15-2.89-.25-4.57-.56l-2.64-.43c-.92-.16-1.86-.4-2.84-.61-2-.39-4-1-6.2-1.63a92.42,92.42,0,0,1-13.59-5.52,90.77,90.77,0,0,1-12.43-7.79c-1.77-1.4-3.48-2.7-4.95-4.07-.74-.67-1.49-1.29-2.15-1.95l-1.9-1.89c-1.23-1.17-2.22-2.37-3.13-3.37-.44-.51-.87-1-1.24-1.42l-1-1.25-1.34-1.75a5.41,5.41,0,0,1-.44-.62,3.3,3.3,0,0,1,.52.56l1.41,1.68c.31.37.65.77,1,1.22s.82.88,1.27,1.38c.93,1,1.92,2.16,3.17,3.31l1.91,1.86c.67.64,1.42,1.25,2.17,1.91,1.47,1.35,3.18,2.63,5,4a86.2,86.2,0,0,0,25.88,13.24c2.15.62,4.19,1.26,6.15,1.67,1,.21,1.9.47,2.81.63l2.63.46c1.67.34,3.2.46,4.54.64.67.08,1.29.17,1.87.22l1.57.1,2.19.16A5.12,5.12,0,0,1,248.17,330.66Z" style="fill:#263238"></path><path d="M328.94,240.28a1,1,0,0,1-.05-.25c0-.2-.06-.45-.1-.75-.1-.66-.17-1.65-.39-2.89a87.3,87.3,0,0,0-2.2-10.49A85.83,85.83,0,0,0,320.66,211a72.29,72.29,0,0,0-4.56-8.18,59.29,59.29,0,0,0-6.05-8,93.53,93.53,0,0,0-14.34-13.09,68.66,68.66,0,0,0-7.17-4.53c-1.18-.61-2.3-1.24-3.43-1.73-.56-.26-1.1-.52-1.64-.76l-1.61-.66a75.33,75.33,0,0,0-10.19-3.28c-1.22-.31-2.19-.5-2.84-.66l-.74-.17a1.68,1.68,0,0,1-.25-.08,1,1,0,0,1,.26,0l.75.13c.66.13,1.63.28,2.87.56A69.08,69.08,0,0,1,282,173.74l1.62.64,1.66.76c1.14.48,2.28,1.11,3.47,1.71a67.56,67.56,0,0,1,7.24,4.52,92,92,0,0,1,14.44,13.13,58.46,58.46,0,0,1,6.1,8.08,70.86,70.86,0,0,1,4.56,8.25,84.9,84.9,0,0,1,5.47,15,77.22,77.22,0,0,1,2,10.55c.19,1.25.22,2.24.29,2.91,0,.3,0,.55.05.75A.83.83,0,0,1,328.94,240.28Z" style="fill:#fff"></path><path d="M330,250.37a1.36,1.36,0,0,1,0,.3c0,.23,0,.52,0,.89,0,.78,0,1.94-.18,3.41a79.63,79.63,0,0,1-2,12.41c-.6,2.59-1.44,5.38-2.45,8.34a85.43,85.43,0,0,1-3.87,9.2,82.07,82.07,0,0,1-30.16,33.63,90,90,0,0,1-8.72,4.84,85.86,85.86,0,0,1-8,3.33A79.11,79.11,0,0,1,262.47,330c-1.45.31-2.6.42-3.37.55l-.88.12-.3,0,.29-.07.87-.17c.77-.17,1.91-.31,3.35-.65a85.49,85.49,0,0,0,12-3.46c2.49-.9,5.15-2.05,8-3.38a88.41,88.41,0,0,0,8.65-4.86,82.4,82.4,0,0,0,30-33.44,86.8,86.8,0,0,0,3.89-9.12c1-2.94,1.88-5.71,2.5-8.28A85.62,85.62,0,0,0,329.6,255c.18-1.47.2-2.63.28-3.4l.07-.89A1,1,0,0,1,330,250.37Z" style="fill:#fff"></path><path d="M167.08,255.08a6.77,6.77,0,0,1,.22,1.27c.14.92.3,2.08.5,3.46.44,2.92,1.17,6.94,2.29,11.31s2.4,8.25,3.42,11l1.22,3.28a5.3,5.3,0,0,1,.41,1.22,6,6,0,0,1-.59-1.14c-.36-.75-.84-1.85-1.39-3.23a92.72,92.72,0,0,1-3.58-11,90.38,90.38,0,0,1-2.14-11.39c-.18-1.47-.29-2.67-.34-3.49A5.54,5.54,0,0,1,167.08,255.08Z" style="fill:#263238"></path><path d="M167.41,231.45a60,60,0,0,1-.33,7.9,61.81,61.81,0,0,1-.85,7.86,60,60,0,0,1,.33-7.9A61.81,61.81,0,0,1,167.41,231.45Z" style="fill:#263238"></path><path d="M269.79,243.06c.61-.93,5.33,2.35,11.44,1.73s10.2-4.62,11-3.81c.37.35-.17,2-1.94,3.82a13.87,13.87,0,0,1-17.88,1.67C270.3,245,269.49,243.48,269.79,243.06Z" style="fill:#263238"></path><path d="M208.84,242.67c.9-.7,4.81,3.72,11.25,4.87s11.78-1.45,12.33-.48c.28.44-.73,1.82-3.08,3.05a15.81,15.81,0,0,1-10.05,1.42,15.47,15.47,0,0,1-8.77-4.92C208.83,244.62,208.42,243,208.84,242.67Z" style="fill:#263238"></path><path d="M251.5,275.29c0-.32,3.47-1,9.14-1.76,1.43-.16,2.79-.47,3-1.45s-.29-2.59-1-4.25l-4.38-10.91c-6.09-15.53-10.51-28.31-9.89-28.55s6.08,12.15,12.17,27.69c1.46,3.83,2.87,7.48,4.2,11,.57,1.63,1.52,3.47.81,5.64a3.6,3.6,0,0,1-2.34,2.13,9.85,9.85,0,0,1-2.44.37C255.07,275.54,251.53,275.61,251.5,275.29Z" style="fill:#263238"></path><path d="M232.42,276.23c.92-.06,1,6.06,6.28,10.34s11.79,3.53,11.85,4.38c.09.39-1.44,1.21-4.19,1.32a15.23,15.23,0,0,1-9.88-3.32,13.26,13.26,0,0,1-4.88-8.67C231.34,277.73,232,276.2,232.42,276.23Z" style="fill:#263238"></path><path d="M232.05,216.4c-.53,1.54-6.17.87-12.77,1.75s-11.93,2.74-12.82,1.37c-.4-.65.51-2.1,2.65-3.61a22.42,22.42,0,0,1,19.5-2.38C231.05,214.48,232.28,215.67,232.05,216.4Z" style="fill:#263238"></path><path d="M286.51,212.67c-1.12,1.29-5.57,0-10.91,0-5.33-.16-9.84,1-10.9-.35-.46-.64.23-1.93,2.19-3.17a16.81,16.81,0,0,1,8.85-2.2,16.49,16.49,0,0,1,8.72,2.47C286.36,210.73,287,212,286.51,212.67Z" style="fill:#263238"></path><g style="opacity:0.2"><path d="M197.82,258c5.67,3.66,11.7,9.45,14.42,16.36,1.65,4.18,2.34,9.3-.4,12.86a10.08,10.08,0,0,1-8.07,3.58,18.82,18.82,0,0,1-8.68-2.57,33.67,33.67,0,0,1-12.36-11.52,20.54,20.54,0,0,1-3.52-10.14,11.66,11.66,0,0,1,4.13-9.61c2.87-2.2,9.7-2.63,14.81,1.26"></path></g><g style="opacity:0.2"><path d="M311.49,269.57c-3.76,5.61-9.65,11.54-16.6,14.14-4.21,1.57-9.35,2.18-12.86-.62a10.11,10.11,0,0,1-3.44-8.13,18.86,18.86,0,0,1,2.72-8.64,33.79,33.79,0,0,1,11.74-12.16,20.52,20.52,0,0,1,10.2-3.34,11.62,11.62,0,0,1,9.53,4.3c2.16,2.91,2.46,9.74-1.52,14.78"></path></g><path d="M271.15,236a3.77,3.77,0,0,1,.68-.72,25.41,25.41,0,0,1,2.05-1.74,12.76,12.76,0,0,1,3.54-1.93,7.62,7.62,0,0,1,4.94-.09,7.41,7.41,0,0,1,3.74,3.23,12.51,12.51,0,0,1,1.44,3.76,25.09,25.09,0,0,1,.42,2.66,3.18,3.18,0,0,1,.05,1c-.09,0-.28-1.38-.83-3.56a13.2,13.2,0,0,0-1.49-3.59,7.12,7.12,0,0,0-3.51-3,7.28,7.28,0,0,0-4.62.06,13.16,13.16,0,0,0-3.46,1.77C272.27,235.17,271.21,236.1,271.15,236Z" style="fill:#263238"></path><path d="M212.34,236.85a4.27,4.27,0,0,1,1-.55,28.93,28.93,0,0,1,2.83-1.2,15.07,15.07,0,0,1,4.51-.93,9.29,9.29,0,0,1,5.46,1.38,8.19,8.19,0,0,1,3.24,4.6,13.75,13.75,0,0,1,.49,4.58,28.14,28.14,0,0,1-.32,3.06,4.52,4.52,0,0,1-.24,1.11c-.09,0,.13-1.61.19-4.18a14.36,14.36,0,0,0-.58-4.43,7.91,7.91,0,0,0-3.06-4.31,9.17,9.17,0,0,0-5.17-1.33,15.64,15.64,0,0,0-4.4.8C213.84,236.26,212.37,236.94,212.34,236.85Z" style="fill:#263238"></path><g style="opacity:0.1"><path d="M270.91,236.1c-.24.74-1.47.61-1.82-.08a2.41,2.41,0,0,1,.29-2.22c1.76-3.21,7.57-6.07,11.22-5.71s6.07,1.73,7.47,6.47c.12.42.55.68.65,1.1a1,1,0,0,1-.39,1.13c-.71.41-1.45-.41-1.93-1.07a9.26,9.26,0,0,0-14.32-.81"></path></g><g style="opacity:0.1"><path d="M212.4,236.88c-.4-1.41.9-2.72,2.18-3.46a12.31,12.31,0,0,1,12.15-.23c3.66,2.16,5.75,6.9,4.39,10.93-.14.41-.4.89-.84.9s-.78-.6-.9-1.1c-.62-2.6-1-5.46-2.93-7.35a8.16,8.16,0,0,0-6.48-2,24,24,0,0,0-6.7,1.9"></path></g><path d="M283.82,239.52c-.15,0-.2-1.22-.74-2.58s-1.31-2.29-1.2-2.39a5,5,0,0,1,1.94,5Z" style="fill:#fff"></path><path d="M258,267.93c-.13.05-2.79-7-5.94-15.76s-5.58-15.88-5.45-15.93,2.8,7,5.94,15.76S258.15,267.88,258,267.93Z" style="fill:#fff"></path><path d="M226.23,244.72c-.16,0-.14-1.7-.72-3.67s-1.49-3.4-1.36-3.49a8.56,8.56,0,0,1,2.08,7.16Z" style="fill:#fff"></path><path d="M326.2,156.23a30.66,30.66,0,0,1-2.9,1.71,73.83,73.83,0,0,0-6.74,4.46,71.43,71.43,0,0,0-6.16,5.23,31.77,31.77,0,0,1-2.45,2.3s.16-.28.54-.73.93-1.08,1.65-1.83a51.39,51.39,0,0,1,6.11-5.39,52.93,52.93,0,0,1,6.87-4.36c.93-.48,1.69-.85,2.22-1.07A3.05,3.05,0,0,1,326.2,156.23Z" style="fill:#fff"></path><path d="M342.89,186.63a29.59,29.59,0,0,1-2.68,1.5,54.25,54.25,0,0,0-11.8,8.76A29.36,29.36,0,0,1,326.2,199a13.19,13.19,0,0,1,1.95-2.38,41.7,41.7,0,0,1,5.55-4.95A42.62,42.62,0,0,1,340,187.8,13.07,13.07,0,0,1,342.89,186.63Z" style="fill:#fff"></path><path d="M356.47,235.7a49.81,49.81,0,0,1-7.09,1.06,48.38,48.38,0,0,1-7.14.54,51.26,51.26,0,0,1,7.08-1.06A50.18,50.18,0,0,1,356.47,235.7Z" style="fill:#fff"></path><path d="M325.44,312.72a28.33,28.33,0,0,1-2-2.48,28.29,28.29,0,0,1-2.16-2.37,6.27,6.27,0,0,1,2.55,2A6.36,6.36,0,0,1,325.44,312.72Z" style="fill:#fff"></path><path d="M252.41,357.66a48.09,48.09,0,0,1,3-9.68,49.86,49.86,0,0,1-3,9.68Z" style="fill:#fff"></path><path d="M189.1,325.44c.07.12-12.67,8.44-28.46,18.57S132,362.27,131.9,362.14s12.66-8.43,28.46-18.57S189,325.32,189.1,325.44Z" style="fill:#fff"></path><path d="M127.56,294.75c0,.1-1.72.86-4.22,2.65a45.44,45.44,0,0,0-4.2,3.42c-1.51,1.37-3.12,2.93-4.82,4.58s-3.36,3.17-4.94,4.49a33.82,33.82,0,0,1-4.47,3.14,16,16,0,0,1-1.86,1,11,11,0,0,1-1.46.61,7.12,7.12,0,0,1-1.29.4c0-.11,1.8-.68,4.42-2.3a35.93,35.93,0,0,0,4.36-3.19c1.55-1.33,3.19-2.86,4.88-4.5s3.33-3.2,4.86-4.56a40.2,40.2,0,0,1,4.31-3.36,19.4,19.4,0,0,1,1.78-1.1,10.14,10.14,0,0,1,1.41-.73A6.85,6.85,0,0,1,127.56,294.75Z" style="fill:#fff"></path><path d="M157,261.47c0,.14-15.65-2.16-34.91-5.14s-34.86-5.51-34.84-5.65,15.65,2.16,34.92,5.14S157,261.33,157,261.47Z" style="fill:#fff"></path><path d="M151.94,221a3.22,3.22,0,0,1-.53-.54L150,218.81c-1.25-1.41-3.05-3.46-5.37-5.88a70.65,70.65,0,0,0-8.75-7.86,37.64,37.64,0,0,0-12.8-6.35,92.48,92.48,0,0,0-14.24-2.21,80.63,80.63,0,0,1-11.69-1.86,30,30,0,0,1-7.43-2.92c-.83-.45-1.4-.92-1.82-1.18a3.5,3.5,0,0,1-.6-.46,4.18,4.18,0,0,1,.66.37c.43.24,1,.67,1.86,1.09a31.51,31.51,0,0,0,7.42,2.74A83.75,83.75,0,0,0,108.86,196a88.79,88.79,0,0,1,14.33,2.19,37.61,37.61,0,0,1,12.94,6.46,67.84,67.84,0,0,1,8.74,8c2.29,2.46,4,4.55,5.25,6,.57.69,1,1.25,1.37,1.68A4.21,4.21,0,0,1,151.94,221Z" style="fill:#fff"></path><path d="M229.58,170.05a6.44,6.44,0,0,1-.76.19l-2.21.47L225,171c-.58.13-1.2.32-1.87.5-1.33.38-2.88.72-4.52,1.34l-2.59.89c-.9.32-1.81.74-2.76,1.12-1.92.74-3.86,1.76-5.93,2.79a76,76,0,0,0-23.17,18.84c-1.42,1.82-2.82,3.51-3.94,5.24-.57.85-1.17,1.65-1.66,2.47s-.95,1.6-1.4,2.36c-.94,1.47-1.59,2.92-2.23,4.15-.31.62-.62,1.19-.87,1.73s-.45,1-.64,1.5l-.91,2.06a3.82,3.82,0,0,1-.35.71,5.58,5.58,0,0,1,.25-.75c.21-.52.48-1.22.82-2.1.18-.47.38-1,.6-1.52s.54-1.13.83-1.76c.63-1.25,1.26-2.71,2.18-4.21l1.38-2.39c.49-.82,1.08-1.63,1.65-2.49,1.1-1.75,2.5-3.47,3.92-5.31a81,81,0,0,1,10.69-10.67,81.92,81.92,0,0,1,12.62-8.29c2.09-1,4.06-2,6-2.76,1-.38,1.87-.79,2.78-1.1l2.62-.86a46.46,46.46,0,0,1,4.56-1.27c.68-.17,1.3-.34,1.89-.46l1.61-.28,2.23-.37A3.81,3.81,0,0,1,229.58,170.05Z" style="fill:#fff"></path><path d="M160.31,149a7.21,7.21,0,0,1,1.13,1l3,2.71c2.53,2.29,6.07,5.39,10.11,8.65s7.84,6.05,10.61,8l3.29,2.33a8.84,8.84,0,0,1,1.18.9,7.83,7.83,0,0,1-1.29-.73c-.82-.5-2-1.25-3.39-2.2-2.83-1.91-6.66-4.66-10.72-7.93s-7.57-6.42-10-8.78c-1.23-1.18-2.21-2.15-2.87-2.84A7.87,7.87,0,0,1,160.31,149Z" style="fill:#fff"></path><path d="M145.3,312.72c.08.12-13.84,9.52-31.08,21s-31.29,20.7-31.37,20.58,13.83-9.53,31.08-21S145.22,312.6,145.3,312.72Z" style="fill:#263238"></path><path d="M106.2,265.69c0,.14-13.65,2.2-30.54,4.58s-30.6,4.21-30.62,4.07,13.66-2.19,30.55-4.58S106.18,265.55,106.2,265.69Z" style="fill:#263238"></path><path d="M86.66,279.58a81.61,81.61,0,0,1-9,2.3,85,85,0,0,1-9.08,1.79,79,79,0,0,1,9-2.3A82.08,82.08,0,0,1,86.66,279.58Z" style="fill:#263238"></path><path d="M127.36,220.85c0,.14-15.12-2.72-33.71-6.39S60,207.69,60,207.55s15.12,2.72,33.71,6.39S127.39,220.71,127.36,220.85Z" style="fill:#263238"></path><path d="M129.92,159.56c-.07.13-6.66-3.35-14.71-7.75s-14.53-8.09-14.46-8.22,6.65,3.35,14.71,7.76S130,159.43,129.92,159.56Z" style="fill:#263238"></path><path d="M180.28,140.42c-.11.09-7.13-8.54-15.69-19.28s-15.39-19.51-15.28-19.6,7.14,8.54,15.69,19.28S180.39,140.33,180.28,140.42Z" style="fill:#263238"></path><path d="M147.9,114.52c-.11.1-3.46-3.29-7.5-7.57A106.29,106.29,0,0,1,133.28,99c.1-.1,3.46,3.29,7.5,7.57S148,114.42,147.9,114.52Z" style="fill:#263238"></path><path d="M224.9,117.49a2.13,2.13,0,0,1-.11-.51c-.06-.4-.13-.89-.22-1.48-.19-1.37-.45-3.21-.76-5.45-.64-4.6-1.57-11-2.75-17.94s-2.38-13.29-3.29-17.84c-.44-2.22-.8-4-1.07-5.4-.11-.59-.21-1.07-.28-1.47a1.68,1.68,0,0,1-.06-.52,2.1,2.1,0,0,1,.16.5c.1.39.23.87.37,1.45.32,1.26.74,3.09,1.24,5.36,1,4.54,2.27,10.84,3.45,17.84s2,13.36,2.6,18c.27,2.31.47,4.18.59,5.47q.07.9.12,1.5A1.59,1.59,0,0,1,224.9,117.49Z" style="fill:#263238"></path><path d="M319,136a92.14,92.14,0,0,1-5.28,8.19,92.12,92.12,0,0,1-5.72,7.9,91.92,91.92,0,0,1,5.29-8.2A87.88,87.88,0,0,1,319,136Z" style="fill:#263238"></path><path d="M160.32,378.45c.12.08-5.4,8.64-12.32,19.11s-12.64,18.91-12.76,18.83,5.39-8.64,12.32-19.11S160.2,378.37,160.32,378.45Z" style="fill:#263238"></path><path d="M142.91,385.58a35.58,35.58,0,0,1,3.82-4.69,35.08,35.08,0,0,1,4.21-4.34,35.58,35.58,0,0,1-3.82,4.69A35.94,35.94,0,0,1,142.91,385.58Z" style="fill:#263238"></path><path d="M203.59,442.3c-.14,0,1.35-7.47,3.31-16.61s3.68-16.53,3.82-16.5-1.34,7.47-3.31,16.61S203.73,442.33,203.59,442.3Z" style="fill:#263238"></path><path d="M267.94,435.28a41.87,41.87,0,0,1-.51-6.51,40.72,40.72,0,0,1,0-6.54,83.72,83.72,0,0,1,.49,13Z" style="fill:#263238"></path><path d="M279.46,430.77a14.6,14.6,0,0,1-1.26-3.7,15,15,0,0,1-.75-3.83,14.47,14.47,0,0,1,1.25,3.69A15.22,15.22,0,0,1,279.46,430.77Z" style="fill:#263238"></path><path d="M359.73,412.22a57.79,57.79,0,0,1-4-6.65,57.19,57.19,0,0,1-3.54-6.9,58.41,58.41,0,0,1,4,6.65A57.19,57.19,0,0,1,359.73,412.22Z" style="fill:#263238"></path><path d="M432.09,354.93c-.09.12-4.13-2.64-9-6.17s-8.82-6.48-8.74-6.6,4.13,2.65,9,6.18S432.17,354.82,432.09,354.93Z" style="fill:#263238"></path><path d="M271.7,84.46a162.34,162.34,0,0,0-39.63,4.89c75.8,1.53,128.63,64.73,128.63,140.9,0,77.13-54.38,138.39-131.51,138.39a139.23,139.23,0,0,1-97-39.2,162.21,162.21,0,1,0,139.52-245Z" style="fill:#455a64"></path><g style="opacity:0.2"><path d="M200.18,392.29c2.59,1,5,2.49,7.64,3.54,1.73-4.27,3.62-9.08,3.47-13.68-.08-2.21-.6-4.41-.33-6.6.32-2.67,1.86-5.41,3.28-7.71l-11.33-1.62-6.25,23Z"></path></g><path d="M382.73,241.32c.84.77,5.07-3.34,11.59-4s11.63,2.33,12.25,1.41c.31-.42-.59-1.87-2.84-3.28a15.92,15.92,0,0,0-9.92-2.17,15.42,15.42,0,0,0-9.11,4.24C382.86,239.38,382.33,241,382.73,241.32Z" style="fill:#263238"></path><path d="M391.84,281.17c-.92-.06-1,6.05-6.29,10.33s-11.79,3.54-11.84,4.39c-.09.38,1.44,1.21,4.19,1.31a15.23,15.23,0,0,0,9.88-3.31,13.29,13.29,0,0,0,4.88-8.67C392.92,282.66,392.26,281.14,391.84,281.17Z" style="fill:#263238"></path><path d="M381.79,215c.54,1.54,6.17.88,12.77,1.75s11.93,2.74,12.83,1.38c.39-.65-.52-2.11-2.66-3.62a22.41,22.41,0,0,0-19.5-2.38C382.79,213.1,381.56,214.29,381.79,215Z" style="fill:#263238"></path><path d="M320.45,127.13s10.13-6.53,12.69-12.71S336,97.72,336,97.72l-9.59-3.79-12.76,26.78Z" style="opacity:0.2"></path><g style="opacity:0.2"><path d="M275.34,360.64c5.13,4.87,8.74,12.73,8.71,19.81,0,5.66-1.88,11.27-1.35,16.91a20.26,20.26,0,0,0,4.47,10.87l9.3-1.24L295,372.89l-9.51-16.5Z"></path></g><path d="M369.06,244.07l-21.13,36a3.07,3.07,0,0,0,1.58,4.43l11.15,4.11Z" style="fill:#455a64"></path><path d="M359,287c.08-.31-3.26-1.51-8.73-3.21-1.39-.4-2.68-.91-2.75-1.92s.71-2.51,1.68-4c1.94-3.19,4-6.54,6.09-10.05,8.52-14.35,15-26.24,14.37-26.58s-8,11-16.48,25.36l-5.92,10.15c-.82,1.52-2.06,3.18-1.71,5.43a3.63,3.63,0,0,0,2,2.49,9.71,9.71,0,0,0,2.35.75C355.42,286.65,358.9,287.29,359,287Z" style="fill:#263238"></path><g style="opacity:0.1"><path d="M411.61,263a11.9,11.9,0,0,0-5.74-2.21,20.5,20.5,0,0,0-16.95,5.62c-1.74,1.71-3.23,4.11-2.62,6.47a5.77,5.77,0,0,0,4.7,3.82l4.71.81a31.84,31.84,0,0,0,11.89-1.87c3.22-1.1,6.42-3.88,6.64-7.27A6.53,6.53,0,0,0,411.61,263Z"></path></g><path d="M416.92,262.36a33.52,33.52,0,0,0-6-2.75,24.8,24.8,0,0,0-7.05-1.17,23.34,23.34,0,0,0-16.11,5.76,24.94,24.94,0,0,0-4.7,5.37,34.18,34.18,0,0,0-2.91,5.94,2.16,2.16,0,0,1,.1-.46,13.21,13.21,0,0,1,.38-1.27,22.72,22.72,0,0,1,2.12-4.41A24,24,0,0,1,411,259.26a21.87,21.87,0,0,1,4.44,2.07c.5.29.85.57,1.1.74A1.75,1.75,0,0,1,416.92,262.36Z" style="fill:#263238"></path><g style="opacity:0.1"><path d="M389.76,288.26A6.61,6.61,0,0,0,377.49,290a9,9,0,0,0,1.24,6.25A9.92,9.92,0,0,0,382.3,300a6,6,0,0,0,9.28-5.21,9.85,9.85,0,0,0-2.74-7"></path></g><path d="M386.72,247.74a4.49,4.49,0,0,0,4.06,4.77,4.28,4.28,0,0,0,4.85-3.76,4.49,4.49,0,0,0-4.05-4.78A4.3,4.3,0,0,0,386.72,247.74Z" style="fill:#263238"></path><path d="M420,193a2.2,2.2,0,0,1-.25-.51l-.64-1.5c-.54-1.3-1.35-3.18-2.38-5.48A158.52,158.52,0,0,0,396.27,152c-1.57-2-2.87-3.55-3.79-4.63l-1-1.25a2,2,0,0,1-.33-.46,2.64,2.64,0,0,1,.41.39l1.11,1.19c1,1,2.31,2.58,3.92,4.53a140.48,140.48,0,0,1,20.52,33.68c1,2.33,1.76,4.23,2.24,5.56l.54,1.54A2.29,2.29,0,0,1,420,193Z" style="fill:#263238"></path><path d="M367.84,123.37a3.24,3.24,0,0,1,.87.4c.55.28,1.32.73,2.25,1.32a42.75,42.75,0,0,1,6.71,5.37,42.13,42.13,0,0,1,5.51,6.59,25.72,25.72,0,0,1,1.37,2.22,3.46,3.46,0,0,1,.42.86c-.07,0-.8-1.11-2.09-2.87a51.48,51.48,0,0,0-12.13-11.86C369,124.14,367.8,123.45,367.84,123.37Z" style="fill:#263238"></path><path d="M286.57,402.76a7,7,0,0,1-.73.2l-2.12.48-1.53.33-1.85.29c-1.32.21-2.83.46-4.51.6l-2.63.27-2.87.16c-2,.15-4.1.1-6.33.15a139.38,139.38,0,0,1-14.47-1c-5.1-.67-9.92-1.61-14.27-2.62-2.15-.56-4.22-1-6.11-1.63l-2.76-.81-2.51-.84c-1.6-.51-3-1.05-4.28-1.53s-2.33-.89-3.19-1.27l-2-.86a4.1,4.1,0,0,1-.68-.34,5.79,5.79,0,0,1,.72.24l2,.77c.87.36,1.95.76,3.21,1.19s2.69,1,4.3,1.46l2.51.8,2.75.78c1.9.57,4,1,6.11,1.57,4.34,1,9.14,1.9,14.23,2.57s10,.95,14.41,1.06c2.22,0,4.33,0,6.3-.1l2.86-.13,2.63-.23c1.67-.12,3.18-.34,4.5-.53l1.85-.25,1.53-.28,2.14-.38A3.26,3.26,0,0,1,286.57,402.76Z" style="fill:#263238"></path><path d="M321.78,124.9a1.47,1.47,0,0,1,.25.2l.7.65,2.66,2.54,1.92,1.84c.67.7,1.38,1.48,2.15,2.31,1.52,1.68,3.33,3.53,5.08,5.79l2.83,3.48c1,1.23,1.87,2.57,2.86,3.93,2,2.67,3.89,5.75,5.93,8.93a150.53,150.53,0,0,1,10.84,22,144.19,144.19,0,0,1,6.71,23.62c.57,3.73,1.25,7.26,1.45,10.62.14,1.67.33,3.29.42,4.84s.07,3.06.1,4.49c.15,2.85-.06,5.43-.15,7.7-.06,1.13-.1,2.19-.17,3.15s-.23,1.85-.32,2.64c-.2,1.56-.36,2.78-.47,3.65-.06.39-.1.7-.13.94a1.51,1.51,0,0,1-.07.32,1.93,1.93,0,0,1,0-.32c0-.25.05-.56.09-1,.08-.87.21-2.09.36-3.65.09-.79.18-1.67.28-2.64s.08-2,.12-3.15c.07-2.26.25-4.83.09-7.68-.05-1.42-.1-2.91-.14-4.46s-.3-3.16-.45-4.83c-.22-3.34-.92-6.86-1.49-10.58a147.31,147.31,0,0,0-6.73-23.51,153.8,153.8,0,0,0-10.76-22c-2-3.18-3.86-6.25-5.87-8.93-1-1.36-1.88-2.71-2.83-3.93s-1.91-2.38-2.8-3.49c-1.72-2.27-3.51-4.13-5-5.83-.76-.84-1.45-1.63-2.11-2.34l-1.88-1.87-2.59-2.6-.67-.69A1.16,1.16,0,0,1,321.78,124.9Z" style="fill:#fff"></path><path d="M366.15,254.16c.12.07-3.33,6-7.71,13.35s-8,13.17-8.15,13.09,3.33-6.05,7.71-13.35S366,254.08,366.15,254.16Z" style="fill:#fff"></path><path d="M316.5,340.76a2.69,2.69,0,0,1,.43-.43l1.3-1.15c.58-.48,1.27-1.09,2-1.82s1.71-1.52,2.66-2.47c1.95-1.85,4.19-4.15,6.57-6.79s4.84-5.68,7.27-9,4.53-6.6,6.35-9.66,3.31-5.89,4.47-8.31c.62-1.2,1.1-2.32,1.55-3.28s.83-1.82,1.12-2.51l.69-1.59a2.53,2.53,0,0,1,.28-.54,2.06,2.06,0,0,1-.18.58l-.61,1.63c-.26.7-.6,1.56-1,2.54s-.89,2.12-1.48,3.33c-1.13,2.45-2.62,5.3-4.4,8.4s-3.92,6.38-6.34,9.72-4.95,6.34-7.34,9-4.68,4.92-6.67,6.74c-1,.93-1.91,1.71-2.71,2.42s-1.52,1.29-2.12,1.76L317,340.41A3.51,3.51,0,0,1,316.5,340.76Z" style="fill:#fff"></path><path d="M272.72,366.6a2.41,2.41,0,0,1-.47.23l-1.38.58c-.6.25-1.34.55-2.22.85s-1.86.68-3,1a82,82,0,0,1-7.93,2.1,93.88,93.88,0,0,1-9.92,1.53,95.09,95.09,0,0,1-10,.36c-3.09-.08-5.86-.29-8.18-.58-1.16-.11-2.2-.3-3.12-.44s-1.7-.28-2.34-.42l-1.46-.31a1.72,1.72,0,0,1-.51-.14,2.12,2.12,0,0,1,.53,0l1.48.22c.64.1,1.43.22,2.35.32s2,.27,3.11.36c2.31.25,5.08.41,8.15.47s6.44-.08,10-.4,6.87-.88,9.88-1.48,5.69-1.3,7.91-2c1.12-.3,2.11-.66,3-.93s1.64-.54,2.25-.77l1.41-.49A1.91,1.91,0,0,1,272.72,366.6Z" style="fill:#fff"></path><path d="M174.08,360.36a21.49,21.49,0,0,1-4.35-1.71,21.52,21.52,0,0,1-4.14-2.18,20.79,20.79,0,0,1,4.35,1.71A20.89,20.89,0,0,1,174.08,360.36Z" style="fill:#fff"></path><path d="M392.7,207.39a20.56,20.56,0,0,1-4.6.23,21.12,21.12,0,0,1-4.6-.29,19.88,19.88,0,0,1,4.6-.23A20.4,20.4,0,0,1,392.7,207.39Z" style="fill:#fff"></path><path d="M295.25,102.9a7.73,7.73,0,0,1-1.23-.68c-.77-.48-1.9-1.13-3.32-1.91a74.34,74.34,0,0,0-11.52-5.12A75.16,75.16,0,0,0,267,92.12c-1.59-.26-2.89-.44-3.79-.54a8.25,8.25,0,0,1-1.39-.22,6.6,6.6,0,0,1,1.41,0c.91,0,2.22.16,3.83.38a64.56,64.56,0,0,1,12.34,2.94A63.9,63.9,0,0,1,290.88,100c1.4.82,2.51,1.53,3.25,2.06A7.35,7.35,0,0,1,295.25,102.9Z" style="fill:#fff"></path><path d="M418.61,300.91a1.89,1.89,0,0,1-.14.34c-.11.25-.25.58-.44,1L416.3,306c-.78,1.64-1.65,3.68-2.83,6l-4,7.77c-1.57,2.83-3.4,5.88-5.31,9.18l-3.23,5c-1.11,1.7-2.22,3.48-3.53,5.18l-3.9,5.31c-1.39,1.76-2.88,3.51-4.35,5.32s-3.1,3.54-4.74,5.31l-2.48,2.67c-.84.89-1.77,1.7-2.65,2.56a129.1,129.1,0,0,1-21.92,17.23,143.17,143.17,0,0,1-20.17,10.57c-1.5.63-2.9,1.28-4.26,1.81L329,391.31l-3.37,1.26-2.87.93-4,1.27-1,.31-.36.1a1.79,1.79,0,0,1,.34-.15l1-.36,4-1.36,2.85-1,3.34-1.3,3.85-1.48c1.35-.54,2.75-1.2,4.23-1.84a146.27,146.27,0,0,0,20.06-10.64,130.62,130.62,0,0,0,21.81-17.19c.89-.86,1.81-1.67,2.65-2.56l2.47-2.65c1.64-1.76,3.29-3.46,4.73-5.29s3-3.54,4.35-5.3l3.9-5.28c1.31-1.69,2.42-3.46,3.54-5.15l3.24-4.93c1.92-3.28,3.77-6.31,5.36-9.13l4.1-7.72c1.2-2.27,2.1-4.3,2.9-5.92s1.4-2.87,1.83-3.76c.2-.4.36-.73.49-1A2.21,2.21,0,0,1,418.61,300.91Z" style="fill:#263238"></path><path d="M429,246.76a1.78,1.78,0,0,1,.07.49c0,.39.07.85.11,1.42.1,1.23.16,3,.17,5.21a99.19,99.19,0,0,1-5.88,33.77c-.75,2.07-1.41,3.72-1.92,4.84l-.58,1.3c-.14.29-.22.44-.24.43a1.56,1.56,0,0,1,.14-.47l.49-1.33c.45-1.15,1.06-2.82,1.76-4.9a109.45,109.45,0,0,0,5.86-33.64c0-2.2,0-4,0-5.2,0-.57,0-1,0-1.42A1.72,1.72,0,0,1,429,246.76Z" style="fill:#263238"></path><path d="M426.76,230.85A9.55,9.55,0,0,1,427,233a10,10,0,0,1,.29,2.13,4.65,4.65,0,0,1-.57-4.27Z" style="fill:#263238"></path><path d="M262.66,336.92s27.63,19.73,29.54,35-1.59,30.6,7.29,41.39c9.64,11.75,24.13,21.51,24.24,32.89,0,0,7.93-7.29-3.57-22.36S308,401.6,312.59,389.3s16.07-35.86-11.1-64.36l-19.79,8.12Z" style="fill:#FF725E"></path><path d="M303.4,374.26a1.68,1.68,0,0,1,0-.49c0-.39,0-.85.07-1.42s.08-1.36.06-2.23,0-1.86-.07-3c0-.54-.08-1.12-.12-1.71s-.15-1.21-.22-1.85c-.13-1.28-.43-2.62-.7-4a53.59,53.59,0,0,0-2.91-8.94,52.79,52.79,0,0,0-4.59-8.2c-.85-1.17-1.64-2.3-2.49-3.26-.42-.49-.8-1-1.21-1.42L290,336.49c-.73-.82-1.49-1.46-2.12-2.06a20.39,20.39,0,0,0-1.68-1.47l-1.08-.91a1.88,1.88,0,0,1-.36-.34s.15.07.42.26l1.15.83a18.35,18.35,0,0,1,1.74,1.41,29.32,29.32,0,0,1,2.19,2l1.22,1.24c.42.43.81.92,1.24,1.41.87,1,1.68,2.09,2.56,3.26a46.71,46.71,0,0,1,7.57,17.31c.26,1.44.54,2.8.66,4.1.06.64.16,1.26.19,1.87s.06,1.17.08,1.73a29.53,29.53,0,0,1,0,3,19.3,19.3,0,0,1-.15,2.24c-.07.56-.12,1-.17,1.41A1.45,1.45,0,0,1,303.4,374.26Z" style="fill:#263238"></path><path d="M317.77,427.53s-.15-.11-.38-.34l-1-1c-.86-.9-2.08-2.22-3.54-3.9a78.14,78.14,0,0,1-10.16-14.13,18.42,18.42,0,0,1-1.75-4.69,27.26,27.26,0,0,1-.55-4.62A43.14,43.14,0,0,1,301,391c.36-2.2.77-4,1.07-5.17.14-.6.27-1.07.36-1.38a1.89,1.89,0,0,1,.16-.48,13.81,13.81,0,0,1-.33,1.91c-.23,1.22-.58,3-.89,5.18a45.19,45.19,0,0,0-.47,7.75,27.11,27.11,0,0,0,.57,4.53,18,18,0,0,0,1.71,4.56,85.14,85.14,0,0,0,10,14.13l3.41,4,.93,1.09A1.86,1.86,0,0,1,317.77,427.53Z" style="fill:#263238"></path><path d="M293.55,329.05a6,6,0,0,1,1,.88c.62.59,1.47,1.48,2.48,2.64a55,55,0,0,1,11.34,20.88c.41,1.47.7,2.68.85,3.52a5.48,5.48,0,0,1,.2,1.31A7,7,0,0,1,309,357c-.22-.82-.56-2-1-3.46a63.13,63.13,0,0,0-4.63-10.91,64.1,64.1,0,0,0-6.63-9.84c-1-1.17-1.77-2.1-2.35-2.73A8,8,0,0,1,293.55,329.05Z" style="fill:#263238"></path><path d="M274.73,337.79a5.43,5.43,0,0,1,1.09.54,32,32,0,0,1,2.83,1.76,42.23,42.23,0,0,1,8.11,7.4,42.71,42.71,0,0,1,5.95,9.23A32.33,32.33,0,0,1,294,359.8a4.9,4.9,0,0,1,.35,1.17c-.09,0-.69-1.6-1.95-4.09a46.8,46.8,0,0,0-13.95-16.49C276.19,338.73,274.68,337.87,274.73,337.79Z" style="fill:#263238"></path><path d="M304.67,405.31a3.94,3.94,0,0,1-.14-.78,14.3,14.3,0,0,1-.22-2.25,27.66,27.66,0,0,1,1-8.22,98.64,98.64,0,0,1,4.12-11.59c.84-2.15,1.73-4.41,2.47-6.8a44.23,44.23,0,0,0,1.61-7.56A43.18,43.18,0,0,0,307.94,342a45.37,45.37,0,0,0-4.82-6.68c-.65-.73-1.19-1.26-1.54-1.65a4.19,4.19,0,0,1-.51-.59,6.15,6.15,0,0,1,.59.52c.37.36.93.87,1.61,1.58a42.45,42.45,0,0,1,10.78,33,45.09,45.09,0,0,1-1.64,7.65c-.76,2.41-1.66,4.68-2.51,6.83a105.61,105.61,0,0,0-4.22,11.5,29.62,29.62,0,0,0-1.17,8.13,19.26,19.26,0,0,0,.12,2.24A4.67,4.67,0,0,1,304.67,405.31Z" style="fill:#fff"></path><path d="M299.65,173.61s-5.73-30.45,3.51-42.8S325.52,109.88,326.63,96c1.19-15.15-2.47-32.24,5.35-40.51,0,0-10.77-.25-12.94,18.58s-6.72,24.46-18.54,30.15S265,118.46,264.81,157.84l20.6,7.4Z" style="fill:#FF725E"></path><path d="M296.69,121.38a2.12,2.12,0,0,1-.33.36l-1,1c-.44.4-1,.9-1.57,1.53s-1.3,1.28-2,2.12-1.48,1.7-2.21,2.73-1.5,2.13-2.28,3.32A45.68,45.68,0,0,0,281,149.58c-.19,1.41-.38,2.75-.43,4s-.1,2.43-.1,3.51.08,2,.11,2.89a21.8,21.8,0,0,0,.2,2.19c.06.55.11,1,.15,1.38a1.87,1.87,0,0,1,0,.49,2.14,2.14,0,0,1-.12-.48c-.06-.37-.15-.82-.24-1.37a18.8,18.8,0,0,1-.29-2.18c-.06-.86-.2-1.83-.19-2.92a32.65,32.65,0,0,1,0-3.54c0-1.27.21-2.62.39-4.05a43.93,43.93,0,0,1,6.43-17.37,40.26,40.26,0,0,1,2.34-3.33,33.37,33.37,0,0,1,2.27-2.71c.7-.83,1.44-1.48,2.05-2.09a19,19,0,0,1,1.64-1.47l1.08-.88C296.55,121.46,296.68,121.36,296.69,121.38Z" style="fill:#263238"></path><path d="M323.3,73.05a1.77,1.77,0,0,1,0,.5V75c0,1.25,0,3-.15,5.28a78.51,78.51,0,0,1-2.48,17.22,18.58,18.58,0,0,1-2,4.59,26.28,26.28,0,0,1-2.8,3.71,42.6,42.6,0,0,1-5.85,5.23c-1.79,1.34-3.3,2.32-4.35,3-.53.33-.94.58-1.23.74s-.44.25-.45.23a16.36,16.36,0,0,1,1.56-1.14c1-.72,2.5-1.74,4.24-3.11a44.94,44.94,0,0,0,5.72-5.26,26.8,26.8,0,0,0,2.73-3.66,17.77,17.77,0,0,0,1.93-4.47,84.92,84.92,0,0,0,2.62-17.1c.13-2.16.24-3.93.32-5.25,0-.57.07-1,.09-1.43A1.82,1.82,0,0,1,323.3,73.05Z" style="fill:#263238"></path><path d="M272.41,160.77a7,7,0,0,1-.1-1.32c0-.86,0-2.1,0-3.63a55.32,55.32,0,0,1,6.33-22.9c.72-1.35,1.35-2.42,1.82-3.13a6.31,6.31,0,0,1,.77-1.08,6.24,6.24,0,0,1-.6,1.19c-.42.74-1,1.83-1.67,3.19a64,64,0,0,0-4.23,11.08,63.18,63.18,0,0,0-2,11.68c-.12,1.51-.19,2.75-.21,3.6A6.08,6.08,0,0,1,272.41,160.77Z" style="fill:#263238"></path><path d="M292,167.54a5.3,5.3,0,0,1-.42-1.15c-.24-.75-.52-1.85-.81-3.23a42.5,42.5,0,0,1,1.41-21.73,31.46,31.46,0,0,1,1.22-3.1,6.25,6.25,0,0,1,.56-1.09c.09,0-.61,1.63-1.43,4.3a47,47,0,0,0-1.39,21.55C291.64,165.84,292.13,167.51,292,167.54Z" style="fill:#263238"></path><path d="M296.78,110.55a25.67,25.67,0,0,0-13.87,6,33.1,33.1,0,0,0-6.45,7.28,53.71,53.71,0,0,0-6.64,16.42c-.54,2.21-.92,4-1.17,5.28l-.3,1.44a3.19,3.19,0,0,1-.14.5,1.72,1.72,0,0,1,0-.52c0-.33.11-.83.21-1.46.19-1.26.51-3.09,1-5.33A51,51,0,0,1,276,123.54a32.21,32.21,0,0,1,6.58-7.37,26.64,26.64,0,0,1,6.93-4.13,21.21,21.21,0,0,1,5.25-1.38,12.94,12.94,0,0,1,1.48-.12A1.79,1.79,0,0,1,296.78,110.55Z" style="fill:#fff"></path><path d="M319.77,77.36a4.2,4.2,0,0,1,.17,1,24.2,24.2,0,0,1,.11,2.86A31.51,31.51,0,0,1,314.19,99a23.92,23.92,0,0,1-1.79,2.23,4.66,4.66,0,0,1-.75.74c-.08-.07.91-1.19,2.24-3.18a34.66,34.66,0,0,0,5.79-17.51C319.8,78.86,319.68,77.37,319.77,77.36Z" style="fill:#fff"></path><path d="M235.8,337.53s-27.68,15.89-31.08,30.93-1.41,30.6-11.3,40.48C182.67,419.68,167.3,428,166.07,439.3c0,0-7.17-8,5.74-21.9s14.26-21,10.92-33.67-14.32-35.19,15.51-60.9l23.87,11.56Z" style="fill:#FF725E"></path><path d="M193.35,369.67a1.34,1.34,0,0,1,0-.47c0-.37,0-.81,0-1.35a41.25,41.25,0,0,1,.19-5c.12-1,.2-2.18.44-3.4.11-.6.2-1.23.33-1.88s.31-1.3.46-2a44.37,44.37,0,0,1,3.1-8.46,41.26,41.26,0,0,1,4.91-7.56c.46-.53.9-1,1.34-1.53s.91-.92,1.34-1.36a28.41,28.41,0,0,1,2.55-2.29c.78-.7,1.6-1.2,2.26-1.7a17.76,17.76,0,0,1,1.79-1.17l1.16-.68c.27-.15.41-.22.42-.2a1.65,1.65,0,0,1-.37.29l-1.1.77a19.28,19.28,0,0,0-1.73,1.22c-.64.52-1.43,1-2.19,1.75s-1.66,1.42-2.49,2.31c-.42.45-.89.87-1.31,1.37l-1.3,1.52a42.88,42.88,0,0,0-4.81,7.49,45.59,45.59,0,0,0-3.1,8.35q-.26,1-.48,2c-.14.63-.24,1.26-.36,1.86-.25,1.19-.35,2.33-.49,3.36-.23,2.07-.34,3.75-.36,4.91,0,.54,0,1-.06,1.35A2.65,2.65,0,0,1,193.35,369.67Z" style="fill:#263238"></path><path d="M173.84,421.27a2.32,2.32,0,0,1,.34-.37l1-1,3.79-3.65a86.51,86.51,0,0,0,11.31-13.09,18.53,18.53,0,0,0,2.15-4.38,27.56,27.56,0,0,0,1-4.45,46.12,46.12,0,0,0,.29-7.76c-.09-2.21-.27-4-.39-5.24a16,16,0,0,1-.14-1.93,1.64,1.64,0,0,1,.12.49c.06.32.14.8.22,1.41.18,1.24.41,3,.55,5.25a41.55,41.55,0,0,1-.18,7.85,26,26,0,0,1-1,4.54,18.2,18.2,0,0,1-2.2,4.5,77.89,77.89,0,0,1-11.49,13.07c-1.62,1.53-3,2.72-3.91,3.54l-1.09.92A2.2,2.2,0,0,1,173.84,421.27Z" style="fill:#263238"></path><path d="M205.79,328.25a5.15,5.15,0,0,1-.86.85c-.57.52-1.39,1.28-2.39,2.23a48.43,48.43,0,0,0-12,17.68c-.52,1.28-.92,2.33-1.18,3.05a5.13,5.13,0,0,1-.48,1.11,6.06,6.06,0,0,1,.28-1.17c.21-.75.56-1.82,1-3.12a43.44,43.44,0,0,1,12.06-17.82c1-.92,1.9-1.65,2.51-2.11A5.37,5.37,0,0,1,205.79,328.25Z" style="fill:#263238"></path><path d="M225.44,336.17c0,.08-1.54.8-3.94,2.23A46.95,46.95,0,0,0,206,353.45c-1.5,2.35-2.26,3.91-2.34,3.87a5.26,5.26,0,0,1,.46-1.13,29.78,29.78,0,0,1,1.57-2.94,42.3,42.3,0,0,1,15.62-15.17,30.71,30.71,0,0,1,3-1.48A4.94,4.94,0,0,1,225.44,336.17Z" style="fill:#263238"></path><path d="M191.71,404.3a2.68,2.68,0,0,1,.38-.58,15.46,15.46,0,0,0,1.09-1.66,23.61,23.61,0,0,0,2.68-6.74,68.33,68.33,0,0,0,1.44-10.73,72.64,72.64,0,0,1,1.86-13.21A48.59,48.59,0,0,1,211,350.43a47.89,47.89,0,0,1,5.51-4.86c.7-.51,1.26-.88,1.64-1.13a3.56,3.56,0,0,1,.6-.37,3.42,3.42,0,0,1-.54.45l-1.58,1.21a55.53,55.53,0,0,0-5.36,5,49.44,49.44,0,0,0-11.58,20.83,73.59,73.59,0,0,0-1.89,13.11,63.85,63.85,0,0,1-1.57,10.78,22.28,22.28,0,0,1-2.86,6.76,11.25,11.25,0,0,1-1.18,1.61A4.24,4.24,0,0,1,191.71,404.3Z" style="fill:#fff"></path></g></svg>