<svg xmlns="http://www.w3.org/2000/svg" viewBox="0 0 750 500"><g id="freepik--background-complete--inject-4"><polygon points="425.8 0 375 323.81 324.2 0 425.8 0" style="fill:#a6a6a6"></polygon><polygon points="375 323.81 81.79 0 218.07 0 375 323.81" style="fill:#a6a6a6"></polygon><polygon points="375 323.81 0 192.36 0 78.22 375 323.81" style="fill:#a6a6a6"></polygon><polygon points="375 323.81 0 323.81 0 281.27 375 323.81" style="fill:#a6a6a6"></polygon><polygon points="750 281.27 750 323.81 375 323.81 750 281.27" style="fill:#a6a6a6"></polygon><polygon points="750 78.22 750 192.36 375 323.81 750 78.22" style="fill:#a6a6a6"></polygon><polygon points="668.21 0 375 323.81 531.93 0 668.21 0" style="fill:#a6a6a6"></polygon><g style="opacity:0.9"><polygon points="425.8 0 375 323.81 324.2 0 425.8 0" style="fill:#fff"></polygon><polygon points="375 323.81 81.79 0 218.07 0 375 323.81" style="fill:#fff"></polygon><polygon points="375 323.81 0 192.36 0 78.22 375 323.81" style="fill:#fff"></polygon><polygon points="375 323.81 0 323.81 0 281.27 375 323.81" style="fill:#fff"></polygon><polygon points="750 281.27 750 323.81 375 323.81 750 281.27" style="fill:#fff"></polygon><polygon points="750 78.22 750 192.36 375 323.81 750 78.22" style="fill:#fff"></polygon><polygon points="668.21 0 375 323.81 531.93 0 668.21 0" style="fill:#fff"></polygon></g><polygon points="150.9 100.26 149.96 102.17 147.84 102.48 149.37 103.97 149.01 106.07 150.9 105.08 152.79 106.07 152.43 103.97 153.96 102.48 151.85 102.17 150.9 100.26" style="fill:#dbdbdb"></polygon><polygon points="248.48 39.6 247.53 41.51 245.42 41.82 246.95 43.31 246.59 45.41 248.48 44.42 250.37 45.41 250.01 43.31 251.53 41.82 249.42 41.51 248.48 39.6" style="fill:#dbdbdb"></polygon><polygon points="194.4 190.94 193.45 192.85 191.34 193.16 192.87 194.65 192.51 196.75 194.4 195.76 196.29 196.75 195.93 194.65 197.46 193.16 195.34 192.85 194.4 190.94" style="fill:#dbdbdb"></polygon><polygon points="29.5 97.35 28.56 99.26 26.45 99.57 27.98 101.06 27.61 103.16 29.5 102.17 31.39 103.16 31.03 101.06 32.56 99.57 30.45 99.26 29.5 97.35" style="fill:#dbdbdb"></polygon><polygon points="48.58 152.11 47.64 154.02 45.53 154.33 47.05 155.82 46.69 157.92 48.58 156.93 50.47 157.92 50.11 155.82 51.64 154.33 49.53 154.02 48.58 152.11" style="fill:#dbdbdb"></polygon><polygon points="327.42 147.4 326.47 149.32 324.36 149.63 325.89 151.12 325.53 153.22 327.42 152.23 329.31 153.22 328.95 151.12 330.47 149.63 328.36 149.32 327.42 147.4" style="fill:#dbdbdb"></polygon><polygon points="551.33 24.01 550.38 25.93 548.27 26.23 549.8 27.72 549.44 29.83 551.33 28.84 553.22 29.83 552.86 27.72 554.38 26.23 552.27 25.93 551.33 24.01" style="fill:#dbdbdb"></polygon><polygon points="72.54 56.66 71.6 58.57 69.48 58.88 71.01 60.37 70.65 62.47 72.54 61.48 74.43 62.47 74.07 60.37 75.6 58.88 73.49 58.57 72.54 56.66" style="fill:#dbdbdb"></polygon><polygon points="469.71 71.84 468.77 73.75 466.65 74.06 468.18 75.55 467.82 77.65 469.71 76.66 471.6 77.65 471.24 75.55 472.77 74.06 470.65 73.75 469.71 71.84" style="fill:#dbdbdb"></polygon><polygon points="320.19 77.65 319.24 79.57 317.13 79.87 318.66 81.36 318.3 83.47 320.19 82.47 322.08 83.47 321.71 81.36 323.24 79.87 321.13 79.57 320.19 77.65" style="fill:#dbdbdb"></polygon><polygon points="539.41 171.88 538.47 173.79 536.35 174.1 537.88 175.59 537.52 177.69 539.41 176.7 541.3 177.69 540.94 175.59 542.47 174.1 540.36 173.79 539.41 171.88" style="fill:#dbdbdb"></polygon><polygon points="703.88 42.51 702.93 44.42 700.82 44.73 702.35 46.22 701.99 48.32 703.88 47.33 705.77 48.32 705.41 46.22 706.93 44.73 704.82 44.42 703.88 42.51" style="fill:#dbdbdb"></polygon><polygon points="607.31 46.8 606.73 47.98 605.42 48.17 606.37 49.09 606.14 50.39 607.31 49.78 608.48 50.39 608.25 49.09 609.2 48.17 607.89 47.98 607.31 46.8" style="fill:#dbdbdb"></polygon><polygon points="459.45 82.09 458.87 83.28 457.56 83.47 458.51 84.39 458.29 85.69 459.45 85.07 460.62 85.69 460.4 84.39 461.34 83.47 460.04 83.28 459.45 82.09" style="fill:#dbdbdb"></polygon><polygon points="274.94 59.56 274.36 60.74 273.06 60.94 274 61.86 273.78 63.16 274.94 62.54 276.11 63.16 275.89 61.86 276.83 60.94 275.53 60.74 274.94 59.56" style="fill:#dbdbdb"></polygon><polygon points="439.35 161.91 438.77 163.09 437.46 163.28 438.4 164.2 438.18 165.5 439.35 164.88 440.52 165.5 440.3 164.2 441.24 163.28 439.93 163.09 439.35 161.91" style="fill:#dbdbdb"></polygon><polygon points="584.4 123.75 583.82 124.93 582.52 125.12 583.46 126.04 583.24 127.34 584.4 126.72 585.57 127.34 585.35 126.04 586.29 125.12 584.99 124.93 584.4 123.75" style="fill:#dbdbdb"></polygon><polygon points="703.88 227.61 703.29 228.79 701.99 228.98 702.93 229.9 702.71 231.2 703.88 230.59 705.04 231.2 704.82 229.9 705.77 228.98 704.46 228.79 703.88 227.61" style="fill:#dbdbdb"></polygon><polygon points="109.95 137.57 109.37 138.75 108.06 138.94 109.01 139.86 108.79 141.16 109.95 140.55 111.12 141.16 110.9 139.86 111.84 138.94 110.54 138.75 109.95 137.57" style="fill:#dbdbdb"></polygon><polygon points="214.85 203.76 214.27 204.94 212.96 205.13 213.91 206.05 213.69 207.35 214.85 206.74 216.02 207.35 215.8 206.05 216.74 205.13 215.44 204.94 214.85 203.76" style="fill:#dbdbdb"></polygon><polygon points="332.29 170.08 331.71 171.26 330.4 171.45 331.35 172.37 331.12 173.67 332.29 173.06 333.46 173.67 333.24 172.37 334.18 171.45 332.88 171.26 332.29 170.08" style="fill:#dbdbdb"></polygon><polygon points="427.59 125.54 427.01 126.72 425.7 126.92 426.65 127.84 426.42 129.14 427.59 128.52 428.76 129.14 428.54 127.84 429.48 126.92 428.18 126.72 427.59 125.54" style="fill:#dbdbdb"></polygon><polygon points="601.24 120.06 600.65 121.25 599.35 121.44 600.29 122.36 600.07 123.66 601.24 123.04 602.41 123.66 602.18 122.36 603.13 121.44 601.82 121.25 601.24 120.06" style="fill:#dbdbdb"></polygon><polygon points="681.68 104.37 681.1 105.55 679.79 105.74 680.74 106.66 680.51 107.96 681.68 107.35 682.85 107.96 682.63 106.66 683.57 105.74 682.27 105.55 681.68 104.37" style="fill:#dbdbdb"></polygon><polygon points="77.39 37.8 76.81 38.99 75.5 39.17 76.44 40.1 76.22 41.4 77.39 40.78 78.56 41.4 78.33 40.1 79.28 39.17 77.97 38.99 77.39 37.8" style="fill:#dbdbdb"></polygon><polygon points="721.08 57.77 720.5 58.95 719.2 59.14 720.14 60.06 719.92 61.36 721.08 60.74 722.25 61.36 722.03 60.06 722.97 59.14 721.67 58.95 721.08 57.77" style="fill:#dbdbdb"></polygon><path d="M251.58,182.26h-149s33.3-20.77,59.53-20.77,34,13.85,34,13.85,18.51-6.46,35.66-5.31S251.58,182.26,251.58,182.26Z" style="fill:#dbdbdb"></path><path d="M403.82,227.62h-149s33.3-20.77,59.53-20.77,34,13.85,34,13.85,18.51-6.46,35.66-5.31S403.82,227.62,403.82,227.62Z" style="fill:#dbdbdb"></path><path d="M668.28,221.45h-149s33.3-20.77,59.53-20.77,34,13.85,34,13.85,18.51-6.46,35.66-5.31S668.28,221.45,668.28,221.45Z" style="fill:#dbdbdb"></path><path d="M340.78,278.61H50.56S90.31,240.42,132.82,238s62.85,28.38,62.85,28.38,27.42-10.87,49-10.87,38.2,14.32,38.2,14.32S326,260.05,340.78,278.61Z" style="fill:#dbdbdb"></path><path d="M696.72,263.84H378.31s43.6-30.16,90.25-32,68.95,22.41,68.95,22.41,30.09-8.59,53.75-8.59a87.6,87.6,0,0,1,41.91,11.31S680.5,249.18,696.72,263.84Z" style="fill:#dbdbdb"></path></g><g id="freepik--Moon--inject-4"><path d="M609.2,99.21a31.63,31.63,0,1,0,34.45-46.56A29.58,29.58,0,1,1,609.2,99.21Z" style="fill:#FFC727"></path></g><g id="freepik--Sun--inject-4"><path d="M462.16,373.23c0,.85,0,1.71,0,2.56H287.88c0-.85,0-1.71,0-2.56a87.16,87.16,0,0,1,174.32,0Z" style="fill:#FFC727"></path><polygon points="320.19 323.72 316.01 324.49 315.08 328.89 314.14 324.49 309.97 323.71 314.13 322.7 315.08 318.54 316.03 322.7 320.19 323.72" style="fill:#fff"></polygon><polygon points="427.59 313.03 423.42 313.8 422.48 318.2 421.55 313.8 417.38 313.02 421.53 312.01 422.48 307.85 423.43 312.01 427.59 313.03" style="fill:#fff"></polygon><path d="M307.93,303.48a.43.43,0,0,0,0,.86A.43.43,0,0,0,307.93,303.48Z" style="fill:#fff"></path><path d="M389.36,334.11a.44.44,0,0,0,0,.87A.44.44,0,0,0,389.36,334.11Z" style="fill:#fff"></path><polygon points="355.01 294.87 352.36 295.36 351.76 298.15 351.17 295.36 348.51 294.86 351.16 294.22 351.76 291.57 352.37 294.22 355.01 294.87" style="fill:#fff"></polygon><path d="M372.3,316.87a.83.83,0,0,0,0,1.65A.83.83,0,0,0,372.3,316.87Z" style="fill:#fff"></path><polygon points="332.29 331.74 330.81 332.01 330.48 333.58 330.14 332.01 328.66 331.74 330.14 331.38 330.48 329.9 330.81 331.38 332.29 331.74" style="fill:#fff"></polygon><polygon points="402.22 330.21 400.74 330.49 400.41 332.05 400.07 330.49 398.59 330.21 400.07 329.85 400.41 328.37 400.75 329.85 402.22 330.21" style="fill:#fff"></polygon></g><g id="freepik--Sea--inject-4"><g style="opacity:0.30000000000000004"><path d="M232.26,375.79s115.63,3.21,115.36,8.84c-.15,3.21-91.78,4.95-91.78,10,0,2.93,98.81,4,98.81,7.24,0,2-41.67,4.42-41.67,6.5,0,3.15,61.31,4.62,61.71,6.23s-74.05,2-74.05,6.84c0,4.15,66.35,2.68,66.35,4.69s-26.94,3.75-26.94,5.76,60.25,2.41,62.24,4.42S324,439.17,324,441.58s60.11,2.82,60.11,4.69-26,4.74-26,4.74,37-2.59,37-5.14-18.58-2.81-19-3.22S432,439.3,432,435s-51.36-5-51.36-5.76,47.91-2.28,47.91-5.9-58.79-3.21-58.79-4,76.31-3.92,76.31-5.93c0-3.72-61-4.52-61-6.4,0-3.35,84-1.13,84-6.89,0-3.49-66.41-4.3-66.36-7.85.07-4.7,112.74-4.83,112.74-10.19,0-4-48.11-6.28-48.11-6.28H241.21" style="fill:#FFC727"></path><path d="M477.27,398.29s22.3,1.67,27.87,1.81,17.26-1.81,17.26-1.81Z" style="fill:#FFC727"></path><path d="M58.83,413s22.29,1.67,27.87,1.81S104,413,104,413Z" style="fill:#FFC727"></path><path d="M130.93,391.55s38.26,3,47.82,3.22,29.6-3.22,29.6-3.22Z" style="fill:#FFC727"></path><path d="M213.65,411.78s47.51,4,59.38,4.32,36.76-4.32,36.76-4.32Z" style="fill:#FFC727"></path><path d="M522.7,430.31s-32.72,4.26-40.91,4.6-25.32-4.6-25.32-4.6Z" style="fill:#FFC727"></path><path d="M414,378.72s22.29,2.81,27.87,3,17.25-3,17.25-3Z" style="fill:#fff"></path><path d="M267.74,380.24s-32.68,3.3-40.85,3.57-25.29-3.57-25.29-3.57Z" style="fill:#FFC727"></path><path d="M665.13,407.19s-68.47,4.11-85.59,4.44-53-4.44-53-4.44Z" style="fill:#FFC727"></path><path d="M277,427.63s11.67,1.74,15.76,1.81,17.34-1.81,17.34-1.81Z" style="fill:#FFC727"></path><path d="M527.66,434s11.67,1.74,15.76,1.81S560.76,434,560.76,434Z" style="fill:#FFC727"></path><path d="M394.72,442.38s6,1.75,8.12,1.81,8.94-1.81,8.94-1.81Z" style="fill:#FFC727"></path><path d="M431.77,417s8.45,1.19,11.41,1.23S455.74,417,455.74,417Z" style="fill:#FFC727"></path><path d="M345.87,391.06s-9.21,1.67-11.51,1.81-19.28-1.81-19.28-1.81Z" style="fill:#fff"></path><path d="M401.45,387.11s-6.23,1.68-7.78,1.81-13.05-1.81-13.05-1.81Z" style="fill:#fff"></path><polygon points="353.06 382.06 348.45 382.91 347.42 387.78 346.39 382.91 341.77 382.06 346.37 380.94 347.42 376.34 348.47 380.94 353.06 382.06" style="fill:#fff"></polygon><polygon points="419.65 402.69 415.04 403.54 414.01 408.41 412.98 403.54 408.36 402.69 412.95 401.56 414.01 396.97 415.06 401.56 419.65 402.69" style="fill:#fff"></polygon><path d="M395.49,391.82a.48.48,0,0,0,0,.95A.48.48,0,0,0,395.49,391.82Z" style="fill:#fff"></path><path d="M355.05,389.49a.48.48,0,0,0,0,.95A.48.48,0,0,0,355.05,389.49Z" style="fill:#fff"></path><path d="M339.46,419.48a.48.48,0,0,0,0,.95A.48.48,0,0,0,339.46,419.48Z" style="fill:#fff"></path><path d="M400.87,436.66a.48.48,0,0,0,0,.95A.48.48,0,0,0,400.87,436.66Z" style="fill:#fff"></path><path d="M289.16,397a.48.48,0,0,0,0,.95A.48.48,0,0,0,289.16,397Z" style="fill:#fff"></path><path d="M504.64,379.55a.48.48,0,0,0,0,.95A.48.48,0,0,0,504.64,379.55Z" style="fill:#fff"></path><path d="M239.36,380.86a.48.48,0,0,0,0,.95A.48.48,0,0,0,239.36,380.86Z" style="fill:#fff"></path><path d="M325.59,383.43a.92.92,0,0,0,0,1.83A.92.92,0,0,0,325.59,383.43Z" style="fill:#fff"></path><path d="M315.08,422a.91.91,0,0,0,0,1.82A.91.91,0,0,0,315.08,422Z" style="fill:#fff"></path><polygon points="481.77 380.86 478.84 381.4 478.18 384.5 477.53 381.4 474.59 380.86 477.51 380.15 478.18 377.23 478.85 380.15 481.77 380.86" style="fill:#fff"></polygon><polygon points="284.79 396.97 281.86 397.51 281.2 400.61 280.55 397.51 277.62 396.97 280.54 396.26 281.2 393.34 281.87 396.26 284.79 396.97" style="fill:#fff"></polygon><polygon points="449.4 399.48 447.76 399.78 447.39 401.51 447.03 399.78 445.39 399.48 447.02 399.08 447.39 397.45 447.77 399.08 449.4 399.48" style="fill:#fff"></polygon><path d="M439.6,386.2a.91.91,0,0,0,0,1.82A.91.91,0,0,0,439.6,386.2Z" style="fill:#fff"></path><polygon points="364.48 421.99 362.84 422.29 362.48 424.02 362.11 422.29 360.47 421.99 362.1 421.59 362.48 419.96 362.85 421.59 364.48 421.99" style="fill:#fff"></polygon><polygon points="247.84 381.67 246.2 381.98 245.84 383.7 245.47 381.98 243.83 381.67 245.46 381.27 245.84 379.64 246.21 381.27 247.84 381.67" style="fill:#fff"></polygon><polygon points="368.49 387.11 366.85 387.41 366.49 389.14 366.12 387.41 364.48 387.11 366.11 386.71 366.49 385.08 366.86 386.71 368.49 387.11" style="fill:#fff"></polygon></g><path d="M712.94,375.79c-216.51.61-459.37.61-675.88,0,216.51-.62,459.37-.61,675.88,0Z" style="fill:#263238"></path></g><g id="freepik--Mountains--inject-4"><path d="M711.66,375.79s-53-64.8-63.79-70.61c-8.23-4.43-31.37-41.39-48.14-67.22-2-3.12-9.76-.56-11.62-3.45-6.27-9.8-11.35-17.94-14-22.12-5.35-8.55-36.2-4.61-41.24,0-2.59,2.36-18.89,41.74-30.55,58.26-3.74,5.31-28.33,8.7-38.42,11.42C454.16,284.7,426,330.34,418.4,334c-41.88,20.14-52.23,38.13-60.56,41.79H711.66Z" style="fill:#FFC727"></path><path d="M711.66,375.79s-53-64.8-63.79-70.61c-8.23-4.43-31.37-41.39-48.14-67.22-2-3.12-9.76-.56-11.62-3.45-6.27-9.8-11.35-17.94-14-22.12-5.35-8.55-36.2-4.61-41.24,0-2.59,2.36-18.89,41.74-30.55,58.26-3.74,5.31-28.33,8.7-38.42,11.42C454.16,284.7,426,330.34,418.4,334c-41.88,20.14-52.23,38.13-60.56,41.79H711.66Z" style="fill:#fff;opacity:0.5"></path><path d="M711.66,375.77v0l0,0Z" style="fill:#fff;opacity:0.5"></path><path d="M711.66,375.77v0Z" style="opacity:0.4"></path><path d="M711.66,375.77v0l0,0Z" style="opacity:0.2"></path><path d="M711.64,375.77H500.87c12.74-8.59,39.87-27.2,42.25-31.2,3.11-5.23,7.15-43.07,8.31-48.09s22.73-35,23.63-40.4-2.67-44.74-2.74-45.55h0s0,0,0,0a1,1,0,0,1,.23.17,2.61,2.61,0,0,1,.27.22l.25.21c.07.08.15.14.21.22a2.77,2.77,0,0,1,.24.25l.09.11a2.11,2.11,0,0,1,.19.23l.11.16c.06.1.12.17.18.27s.25.39.38.61.28.44.42.67.3.47.45.71l.48.76c2.85,4.53,7.15,11.4,12.25,19.36a1.63,1.63,0,0,0,.23.29,1.29,1.29,0,0,0,.24.23,2.13,2.13,0,0,0,.34.25,2,2,0,0,0,.29.15s.68,19,.54,20.65-6.38,13.72-6.75,16.33.56,12.68,0,14.83c-.35,1.25-6.57,14.43-8.21,17.65-.45.88,4.48.3,4.61.3.62,0,6.44-11.71,7.56-12.55s2.05-16.59,2.83-17.78,8.36-14.23,9.35-15.67.63-21.22.63-21.22c3.14,4.84,6.51,10.07,10,15.41.86,1.33,1.73,2.68,2.6,4l.88,1.35q1.19,1.85,2.4,3.69l3.27,5c.55.83,1.09,1.66,1.64,2.48l1.62,2.44,1.61,2.4c2.14,3.19,4.24,6.26,6.26,9.16l1.51,2.14c3.83,5.41,7.36,10.08,10.32,13.51.49.55,1,1.08,1.41,1.57.31.34.62.66.91,1l.54.54c.52.51,1,1,1.49,1.36,0,0-18.58,14-21.33,18s-9.42,29.23-11.57,32.13-16.43,14.51-15.84,15.45,27-4.72,30-10.17,9.35-26.1,12.3-28.9c2.25-2.15,13-11.51,18.8-15.95C683.35,340.5,710.58,374.84,711.64,375.77Z" style="opacity:0.1"></path><path d="M512.67,316.75c-.82.64-15.91-3.53-16.82-3.81S490,300,489.08,300.27s-13.44-3.48-15.12-5.1-6-13.82-6-13.82h0l4.11-1.13c9.33-1.94,21.46-4.27,27.3-7.3.33,2.63,1.83,15.48,1.55,17.49-.32,2.25-2.79,7.46-2.05,9.11S513.49,316.12,512.67,316.75Z" style="opacity:0.1"></path><path d="M560.27,207.43s-21.62,3.15-24.72,8.58-27.35,54-30.45,56.9-33.53,11.37-37.18,14.92-23.69,43.46-31.24,48.63-16.06,6.14-20.39,9.36c-4,2.94-31.54,26-36.24,29.95H357.84c8.33-3.66,18.68-21.65,60.56-41.79,7.58-3.64,35.76-49.28,45.52-51.91,10.09-2.72,34.68-6.11,38.42-11.42,11.66-16.52,28-55.9,30.55-58.27C536.06,209.49,549.44,206.85,560.27,207.43Z" style="fill:#fff;opacity:0.5"></path><path d="M434.24,375.77s-27.39-15.44-37.5-16.12c-12-.8-80.34-21.52-87.33-23.48-8.76-2.45-46.71-36.62-74.34-59.83-2.14-1.8-12.79-.21-14.09-.9-11.14-6-19.67-16.56-26.52-16.56-7.45,0-64.59,66.5-70.54,72.1S85.77,356.75,75.8,358.8s-37.46,17-37.46,17Z" style="fill:#FFC727"></path><path d="M434.24,375.77s-27.39-15.44-37.5-16.12c-12-.8-80.34-21.52-87.33-23.48-8.76-2.45-46.71-36.62-74.34-59.83-2.14-1.8-12.79-.21-14.09-.9-11.14-6-19.67-16.56-26.52-16.56-7.45,0-64.59,66.5-70.54,72.1S85.77,356.75,75.8,358.8s-37.46,17-37.46,17Z" style="fill:#fff;opacity:0.4"></path><path d="M203.13,333c-1.38-.93-1.82-11.81-2.24-13.78S181,300,180.81,297.55s13.66-38.67,13.66-38.67c-7.46,0-64.6,66.51-70.55,72.1-.37.34-.85.75-1.41,1.21l-.92.72c-1.14.88-2.54,1.89-4.14,3l-1.42,1c-.74.51-1.49,1-2.29,1.54l-1.62,1.07c-.82.54-1.67,1.09-2.54,1.64-.58.38-1.17.75-1.77,1.12-1.78,1.12-3.63,2.27-5.51,3.39a205.32,205.32,0,0,1-19.63,10.66l-1.48.64c-.47.21-.94.39-1.38.57-.67.27-1.31.5-1.89.69l-1.12.35-1,.24c-.63.12-1.31.31-2.06.53-.38.1-.77.23-1.17.36s-.82.27-1.24.43l-1.32.47-1.37.53c-.93.37-1.9.77-2.9,1.19s-2,.87-3,1.33l-2.34,1.06-.79.37L58,365.8l-.78.37-1.57.76c-9.08,4.37-17.3,8.84-17.3,8.84H276.2C252.26,362,204.14,333.69,203.13,333Zm-54.39-3.26c-.78-.22-6-6.06-6.69-6.27s-2.29-4.8-1.9-5a27,27,0,0,1,3.18-1.23c.38-.05,2.47,2.83,2.85,2.83s7.58,0,8.28.43,6.19,8.53,6,9.26C160.14,330.69,149.5,330,148.74,329.74Z" style="opacity:0.1"></path><path d="M434.22,375.76c-.34-.14-23.27,0-23.27,0-3.88-3.9-12.15-9.55-15.46-10.22-5.49-1.11-24.38-4.83-30.1-6.62s-56.33-17.55-67.06-20.65S235,280.08,232.26,280s-11.41,1-13.85,0-17.5-18.74-23.94-21.07c6.85,0,15.38,10.6,26.51,16.56,1.3.69,12-.9,14.09.9,27.63,23.21,65.58,57.38,74.34,59.83,7,2,75.37,22.68,87.33,23.48C406.69,360.32,433.39,375.29,434.22,375.76Z" style="fill:#fff;opacity:0.4"></path><path d="M51.64,375.79s36-24,55.1-32.73c3.41-1.56,13.8-1.58,15.24-2,7.27-2.18,27.71-20.36,42.51-33.07,1.79-1.53,8.62-.27,10.26-1.7,5.54-4.82,10-8.82,12.34-10.88,4.73-4.2,32-2.26,36.42,0,2.28,1.16,18.44,18.32,28.73,26.45,3.31,2.61,25,4.28,33.93,5.62,8.61,1.29,31.73,26,38.42,27.75,37,9.91,46.12,18.76,53.47,20.56H51.64Z" style="fill:#FFC727"></path><path d="M51.64,375.79s36-24,55.1-32.73c3.41-1.56,13.8-1.58,15.24-2,7.27-2.18,27.71-20.36,42.51-33.07,1.79-1.53,8.62-.27,10.26-1.7,5.54-4.82,10-8.82,12.34-10.88,4.73-4.2,32-2.26,36.42,0,2.28,1.16,18.44,18.32,28.73,26.45,3.31,2.61,25,4.28,33.93,5.62,8.61,1.29,31.73,26,38.42,27.75,37,9.91,46.12,18.76,53.47,20.56H51.64Z" style="fill:#fff;opacity:0.30000000000000004"></path><path d="M51.64,375.78h0Z" style="fill:#fff;opacity:0.30000000000000004"></path><path d="M51.64,375.78h0Z" style="fill:#37474f"></path><path d="M51.64,375.78h0Z" style="opacity:0.4"></path><path d="M51.64,375.78h0Z" style="opacity:0.2"></path><path d="M251.77,375.78H51.66l.06,0,.25-.16.3-.21c4.89-3.24,36.88-24.3,54.47-32.31,7.6,3.41,20.86,9.58,22.49,10.45,2.6,1.38,8.23,11.54,10.87,14.22s25.91,5.46,26.43,5-12.09-6.17-14-7.6-7.8-13.85-10.22-15.81-18.83-8.86-18.83-8.86c.41-.19.85-.41,1.32-.67l.47-.26.47-.28.34-.2,1.24-.77c1.26-.81,2.64-1.76,4.11-2.84.21-.15.42-.3.63-.47,1.39-1,2.85-2.14,4.37-3.34.45-.34.89-.69,1.34-1.05l1.89-1.52,2.22-1.81,1.41-1.17,1.42-1.19q.72-.58,1.44-1.2l1.44-1.21,2.9-2.46,2.12-1.82.77-.66c.77-.65,1.54-1.32,2.29-2l3-2.61,4.38-3.77,1.4-1.2s-.33,9.73.55,10.44,7.57,7.11,8.26,7.7,1.51,8.34,2.5,8.75,6.12,6.18,6.67,6.18c.12,0,4.47.28,4.07-.15-1.44-1.59-6.94-8.07-7.24-8.68-.53-1.06.29-6,0-7.3s-5.82-7.21-6-8,.48-10.15.48-10.15l.25-.08a1.34,1.34,0,0,0,.3-.12l.22-.11a1,1,0,0,0,.2-.15q1.69-1.47,3.24-2.83l2.22-1.95.69-.61.67-.59,1.33-1.18c.25-.22.5-.43.73-.65s.47-.41.69-.61.44-.38.64-.57l.12-.1.49-.43.42-.37.39-.35.37-.33.18-.16.16-.14.16-.13.1-.08.17-.12.07-.05.21-.12.19-.11.23-.11.23-.1a1.21,1.21,0,0,1,.2-.09l0,0h0c-.06.4-3.21,19.77-2.42,22.4s19.85,17.42,20.87,19.88,4.59,21.09,7.34,23.66C216.57,362.4,240.53,371.55,251.77,375.78Z" style="opacity:0.1"></path><path d="M243.13,344.52c.72.32,14.05-1.73,14.84-1.87s5.14-6.35,6-6.23,11.87-1.71,13.35-2.51,5.34-6.8,5.34-6.8h0l-3.63-.55c-8.24-1-19-2.1-24.12-3.59-.28,1.29-1.61,7.61-1.36,8.6s2.46,3.67,1.81,4.48S242.4,344.21,243.13,344.52Z" style="opacity:0.1"></path><path d="M378.06,375.78h-24c-.93-.37-31.7-15.74-37-18.2s-29.13-26-32.86-27.07-32.6-4.37-34.59-5.31S226,299.87,222.85,297.37s-15.6-4.3-21.12-4.44c9,0,19.2,1.17,21.78,2.47,2.28,1.16,18.44,18.32,28.73,26.45,3.31,2.61,25,4.28,33.93,5.61,8.61,1.3,31.73,26,38.42,27.76C361.57,365.13,370.71,374,378.06,375.78Z" style="fill:#fff;opacity:0.4"></path><path d="M295.34,375.77s27.88-11.09,38.18-11.58c12.17-.58,81.78-15.47,88.89-16.88,8.91-1.76,43.55-26.32,71.68-43,2.17-1.29,13-.15,14.33-.65,11.34-4.28,24-11.9,31-11.9,7.58,0,65.75,47.8,71.8,51.82s38.84,18.53,49,20,38.13,12.19,38.13,12.19Z" style="fill:#FFC727"></path><path d="M295.34,375.77s27.88-11.09,38.18-11.58c12.17-.58,81.78-15.47,88.89-16.88,8.91-1.76,43.55-26.32,71.68-43,2.17-1.29,13-.15,14.33-.65,11.34-4.28,24-11.9,31-11.9,7.58,0,65.75,47.8,71.8,51.82s38.84,18.53,49,20,38.13,12.19,38.13,12.19Z" style="fill:#fff;opacity:0.4"></path><path d="M456.22,375.77H698.34s-8.37-3.2-17.62-6.35l-1.59-.54-.8-.27-1.6-.53-.8-.26-2.38-.76c-1-.33-2.09-.66-3.11-1s-2-.59-2.94-.85l-1.4-.38-1.34-.34-1.26-.31c-.41-.1-.81-.18-1.19-.26-.77-.16-1.47-.29-2.1-.38-.32-.05-.66-.1-1-.17l-1.14-.25c-.6-.14-1.24-.31-1.92-.5-.46-.13-.93-.26-1.41-.41s-1-.3-1.5-.46c-5.67-1.81-13-4.68-20-7.66-1.91-.81-3.79-1.63-5.61-2.44l-1.8-.8-2.59-1.18-1.65-.77c-.8-.37-1.58-.74-2.32-1.11-.5-.23-1-.47-1.45-.7-1.62-.8-3-1.52-4.22-2.16l-.93-.52c-.57-.33-1.06-.62-1.44-.87-6.05-4-64.22-51.82-71.81-51.82,0,0,14.07,26,13.9,27.8s-20,14.25-20.43,15.57-.88,9.24-2.28,9.91C529.57,345.53,480.59,365.87,456.22,375.77Zm117.83-33.08c-.21-.52,5.38-6.35,6.09-6.65s8-.31,8.42-.31,2.52-2.07,2.91-2,2.84.73,3.23.88-1.18,3.48-1.93,3.61-6,4.35-6.81,4.5S574.35,343.38,574.05,342.69Z" style="opacity:0.1"></path><path d="M539.41,291.76c-2.56.71-27,12.93-30.47,13.48s-12.41-.11-13.63,1.11-55,41.9-64.2,46.53-65.6,12.33-73.27,13.59c-6.47,1-19.29,7.36-23.14,9.3H295.34s27.88-11.09,38.18-11.58c12.17-.58,81.78-15.47,88.89-16.88,8.91-1.76,43.55-26.32,71.68-43,2.17-1.29,13-.15,14.33-.65C519.75,299.38,532.44,291.77,539.41,291.76Z" style="fill:#fff;opacity:0.5"></path></g><g id="freepik--Trees--inject-4"><path d="M0,466.34H107.43L94.85,410.87c-10.14-.66-22.88-3.25-34.31-10.71l33.29,6.19-15.36-67.8a62.3,62.3,0,0,1-13.67-8.71l12.59,4-2-9a65.15,65.15,0,0,1-18.94-12.54l17.66,6.9L53.73,229.41,42.24,280.12l10.32-2.58a75,75,0,0,1-11.14,6.18L24.93,356.38l12-3a78.42,78.42,0,0,1-12.85,7L12.62,410.67,36,404.85A85.15,85.15,0,0,1,11.42,416l-2,8.76,35.86-8.95S29.37,427.09,8.42,429.2L5.58,441.75l11.93-3a78.61,78.61,0,0,1-12.84,7Z" style="fill:#455a64"></path><path d="M19.77,394.56c5.94,2.27,28,11.23,32.7,13.85,0-1,0-2,0-3q-8-4.68-16-9.31c-5.72-3.33-11.86-6.3-17.18-10.21-.26-.2-.12-.73.24-.58,5.87,2.45,11.33,6.07,16.81,9.29s10.76,6.44,16.09,9.73q0-11.49.1-23a181.21,181.21,0,0,1-25.08-12.75c-.28-.16-.1-.67.22-.53A184.42,184.42,0,0,1,52.6,380.31c0-4-.13-34.66.86-73.5-5.22-2.63-10.59-4.95-15.81-7.6-.34-.17-.1-.77.27-.63,5.29,2.07,10.39,4.52,15.58,6.8.29-10.58.69-21.16,1.34-31.73a.27.27,0,0,1,.54,0c.73,19.65.67,57.66.43,77.32,5.4-4.31,11.17-8.13,16.67-12.32.21-.16.42.2.21.36-5.75,4.38-11.14,9.23-16.91,13.59,0,1.11,0,2.23,0,3.34,5.86-2.68,11.81-5.18,17.74-7.72.46-.19.87.47.4.7-6,2.89-12,5.84-18.16,8.57-.14,9.74-1,44.88-1.39,61.89q16.61-8.4,33.44-16.33c.43-.21.8.4.38.64a350.9,350.9,0,0,1-33.85,17c-.3,14.13-.59,30.88-.77,45a.67.67,0,0,1-1.33,0c.19-18,.22-38.67.27-56.69-5.83-1.44-27.88-10.88-33.11-13.47C18.82,395.28,19.2,394.34,19.77,394.56Z" style="fill:#37474f"></path><g style="opacity:0.2"><polygon points="74.07 319.15 66.4 316.15 53.73 229.41 74.07 319.15" style="fill:#fff"></polygon><path d="M77.39,333.82,68.57,331,67,320.43a70,70,0,0,0,8.33,4.36Z" style="fill:#fff"></path><path d="M93.83,406.35l-14.66-2.73L68.85,333a62.92,62.92,0,0,0,9.62,5.59Z" style="fill:#fff"></path><path d="M107.43,466.34H88.33l-8.44-57.82a81.48,81.48,0,0,0,15,2.35Z" style="fill:#fff"></path></g><path d="M615.54,466.34H723L710.4,410.87c-10.15-.66-22.89-3.25-34.32-10.71l33.29,6.19L694,338.55a62.13,62.13,0,0,1-13.68-8.71l12.59,4-2-9A65.19,65.19,0,0,1,672,312.25l17.66,6.9-20.34-89.74-11.49,50.71,10.32-2.58A75,75,0,0,1,657,283.72l-16.48,72.66,12-3a78.84,78.84,0,0,1-12.86,7l-11.42,50.31,23.34-5.82A85,85,0,0,1,627,416l-2,8.76,35.85-8.95S644.91,427.09,624,429.2l-2.84,12.55,11.93-3a78.61,78.61,0,0,1-12.84,7Z" style="fill:#455a64"></path><path d="M635.31,394.56c5.94,2.27,28,11.23,32.71,13.85,0-1,0-2,0-3q-8-4.68-16-9.31c-5.72-3.33-11.85-6.3-17.18-10.21-.26-.2-.12-.73.24-.58,5.88,2.45,11.33,6.07,16.81,9.29S662.7,401,668,404.32c0-7.66.05-15.32.1-23a181.78,181.78,0,0,1-25.08-12.75c-.28-.16-.09-.67.22-.53a184.42,184.42,0,0,1,24.87,12.25c0-4-.12-34.66.87-73.5-5.22-2.63-10.6-4.95-15.81-7.6-.35-.17-.1-.77.26-.63,5.29,2.07,10.39,4.52,15.59,6.8.28-10.58.68-21.16,1.33-31.73a.27.27,0,0,1,.54,0c.74,19.65.68,57.66.43,77.32,5.4-4.31,11.17-8.13,16.67-12.32.21-.16.42.2.21.36-5.75,4.38-11.13,9.23-16.9,13.59,0,1.11,0,2.23,0,3.34,5.86-2.68,11.81-5.18,17.73-7.72.46-.19.88.47.4.7-6,2.89-12,5.84-18.16,8.57-.14,9.74-1,44.88-1.39,61.89q16.61-8.4,33.45-16.33c.42-.21.79.4.37.64a349.58,349.58,0,0,1-33.84,17c-.3,14.13-.6,30.88-.78,45a.67.67,0,0,1-1.33,0c.2-18,.23-38.67.28-56.69-5.84-1.44-27.89-10.88-33.12-13.47C634.36,395.28,634.74,394.34,635.31,394.56Z" style="fill:#37474f"></path><g style="opacity:0.30000000000000004"><path d="M624,429.2a79.2,79.2,0,0,0,19.44-4.63l-5.54,41.77H615.54l4.67-20.61a78.61,78.61,0,0,0,12.84-7l-11.93,3Z" style="fill:#fff"></path><path d="M627,416a88.63,88.63,0,0,0,18.57-7.49L644,420l-19,4.75Z" style="fill:#fff"></path><path d="M657,283.72c2.08-1,3.92-1.9,5.47-2.75l-16.61,125.3-17.66,4.4,11.42-50.31a78.84,78.84,0,0,0,12.86-7l-12,3Z" style="fill:#fff"></path><polygon points="669.27 229.41 662.71 278.89 657.78 280.12 669.27 229.41" style="fill:#fff"></polygon></g><path d="M649.49,466.34H533.8l5.65-30.42c24.24-1.58,43.14-18,43.14-18l-42.18,12.87L556,346.86a84,84,0,0,0,17.56-11l-16.46,5,2.54-13.68a85.75,85.75,0,0,0,24.92-14.08l-23.63,7.18,14.74-79.46a74.14,74.14,0,0,0,8.93-6.34L576.37,237l15.3-82.47,21.91,118.15-19-9.09a71,71,0,0,0,20.4,16.49v0l20.64,111.26-32-12.35a70.37,70.37,0,0,0,33.24,19l2.12,11.36-17.22-3.91a63.48,63.48,0,0,0,18.38,10.21Z" style="fill:#37474f"></path><path d="M630.15,365c-6.91,2.64-31.52,12.59-37.06,15.64,0-1.17,0-2.34,0-3.5,6.18-3.64,12.39-7.24,18.59-10.85,6.65-3.87,11.08-5.26,17.28-9.82.3-.22.14-.85-.28-.67a120.07,120.07,0,0,0-16.85,8.74c-6.3,3.7-12.53,7.5-18.75,11.34q0-13.38-.11-26.76a212.56,212.56,0,0,0,29.21-14.85c.32-.19.11-.78-.26-.63a214.34,214.34,0,0,0-29,14.28c0-4.64-.05-9.28-.1-13.92-.25-23.88-.3-47.8-.91-71.69,6.08-3.07,12.34-5.77,18.41-8.85.4-.2.12-.9-.3-.73-6.17,2.4-12.11,5.26-18.16,7.91-.33-12.32-.8-24.64-1.55-36.95a.32.32,0,0,0-.63,0c-.86,22.88-.78,45.79-.5,68.69-6.29-5-13-9.47-19.41-14.34-.25-.19-.49.23-.25.41,6.7,5.1,13,10.75,19.69,15.83,0,1.3,0,2.59,0,3.88-6.83-3.12-13.76-6-20.66-9-.54-.23-1,.54-.47.81,7,3.37,14,6.8,21.15,10,.16,11.34.36,22.68.5,34,.26,19.81.7,39.61,1.12,59.42q-19.33-9.78-38.95-19c-.5-.24-.93.46-.44.74A406.59,406.59,0,0,0,591,394.89c.35,16.46.69,54.24.9,70.7a.78.78,0,0,0,1.56,0c-.23-21-.27-63.31-.32-84.3,6.79-1.68,31.44-12.19,37.54-15.2C631.26,365.78,630.82,364.69,630.15,365Z" style="fill:#455a64"></path><g style="opacity:0.30000000000000004"><path d="M539.45,435.92a65.9,65.9,0,0,0,16.23-3.24l-4.35,33.66H533.8Z" style="fill:#fff"></path><path d="M556,346.86a91.35,91.35,0,0,0,11.67-6.64l-11.08,85.62-16.16,4.93Z" style="fill:#fff"></path><path d="M559.62,327.16a82,82,0,0,0,10.3-4.52L568,337.52l-10.91,3.32Z" style="fill:#fff"></path><path d="M575.65,240.8c2.11-1.31,3.9-2.53,5.31-3.54l-10.35,80.05-9.7,2.95Z" style="fill:#fff"></path><polygon points="591.67 154.5 581.19 235.5 576.37 236.97 591.67 154.5" style="fill:#fff"></polygon></g><path d="M750,466.34H665.56l9.89-43.59c8-.52,18-2.56,27-8.43l-26.17,4.87,12.07-53.29a49,49,0,0,0,10.75-6.84l-9.89,3.13,1.59-7.1a51.28,51.28,0,0,0,14.89-9.85l-13.87,5.42,16-70.54,9,39.86-8.11-2a59,59,0,0,0,8.76,4.86l12.95,57.11-9.4-2.35a62.34,62.34,0,0,0,10.11,5.48l9,39.53L721.74,418A67.28,67.28,0,0,0,741,426.74l1.56,6.88-28.18-7a67,67,0,0,0,29,10.56l2.24,9.86-9.38-2.33a61.19,61.19,0,0,0,10.09,5.46Z" style="fill:#37474f"></path><path d="M734.46,409.93c-4.67,1.78-22,8.82-25.7,10.88,0-.79,0-1.58,0-2.37q6.25-3.68,12.54-7.32c4.49-2.61,9.32-4.94,13.5-8,.21-.15.1-.57-.19-.45-4.61,1.92-8.9,4.77-13.21,7.29s-8.45,5.07-12.65,7.66q0-9-.07-18.06a144.78,144.78,0,0,0,19.71-10c.22-.13.07-.53-.18-.43a145.19,145.19,0,0,0-19.54,9.64c0-3.13.1-27.24-.68-57.77,4.1-2.07,8.33-3.9,12.43-6,.26-.13.08-.6-.21-.49C716,336.11,712,338,708,339.83c-.22-8.32-.54-16.63-1.05-24.93a.22.22,0,0,0-.43,0c-.57,15.44-.52,45.31-.33,60.77-4.25-3.4-8.78-6.4-13.11-9.69-.16-.12-.33.16-.16.29,4.52,3.44,8.75,7.25,13.29,10.68l0,2.62c-4.61-2.11-9.28-4.07-13.94-6.06-.36-.16-.69.36-.32.54,4.75,2.28,9.47,4.59,14.28,6.74.11,7.66.8,35.28,1.09,48.64q-13-6.6-26.29-12.84c-.33-.15-.62.32-.29.51a276.52,276.52,0,0,0,26.6,13.36c.24,11.11.47,24.27.61,35.38a.53.53,0,0,0,1.05,0c-.16-14.17-.18-30.39-.22-44.56,4.59-1.13,21.91-8.55,26-10.58C735.21,410.49,734.91,409.75,734.46,409.93Z" style="fill:#455a64"></path><g style="opacity:0.2"><path d="M675.45,422.75a63,63,0,0,0,10.65-1.58l-6.94,45.17h-13.6Z" style="fill:#fff"></path><path d="M688.32,365.9a50.38,50.38,0,0,0,6.87-3.9l-8.49,55.24-10.45,1.95Z" style="fill:#fff"></path><path d="M690.77,355.09a57,57,0,0,0,6-3.07l-1.25,8.18-6.29,2Z" style="fill:#fff"></path><polygon points="707.77 280.12 697.26 348.52 691.79 350.66 707.77 280.12" style="fill:#fff"></polygon></g><path d="M187.27,466.34H71.59l5.64-30.42c24.24-1.58,43.14-18,43.14-18L78.19,430.77l15.57-83.91a83.68,83.68,0,0,0,17.56-11l-16.46,5,2.55-13.68a85.79,85.79,0,0,0,24.91-14.08L98.7,320.26l14.74-79.46a74.45,74.45,0,0,0,8.92-6.34L114.15,237l15.3-82.47,21.91,118.15-19-9.09a70.86,70.86,0,0,0,20.41,16.49v0l20.63,111.26-32-12.35a70.32,70.32,0,0,0,33.24,19l2.12,11.36-17.23-3.91a63.48,63.48,0,0,0,18.38,10.21Z" style="fill:#37474f"></path><path d="M167.94,365c-6.92,2.64-31.53,12.59-37.06,15.64,0-1.17,0-2.34,0-3.5,6.18-3.64,12.39-7.24,18.59-10.85,6.66-3.87,11.08-5.26,17.28-9.82.31-.22.14-.85-.28-.67a120.07,120.07,0,0,0-16.85,8.74c-6.3,3.7-12.53,7.5-18.74,11.34q0-13.38-.12-26.76A213.24,213.24,0,0,0,160,334.22c.32-.19.1-.78-.27-.63a214.92,214.92,0,0,0-29,14.28c0-4.64,0-9.28-.1-13.92-.25-23.88-.3-47.8-.91-71.69,6.08-3.07,12.34-5.77,18.42-8.85.39-.2.12-.9-.31-.73-6.17,2.4-12.1,5.26-18.15,7.91-.33-12.32-.8-24.64-1.55-36.95a.32.32,0,0,0-.64,0c-.85,22.88-.78,45.79-.49,68.69-6.3-5-13-9.47-19.42-14.34-.25-.19-.49.23-.25.41,6.7,5.1,13,10.75,19.69,15.83,0,1.3,0,2.59,0,3.88-6.83-3.12-13.76-6-20.66-9-.54-.23-1,.54-.47.81,7,3.37,14,6.8,21.15,10,.17,11.34.36,22.68.51,34,.25,19.81.69,39.61,1.11,59.42q-19.32-9.78-38.95-19c-.49-.24-.93.46-.43.74a405.29,405.29,0,0,0,39.41,19.8c.35,16.46.7,54.24.91,70.7a.78.78,0,0,0,1.55,0c-.23-21-.26-63.31-.32-84.3,6.79-1.68,31.44-12.19,37.54-15.2C169.05,365.78,168.6,364.69,167.94,365Z" style="fill:#455a64"></path><g style="opacity:0.30000000000000004"><polygon points="151.35 272.65 142.5 268.42 129.45 154.5 151.35 272.65" style="fill:#fff"></polygon><path d="M173.36,391.33l-17.55-6.77L143.12,273.83a73,73,0,0,0,9.6,6.22v0Z" style="fill:#fff"></path><path d="M187.27,466.34H165.18l-8.67-75.63A74.25,74.25,0,0,0,174.59,398l2.12,11.36-17.22-3.91a63.48,63.48,0,0,0,18.38,10.21Z" style="fill:#fff"></path></g></g><g id="freepik--Land--inject-4"><path d="M750,395.4s-122.88,19.34-188.5,38.5c-86.75,25.34-138.5-3-263,19.17C227.77,465.67,153,439,125.62,434.57,80.25,427.25,0,425.4,0,425.4v74.42H750Z" style="fill:#FFC727"></path><g style="opacity:0.1"><path d="M750,395.4s-122.88,19.34-188.5,38.5c-86.75,25.34-138.5-3-263,19.17C227.77,465.67,153,439,125.62,434.57,80.25,427.25,0,425.4,0,425.4v74.42H750Z"></path></g><path d="M750,395.4v16.24s-54.94-1-81.72,4.94S531.89,445,507.5,446.49s-64.29,1.63-86.68,1.12-104,9.82-161.39,10.71S147,441.47,122.86,437.43,0,434.92,0,434.92V425.4s80.25,1.85,125.63,9.17c27.4,4.42,102.14,31.1,172.87,18.5,124.5-22.16,176.25,6.17,263-19.17C627.12,414.74,750,395.4,750,395.4Z" style="fill:#fff;opacity:0.2"></path></g></svg>
